<?xml version="1.0" encoding="UTF-8" standalone="no"?>
<svg
   xmlns:dc="http://purl.org/dc/elements/1.1/"
   xmlns:cc="http://creativecommons.org/ns#"
   xmlns:rdf="http://www.w3.org/1999/02/22-rdf-syntax-ns#"
   xmlns:svg="http://www.w3.org/2000/svg"
   xmlns="http://www.w3.org/2000/svg"
   xmlns:sodipodi="http://sodipodi.sourceforge.net/DTD/sodipodi-0.dtd"
   xmlns:inkscape="http://www.inkscape.org/namespaces/inkscape"
   width="798.02643pt"
   height="798.09155pt"
   viewBox="0 0 798.02643 798.09155"
   version="1.1"
   id="svg178"
   sodipodi:docname="minilogo_withoutBackground.svg"
   inkscape:version="0.92.2 (5c3e80d, 2017-08-06)"
   inkscape:export-filename="C:\Users\TomHerbers\Cloud-Minis\Oberrunde\Minilogo\minilogo_withBackgroundAndBorder_512px.png"
   inkscape:export-xdpi="43.470001"
   inkscape:export-ydpi="43.470001">
  <title
     id="title3875">Logo der Ministranten Sankt Georg Bensheim</title>
  <metadata
     id="metadata184">
    <rdf:RDF>
      <cc:Work
         rdf:about="">
        <dc:format>image/svg+xml</dc:format>
        <dc:type
           rdf:resource="http://purl.org/dc/dcmitype/StillImage" />
        <dc:title>Logo der Ministranten Sankt Georg Bensheim</dc:title>
        <dc:date>08.12.2017</dc:date>
        <dc:creator>
          <cc:Agent>
            <dc:title />
          </cc:Agent>
        </dc:creator>
        <dc:publisher>
          <cc:Agent>
            <dc:title>Ministranten Sankt Georg Bensheim</dc:title>
          </cc:Agent>
        </dc:publisher>
        <dc:source>http://www.ministranten-sankt-ge.org</dc:source>
      </cc:Work>
    </rdf:RDF>
  </metadata>
  <defs
     id="defs182" />
  <sodipodi:namedview
     pagecolor="#ffffff"
     bordercolor="#666666"
     borderopacity="1"
     objecttolerance="10"
     gridtolerance="10"
     guidetolerance="10"
     inkscape:pageopacity="0"
     inkscape:pageshadow="2"
     inkscape:window-width="1920"
     inkscape:window-height="1017"
     id="namedview180"
     showgrid="true"
     inkscape:pagecheckerboard="true"
     inkscape:zoom="0.6232791"
     inkscape:cx="192.34158"
     inkscape:cy="536.941"
     inkscape:window-x="-8"
     inkscape:window-y="-8"
     inkscape:window-maximized="1"
     inkscape:current-layer="svg178"
     fit-margin-top="0"
     fit-margin-left="0"
     fit-margin-right="0"
     fit-margin-bottom="0" />
  <path
     style="fill:#090909;stroke-width:1"
     d="m 385.02548,0 c -0.02,128.32 0.0307,256.64971 -0.0293,384.96971 -128.30999,0.08 -256.63067,-0.0199 -384.95066213,0.0601 0,12.67999 -0.130196,25.36052 0.0498,38.04052 1.86000003,25.81 6.72100003,51.3098 12.27100013,76.54981 4.14,19.30999 11.31015,37.78983 19.16015,55.83983 27.02,63.14 70.228922,119.53041 125.148922,160.92041 28.17,21.17 58.93096,38.95977 91.48096,52.48977 15.62999,6.40995 31.56929,12.20055 48.02929,16.0605 21.62,5.17005 43.49964,9.36878 65.63964,11.4888 16.93001,2.71 34.11139,1.23128 51.17139,1.55123 0.08,-128.30997 -0.0214,-256.63039 0.0586,-384.94039 128.32,-0.06 256.65117,-0.0108 384.97119,-0.0307 v -27.99903 c -128.33002,-0.02 -256.65119,0.0292 -384.97119,-0.0308 C 412.99527,256.64971 413.04627,128.32 413.02597,0 Z M 28.775498,412.95994 c 118.750002,0.11001 237.490942,-0.01 356.230932,0.0601 0.06,118.75 -0.0205,237.49973 0.0395,356.23974 -6.03,0.84 -12.06986,-0.28988 -18.10986,-0.3999 -22.75,-1.79003 -45.18086,-6.5199 -67.13086,-12.62993 -64.13997,-17.44998 -122.92918,-53.2298 -168.94918,-101.0698 -12.77,-13.39 -24.58008,-27.70043 -35.08007,-42.94043 -10.39,-14.98 -19.20973,-30.96945 -27.969732,-46.93945 -6.34,-11.51 -12.12072,-23.36962 -16.24072,-35.86963 -7.62,-22.15 -13.71967,-44.83079 -18.15967,-67.8208 -2.63,-13.81 -3.90988,-27.82982 -5.12988,-41.81982 -0.18,-2.28999 0.10951,-4.57005 0.49951,-6.81006 z"
     id="path100"
     inkscape:connector-curvature="0" />
  <path
     d="m 319.26599,7.390003 c 9.17,-1.86 18.39,-3.46 27.7,-4.43 0.12,114.669997 0.05,229.349997 0.04,344.019997 -9.65,0.04 -19.31,0.04 -28.96,0 0.08,-97.99 -0.34,-195.99 0.4,-293.979997 0.28,-15.2 0.05,-30.42 0.82,-45.61 z"
     id="path104"
     inkscape:connector-curvature="0"
     style="fill:#090909" />
  <path
     d="m 265.46599,33.450003 c 5.06,-5.03 9.87,-10.35 15.47,-14.79 0.18,109.449997 0.04,218.889997 0.09,328.339997 -9.66,0 -19.32,0.02 -28.98,-0.02 -0.05,-80.32 -0.01,-160.65 -0.02,-240.98 -0.04,-5.86 0.18,-11.73 -0.24,-17.58 -22.22,22.95 -43.5,46.82 -66.07,69.43 -12.81,-10.34 -24.04,-22.45 -36.57,-33.11 -24.8,22.33 -45.56,48.77 -63.76,76.65 -8.86,14.21 -16.470002,29.17 -23.690002,44.27 -8.79,18.31 -15.02,37.69 -20.69,57.14 -2.53,9.08 -4.91,18.2 -6.7,27.46 -1.11,5.51 -1.28,11.14 -2.24,16.68 -9.71,0.08 -19.42,0.18 -29.1200001,-0.06 4.05,-28.74 10.2800001,-57.28 20.4800001,-84.5 6.82,-18.72 15.09,-36.89 24.57,-54.41 6.19,-11.5 13.52,-22.34 20.71,-33.23 7.480002,-11.08 14.800002,-22.35 23.830002,-32.26 14.59,-16.33 29.87,-32.09 46.08,-46.83 3.79,-3.53 7.84,-6.78 12.21,-9.55 9.19,8.5 18.01,17.39 27.34,25.73 2.19,1.84 4.05,4.3 6.82,5.3 6.55,-3.95 11.15,-10.33 16.58,-15.6 21.66,-22.36 42.03,-45.929997 63.9,-68.079997 z"
     id="path106"
     inkscape:connector-curvature="0"
     style="fill:#090909" />
  <path
     style="fill:#090909;stroke-width:1"
     d="m 580.46932,88.59374 c -26.35166,0.14961 -52.68017,8.47273 -74.24267,23.63672 -23.48,16.80001 -40.97107,41.41939 -50.35108,68.62939 -2.76999,8.1 -3.92933,16.66971 -4.06933,25.19971 -0.69,15.87 -1.30057,32.211 3.66943,47.52099 9.06,28.44 27.55018,53.82983 51.93018,71.06983 35.02,24.86 82.93048,29.71027 122.50048,13.28027 13.37,-5.36 25.21957,-13.78076 36.55957,-22.53076 4.16,-3.42 8.3407,-6.87035 11.9707,-10.86035 1.79001,-1.69 1.58916,-4.24951 1.63917,-6.49951 -0.12,-17.34 -3.2e-4,-34.67954 -0.0703,-52.01953 -6.99,-0.04 -13.97899,-0.04 -20.95899,0 -0.04,13.67999 -0.0407,27.35906 0.0293,41.03906 -0.06,1.51 -0.0104,3.05051 -0.42042,4.52051 -1.71,2.61 -4.48965,4.22047 -7.13964,5.73046 -0.67001,-3.04999 -1.53918,-6.11049 -1.40919,-9.25048 0.24,-2.46 1.58958,-4.61979 2.05958,-7.02979 -0.69,-3.36 -2.5201,-6.34064 -3.3501,-9.66064 -1.18,-4.13001 -0.6403,-8.67912 -2.55029,-12.59913 -0.95001,-2.08999 -4.07985,-3.53058 -5.58985,-1.18066 -2.69,4.82 -2.75041,10.5598 -4.17041,15.79981 -3.53,-5.16 -5.34923,-11.40024 -9.71924,-15.99024 1.01001,6.14001 3.58946,11.93992 4.18946,18.16992 -4.98,-2.94 -6.71973,-10.21965 -12.96973,-10.88964 -1.17,6.69999 3.54074,12.24052 4.76075,18.54052 0.76999,3.02 0.28964,6.31016 -1.86036,8.66016 -5.22,6.35 -11.31992,12.08037 -18.16992,16.63037 -0.72,-4.13 -0.69019,-8.33097 -0.7002,-12.50097 -0.01,-23.33001 -0.0298,-46.66031 0.0103,-69.99023 30.98,-0.03 61.97019,-0.0302 92.9502,-0.0103 -0.16001,5.47001 0.61902,11.05115 -0.50098,16.43116 -2.11,2.31 -5.37965,3.34949 -7.13965,5.97949 -0.18,1.19 0.10049,2.39007 0.25049,3.58007 4.63,-1.67 8.98962,-3.97946 13.36962,-6.20947 0.10001,-8.59 0.0493,-17.18107 0.0293,-25.77099 -13.37,-0.23 -26.75889,0.4001 -40.10889,-0.39991 1.37,-8.27 3.78945,-16.33978 6.43945,-24.27978 2.07,-5.61993 3.83934,-11.74955 8.56934,-15.78955 4.94,3.94 8.77123,9.00931 12.51123,14.04931 1.81,2.18001 3.66898,4.92987 6.70898,5.35987 4.34,-0.21 7.14018,-3.99961 9.93018,-6.84961 -4.32,-12.99 -9.73008,-25.58051 -14.83008,-38.27051 -3.45,-8.16 -6.53923,-16.48927 -10.46924,-24.42919 -5.60993,2.49992 -7.00021,9.08956 -11.72021,12.55957 -4.06,3.27 -8.85082,5.40019 -13.59082,7.45019 -7.09001,3.05 -12.71881,8.69974 -17.02881,14.98975 -1.24,1.43 -2.27121,3.71103 -4.49121,3.56103 -10.84,0.32 -19.63943,-6.83041 -27.66943,-13.17041 -1.52001,-1.49 -3.77018,-3.20035 -3.18018,-5.61035 1.88,-3.43 5.78043,-4.94015 9.19043,-6.41015 1.64,3.45 3.70984,6.92089 7.08985,8.92089 1.48999,0.83 3.39957,1.81956 5.05956,0.78955 2.58,-1.21999 3.78045,-4.08994 4.46046,-6.68994 1.29999,-5.75 0.41013,-12.45004 -3.85987,-16.79004 -2.04,-2.1 -5.34968,-3.4507 -8.17969,-2.2207 -2.04,1.39 -2.82035,3.9209 -4.11035,5.9209 -1.95,3.81 -6.18065,5.44025 -9.66065,7.51025 0.03,-9.08 -0.31976,-18.16997 0.24024,-27.22997 2.3,0.1 4.65082,0.15997 6.84082,0.97998 10.54,3.72 20.46957,9.00864 29.80957,15.11864 6.82,4.37001 13.13057,9.53028 20.33057,13.28028 1.03999,-1.71 2.05999,-3.52029 2.25,-5.5503 0.82999,-6.81999 0.44894,-13.70907 0.41894,-20.55908 -4.7,-3.03 -9.30937,-6.22082 -14.10937,-9.09081 -13.74,-8.68001 -29.56985,-13.35903 -45.33985,-16.74903 -7.27774,-1.26875 -14.65864,-1.86855 -22.03711,-1.82666 z m 5.896,22.38282 c 1.24775,0.008 2.49558,0.0326 3.74121,0.0733 2.19,0.1 4.3197,0.63041 6.4497,1.17041 -7.37,7.03 -17.17072,10.69909 -25.24072,16.80908 4.94,6.57 11.07063,12.16031 15.89062,18.82031 1.55001,1.42001 0.0804,3.20975 -0.8496,4.48975 -5.47,7.13 -11.90059,13.49008 -17.10059,20.83008 -4.14,5.18 0.5101,11.44054 1.8501,16.81054 -1.56,-0.04 -3.10967,-0.0894 -4.65966,-0.14941 -1.63001,-5.05 -2.93053,-11.81051 -8.79054,-13.52051 -7.68999,-1.84 -15.81054,-1.64953 -23.56054,-0.26953 -4.69,0.78 -7.79928,4.66951 -11.50928,7.24951 -3.27,-5.48 -5.51943,-11.49965 -8.91943,-16.88964 -1.98,-3.44001 -6.42067,-5.28083 -10.18066,-3.84083 -5.31,1.86 -8.95004,6.61037 -11.54004,11.38037 -2.76,4.87001 -2.69014,10.6303 -2.89014,16.05029 -0.04,9.38001 -0.10045,18.75966 0.0395,28.13965 2.02,-0.33 4.04031,-0.66023 6.07031,-0.99023 0.49,-11.72 1.06063,-23.43944 0.89063,-35.16943 -0.13,-5.79 3.11918,-11.26957 8.15918,-14.05957 -1.23,2.47 -2.99967,4.66906 -3.90967,7.28906 -0.67,3.23 -0.53944,6.55961 -0.66943,9.84961 -0.16,10.02 -0.81983,20.03127 -0.56983,30.05127 1.99,0.09 3.97924,0.21959 5.96924,0.32958 1.28,-11.11999 0.97094,-22.32046 0.96094,-33.48046 0.03,-3.2 0.0294,-7.12975 3.14941,-8.98975 1.94,0.11001 2.42959,2.26014 3.32959,3.64014 1.72,3.68 3.85051,7.30986 4.5205,11.35986 -1.12999,3.36 -3.54993,6.29999 -3.68994,9.97998 -0.57999,7.76 -0.82015,15.97994 2.58985,23.18994 -5.27,1.65 -10.77965,2.26958 -16.13965,3.55958 -2.43993,0.66999 -5.18025,1.36122 -6.76025,3.51123 -0.43,2.22 -0.11994,4.49974 0.0601,6.73974 1.55,12.98 2.56018,26.01025 3.93018,39.01025 0.27,2.54 0.63986,5.12 1.60986,7.5 1.49,0.25 3.01025,0.0189 4.51025,-0.10107 -0.24999,-14.81 -2.94075,-29.49031 -3.03075,-44.32031 11.80999,2.92 23.95081,4.16998 36.09081,4.72998 5.97,-0.04 12.16891,-1.91 16.62891,-6 2.75993,-2.45 3.12078,-6.32 3.55078,-9.75 7.01,0.03 14.02955,-0.19875 21.03954,0.22119 -2.26999,3.7 -5.45948,6.77891 -7.47948,10.62891 -0.82001,1.32 -0.87035,3.94086 1.13965,4.13085 4.64999,0.84 9.39937,0.78049 14.10937,1.0005 -0.16,-1.81001 -0.30901,-3.61114 -0.479,-5.41114 -2.00001,-0.39 -4.01001,-0.74965 -6,-1.13965 1.87999,-3.49 4.25004,-6.97019 7.79004,-8.95019 3.06999,-0.93 6.36906,-0.40952 9.53906,-0.49952 -0.02,27.77 0.14064,55.54006 -0.0894,83.31006 -4.65,0.1 -9.30066,-0.0898 -13.93066,-0.33984 -4.23,-0.06 -8.59997,-3.42106 -8.70996,-7.83106 0.81,-3.36 3.88062,-5.37876 6.14062,-7.73877 4.73,-4.65999 10.38014,-9.58132 11.14014,-16.61133 0.74,-9.42999 -1.95955,-19.63999 -9.03955,-26.25 -7.25,-6.91999 -17.80027,-9.06927 -27.53027,-8.50927 -6.95,0.5 -14.16022,1.86969 -19.97022,5.92969 -4.21,2.94999 -7.70051,7.66074 -7.52051,13.01074 0.09,5.41 1.2503,10.71984 1.8003,16.08984 -3.35001,0.02 -6.96942,0.50904 -9.89942,-1.48096 2.24,-1.05 4.54961,-1.93962 6.84961,-2.86962 -1.11,-4 -2.62951,-8.4591 -6.49951,-10.57911 -4.18,-0.89 -8.19025,1.92873 -10.51025,5.19873 -2.94,4.37001 -2.0602,9.9704 -1.4502,14.9004 0.40001,4.02 2.70029,7.85001 6.47021,9.52002 6.15001,2.76999 13.19897,2.46046 19.68897,1.23046 3.88,-0.73 8.01008,-2.69982 9.58008,-6.56982 2.77,-7.39 0.59117,-15.43002 1.95117,-23.02002 0.36,-2.7 3.00863,-4.29004 5.59863,-4.04004 5.54,0.33 11.33024,1.40961 15.99023,4.59961 2.09001,1.43 4.30011,4.78992 1.8501,6.91992 -5.10999,4.97 -12.65007,6.3107 -17.83008,11.2207 -6.25999,5.32001 -8.50003,13.99897 -7.79003,21.93897 0.38993,5.24994 2.52025,10.131 3.76025,15.21093 -12.21,-2.79993 -22.60994,-10.31101 -32.18994,-18.04101 -6.57993,-5.41 -12.67924,-11.40936 -17.96924,-18.08935 -7.32,-9.05 -12.02109,-19.84079 -16.37109,-30.55079 -4.4,-10.58 -5.82953,-22.15931 -5.51953,-33.54931 -0.21,-11.3 0.45006,-22.88027 4.56006,-33.53027 9.5,-26.26 27.99023,-50.14966 53.49023,-62.40966 16.71562,-8.625 35.59285,-12.20526 54.30908,-12.0835 z m 9.38085,10.76367 c 0.21,7.93 0.99999,16.00938 -0.52002,23.85937 -5.76,-3.85 -9.91042,-9.47009 -14.44042,-14.60009 4.83,-3.33 9.66045,-6.69928 14.96044,-9.25928 z m 23.00977,9.15087 c 3.18131,0.10856 4.96622,3.855 5.70996,6.69873 1.42001,3.84001 -0.64927,7.71022 -2.50927,10.97022 -7.06,-1.86 -9.33088,-12.34998 -4.65088,-17.47998 0.5125,-0.14625 0.99572,-0.20447 1.45019,-0.18897 z m 59.39062,9.21827 c 4.06,5.99 6.50934,12.84045 9.31934,19.46045 4.09,9.77 7.40037,19.85041 11.38037,29.6704 1.11,2.49 -2.71029,6.63942 -4.80029,3.89942 -4.95,-5.79 -9.37934,-12.02914 -14.56934,-17.61914 -1.8,-1.8 -3.73015,-3.87111 -6.41016,-4.14111 -3.34999,3.3 -4.61001,8.00992 -6.52002,12.16992 -4.65999,11.84 -9.62984,23.74111 -11.58984,36.39111 -17.64,0.12 -35.28015,0.0496 -52.91015,0.0395 0.03,-8.65 -0.21008,-17.30996 0.16992,-25.95996 7.94,-2.24 16.30947,-2.33043 24.20947,-4.69043 3.29,-0.72 4.73055,-4.04014 6.31055,-6.64013 4.18,-7.84001 8.78898,-15.58005 14.95898,-22.04004 5.83,-6.06 14.11038,-8.54961 21.13038,-12.84961 3.48999,-2.08001 6.2808,-5.06043 9.32079,-7.69043 z m -82.0913,12.97119 c -0.17,1.79 0.21068,3.72967 -0.54932,5.40967 -4.98,7.38 -12.72052,12.67998 -17.04052,20.47998 3.00999,9.92999 8.30091,19.02984 11.69091,28.83984 0.63,1.83 0.77018,3.77971 0.93018,5.69971 -1.43,-1.45001 -2.7907,-2.98909 -3.72071,-4.80908 -4.90996,-9.3 -8.83011,-19.07119 -13.62011,-28.43115 -0.77,-1.4 -1.08975,-3.17004 0.0103,-4.5 5.49,-8.09 12.50053,-14.99967 18.54053,-22.65968 1.25,-0.01 2.49879,-0.0193 3.75879,-0.0293 z m 6.13037,6.64893 c 5.36,2.91 10.07092,6.87076 15.44092,9.78076 3.9,2.15 8.37918,2.7 12.65918,3.75 -0.47,4.66 -2.85035,9.93906 -7.86035,11.03906 -6.6,1.48 -13.35993,2.50086 -20.12988,2.63086 -0.48001,-9.05 -0.32987,-18.14068 -0.10987,-27.20068 z m -6.50977,5.86084 c 0.45,7.73 0.42049,15.46898 0.25049,23.20898 -2.27,0.44 -4.52076,0.94014 -6.78076,1.39014 -2.22,-3.38 -4.86968,-6.84881 -5.17969,-11.02881 3.13001,-5.1 7.48997,-9.35031 11.70996,-13.57031 z m -53.88573,14.33202 c 1.10655,0.005 2.20513,0.0351 3.26513,0.0175 4.06,0.08 8.86059,-0.0205 11.85058,3.20948 2.43,3.39 1.98999,7.83001 2.47998,11.77002 4.40001,0.19999 8.88048,-0.33928 13.23047,0.49072 2.32,1.31994 3.68002,3.75949 5.02002,5.97949 2.98,5.4 5.83022,10.97027 7.22022,17.03027 -12.54,1.33001 -25.20023,0.61004 -37.74023,1.79004 0.48999,2.9 1.55958,5.6894 1.82958,8.6294 -1.14,3.18999 -4.5906,5.06058 -7.8706,5.10058 -7.37,0.18 -14.78863,0.30026 -22.09863,-0.73975 -5.61,-0.72999 -11.39011,-1.12071 -16.62012,-3.43065 8.07,-2.95001 17.29955,-1.9402 24.78955,-6.7002 -2.36,-3.05001 -5.32953,-5.53928 -7.76953,-8.50928 -0.68,-6.35 -0.58006,-12.87073 -0.0601,-19.24072 3.9,-4.75 8.62926,-8.78936 13.23927,-12.83936 2.535,-2.37 5.91468,-2.57402 9.23437,-2.55762 z m 49.77538,15.09815 c 1.45,0.03 2.90084,0.0692 4.36084,0.13916 0.14,4.07 0.19033,8.15094 -0.15966,12.21094 -2.26001,-3.78 -3.56118,-8.0201 -4.20118,-12.3501 z m 5.73047,20.48877 c -0.18,0.76 -0.53045,2.30006 -0.71045,3.06006 -0.77,2.01999 -3.40002,1.11076 -5.02002,1.53076 1.16,-2.35 2.86047,-4.54082 5.73047,-4.59082 z m -45.8496,32.43018 c 1.20281,0.005 2.40257,0.0305 3.58007,0.0205 5.61,0.14 11.57023,-0.31942 16.74024,2.2705 7.24999,3.53001 11.74908,11.16018 13.05908,18.93018 0.49,3.94 0.59027,8.35875 -1.88965,11.71875 -3.89,5.4 -9.51051,9.26055 -13.52051,14.56055 -3.76,4.97 -2.62965,13.03025 2.61035,16.51025 3.21,2.2 7.24055,2.35047 10.98047,2.73047 6.66,0.43 13.40931,0.59965 20.04932,-0.36035 5.11999,-0.64 8.40095,-5.07006 11.98096,-8.31006 5.82999,-6.2 12.62945,-11.88029 16.18944,-19.80029 2.63001,0.84 5.2499,1.70074 7.89991,2.51074 0.91999,-2.41 1.83064,-4.82016 2.91064,-7.16016 1.75,5.17001 2.42863,10.71991 1.84863,16.14991 -2.03,2.05 -4.92879,3.07961 -6.75879,5.34961 -1.92999,2.35999 -2.55003,5.43027 -4.04003,8.03027 -5.25,3.03 -11.03012,5.05988 -16.62012,7.37988 -7.91,3.21 -16.34097,4.60998 -24.67089,6.22998 -4.90001,0.63 -9.85002,0.18934 -14.77002,0.31934 -4.07001,-0.1 -8.29006,0.46039 -12.22998,-0.84961 -6.49001,-2.05 -12.07958,-6.8899 -14.80958,-13.1499 -3.54,-7.67 -2.3295,-17.40053 3.2505,-23.79053 4.42999,-5.02 11.19897,-6.69006 16.45898,-10.56006 3.91999,-2.84 5.20995,-8.4191 3.45996,-12.8291 -1.53,-4.59 -6.02879,-7.38049 -10.50879,-8.50049 -6.03,-1.50992 -12.44002,-1.82996 -18.52002,-0.45996 -1.93,0.22 -3.05104,1.96944 -3.56104,3.66943 -2.26,7.95 -1.13947,16.30041 -1.70947,24.42042 0,2.70999 -2.5101,4.39077 -4.8501,5.05077 -4.86999,1.48001 -10.0398,1.01973 -15.0498,0.96973 -4.68,0.08 -8.96045,-4.2709 -8.96045,-8.9209 -0.06,-3.75 -0.45984,-7.98969 1.91015,-11.17968 1.8,-2.35 5.02083,-1.71973 7.59083,-1.71973 -1.85,2.71 -6.36032,4.65074 -5.32031,8.51074 0.91999,4.04001 4.93014,6.38924 8.83007,6.71924 3.48001,0.47 8.23969,0.0802 9.67969,-3.73974 1.12992,-4.85 0.10984,-9.83946 -0.41016,-14.68946 0.33,-5.71 3.48951,-11.43097 8.74952,-14.00097 3.1725,-1.875 6.81246,-2.04527 10.4209,-2.03027 z"
     id="path108"
     inkscape:connector-curvature="0" />
  <path
     d="m 292.71599,451.8 c 1.54,-4.63 7.39,-8.46 11.98,-5.5 5.18,3.28 8.48,8.68 11.89,13.63 -2.11,1.98 -4.33,3.86 -6.71,5.51 -0.12,-3.39 0.32,-6.8 -0.1,-10.17 -0.91,-3.05 -4.11,-4.36 -6.69,-5.69 -3.33,6.07 0.27,12.88 -0.23,19.33 0.21,6 -6.27,12.11 -12.26,9.62 -6.24,-2.95 -10.36,-8.86 -14.18,-14.37 2.4,-2.41 4.96,-4.68 7.86,-6.46 -0.59,4.2 -2.63,9.08 0.21,12.91 1.84,3.12 7.74,3.65 9.01,-0.21 1.6,-6.19 -2.74,-12.44 -0.78,-18.6 z"
     id="path134"
     inkscape:connector-curvature="0"
     style="fill:#090909" />
  <path
     d="m 172.97599,462.94 c 2.08,-6.4 8.78,-10.32 15.24,-10.76 5.63,-0.08 11.04,2.76 14.61,7.04 4.67,5.31 6.06,12.45 9.14,18.64 -2.9,1.94 -6.01,3.57 -9.36,4.62 1.21,-5.09 5.28,-10.72 1.74,-15.78 -4.34,-8.14 -16.29,-7.59 -22.27,-1.64 -5.2,4.21 -7.02,12.9 -1.71,17.78 3.38,0.58 6,-2.17 8.55,-3.94 -0.12,-2.1 -0.22,-4.2 -0.25,-6.29 4.56,4.54 6.72,10.74 9.31,16.48 -2.98,0.08 -6.12,-0.23 -8.89,1.11 -1.89,0.6 -4.07,2.18 -5.95,0.69 -3.56,-2.52 -5.97,-6.34 -7.97,-10.14 -2.61,-5.45 -4.28,-11.91 -2.19,-17.81 z"
     id="path136"
     inkscape:connector-curvature="0"
     style="fill:#090909" />
  <path
     d="m 451.31599,451.99 c 12.21,10.32 23.8,21.35 35.71,32.02 44.35,40.32 88.5,80.85 132.86,121.16 8.05,7.06 15.66,14.63 23.96,21.39 0.36,-58.18 0.09,-116.36 0.2,-174.54 9.65,-0.04 19.31,-0.03 28.96,-0.01 -0.01,79.11 0.12,158.22 -0.07,237.32 -12.29,-10.03 -23.73,-21.09 -35.61,-31.6 -44.76,-40.56 -89.26,-81.4 -133.9,-122.09 -7.73,-6.92 -15.11,-14.25 -23.14,-20.83 -0.31,91.69 -0.2,183.39 -0.3,275.09 -9.54,2.22 -19.19,4.13 -28.96,4.99 0,-105.29 0,-210.59 0,-315.89 0.09,-9.01 -0.25,-18.02 0.29,-27.01 z"
     id="path138"
     inkscape:connector-curvature="0"
     style="fill:#090909" />
  <path
     d="m 711.04599,452.02 c 9.32,-0.04 18.64,-0.04 27.96,0 0.06,50.68 -0.04,101.37 0.05,152.05 0.36,5.37 -3.47,9.59 -6.02,13.93 -6.8,10.05 -13.31,20.48 -21.86,29.16 -0.34,-65.05 -0.07,-130.1 -0.13,-195.14 z"
     id="path140"
     inkscape:connector-curvature="0"
     style="fill:#090909" />
  <path
     style="fill:#090909;stroke-width:1"
     d="m 104.63536,463.6494 c -1.43001,2.46999 -1.43993,6.41052 -4.66992,7.29052 -6.23,2.06 -12.64984,3.61991 -19.08985,4.8999 -3.36999,1.07 -5.25966,-2.51015 -7.659662,-4.16015 0.85,7.91 3.579362,15.47047 6.089352,22.98047 1.71,4.55999 5.13094,10.08943 10.71094,9.66943 4.81,-0.5 7.43965,-5.13959 8.63965,-9.32959 2.14,1.54 4.36001,3.88961 7.27001,3.09961 4.15001,-0.68 6.47014,-5.00898 5.89014,-8.95898 -0.81,-8.81001 -2.92066,-17.68122 -7.18066,-25.49121 z m 2.49023,15.06006 c 0.78,2.67 1.73969,5.86107 -0.0703,8.35107 -1.38,2.18 -4.37988,2.55966 -6.62988,1.65966 -2.52999,-1.29 -3.1196,-4.2507 -3.8496,-6.72069 3.34,-1.61001 6.9298,-2.57004 10.5498,-3.29004 z m -13.27002,4.25097 c 0.65001,2.61 1.80049,5.54887 0.2505,8.08887 -2.13,4.56 -9.61011,5.71015 -12.3501,1.16016 -1.07001,-1.62 -2.3101,-4.39008 -0.3501,-5.83008 3.57,-2.60001 8.1597,-3.13895 12.4497,-3.41895 z"
     id="path142"
     inkscape:connector-curvature="0" />
  <path
     d="m 322.26599,465.16 c 8.61,8.13 16.98,16.51 25.29,24.95 -1.96,2.44 -4.1,4.73 -6.59,6.64 0.16,-2.18 0.59,-4.33 0.53,-6.51 -0.94,-2.82 -3.44,-4.72 -5.34,-6.88 -6.27,6.04 -12.6,12.06 -18.25,18.7 0.4,2.04 0.85,4.08 1.25,6.14 -5.71,-3.99 -10.69,-9.01 -14.64,-14.74 2.02,0.37 4.03,1.26 6.13,1.05 2.24,-0.84 3.98,-2.58 5.68,-4.21 4.49,-4.56 8.73,-9.38 12.91,-14.23 -2.08,-1.67 -4.02,-3.67 -6.55,-4.64 -2.47,-0.16 -4.91,0.5 -7.36,0.72 1.94,-2.68 4.39,-4.92 6.94,-6.99 z"
     id="path144"
     inkscape:connector-curvature="0"
     style="fill:#090909" />
  <path
     d="m 217.30599,486.97 c 6.14,8.56 12.41,17.05 17.82,26.11 -1.97,1.51 -3.98,2.96 -6.08,4.3 0.23,-2.72 1.62,-5.75 -0.13,-8.24 -1.63,-2.61 -3.2,-5.71 -6.02,-7.16 -3.53,1.01 -6.23,3.69 -9.09,5.87 1.57,2.45 2.88,5.17 5.06,7.16 1.72,0.94 3.74,1.1 5.61,1.66 -2.27,2.75 -5.15,4.87 -8.25,6.59 0.21,-5.1 -2.08,-9.65 -5.19,-13.52 -3.38,2.08 -6.6,4.4 -9.45,7.16 2.13,3.23 4,6.92 7.28,9.15 2.45,1 5.1,1.49 7.58,2.43 -2.24,1.66 -4.57,3.41 -7.37,3.95 -2.65,-1.89 -4.24,-4.82 -6.13,-7.39 -4.23,-6.29 -9.13,-12.22 -12.18,-19.22 2.03,0.65 3.95,1.77 6.11,1.99 4.2,-1.86 7.77,-4.86 11.55,-7.42 2.79,-2.14 5.95,-3.97 8.1,-6.82 0.54,-2.16 0.55,-4.4 0.78,-6.6 z"
     id="path150"
     inkscape:connector-curvature="0"
     style="fill:#090909" />
  <path
     d="m 119.59599,506.49 c 5.56,8.84 8.86,18.87 12.53,28.59 -2.23,1.2 -4.63,2.05 -7.1,2.58 0.61,-1.91 1.5,-3.74 1.86,-5.71 -0.38,-3.99 -2.34,-7.6 -3.97,-11.19 -3.43,1.39 -7.58,2.35 -9.83,5.49 -0.53,4.95 4.06,8.24 7.93,10.25 -3,2.31 -6.56,3.66 -10.19,4.63 0.41,-2.34 1.26,-4.68 0.99,-7.07 -0.5,-2.59 -1.75,-4.94 -2.86,-7.29 -3.71,1.17 -7.21,2.92 -10.3,5.29 1.56,4.3 2.62,9.92 7.29,11.92 1.15,0.78 3.43,0.91 2.97,2.81 -2.21,0.95 -4.55,1.57 -6.86,2.25 -4.44,-10.01 -9.42,-19.93 -12.09,-30.6 1.83,1.19 3.55,2.54 5.28,3.89 7.19,-2.59 14.32,-5.47 21.13,-8.95 2.86,-1.07 2.54,-4.47 3.22,-6.89 z"
     id="path152"
     inkscape:connector-curvature="0"
     style="fill:#090909" />
  <path
     d="m 331.34599,511.26 c 2.87,-0.53 6.04,1.82 6.46,4.74 -0.55,3.38 -5.19,6 -7.77,2.98 -2.82,-2.04 -2.23,-6.89 1.31,-7.72 z"
     id="path154"
     inkscape:connector-curvature="0"
     style="fill:#090909" />
  <path
     style="fill:#090909;stroke-width:1"
     d="m 241.98203,529.26854 c -1.16768,-0.0393 -2.34375,0.0487 -3.51562,0.28125 -8.68001,1.68 -15.86043,10.86003 -13.69043,19.79003 1.82,7.35001 7.62072,13.20015 13.99072,16.91016 9.97,5.15 23.27917,-2.27002 24.65917,-13.27002 1.30001,-6.9 -3.13041,-13.02017 -7.9204,-17.43017 -3.575,-3.55063 -8.4635,-6.11104 -13.52344,-6.28125 z m 5.38184,5.59863 c 4.32958,-0.0135 8.58181,3.0543 9.36181,7.48242 0.87,5.45 -2.36019,10.59087 -5.95019,14.40087 -3.04,3.15 -7.16951,5.85885 -11.74951,5.31885 -4.63,-0.12 -7.60971,-4.8498 -7.94971,-9.0498 0.92,-7.61 6.00982,-14.94939 13.31983,-17.62939 0.96562,-0.3525 1.96863,-0.51984 2.96777,-0.52295 z"
     id="path156"
     inkscape:connector-curvature="0" />
  <path
     d="m 139.46599,543.8 c 2.65,3.01 5.15,6.26 6.7,10 0.7,1.56 -0.11,3.24 -0.43,4.8 -2.38,8.07 -4.99,16.09 -6.78,24.33 6.2,-3.29 13.89,-6.16 16.07,-13.57 2.78,3.21 4.85,6.95 6.15,10.99 -2.3,-0.53 -4.69,-2.42 -7.08,-1.27 -8.68,3.88 -16.02,10.51 -25.29,13.11 -0.64,-5.42 1.27,-10.6 2.68,-15.73 1.91,-6.86 4.03,-13.67 5.34,-20.68 -5.55,2.55 -10.87,5.65 -15.76,9.3 -2.12,1.49 -1.67,4.44 -2.35,6.66 -3.31,-3.23 -5.6,-7.31 -7.05,-11.67 2.38,0.64 4.94,2.49 7.37,1 5.92,-2.92 11.65,-6.29 17.19,-9.87 2.75,-1.44 2.65,-4.77 3.24,-7.4 z"
     id="path160"
     inkscape:connector-curvature="0"
     style="fill:#090909" />
  <path
     style="fill:#090909;stroke-width:1"
     d="m 274.0665,556.83982 c 0.87,2.39 3.96969,4.78969 2.17969,7.42969 -3.45,5.72 -7.4706,11.12058 -11.62061,16.35059 -1.87,2.73 -5.4891,2.12919 -8.3291,2.67919 4.7,4.83 10.27879,8.911 16.50879,11.521 -0.61,-1.93 -1.59953,-3.77957 -1.76953,-5.80957 0.73,-3.12 2.89096,-5.701 5.23096,-7.771 0.27,0.15 0.81984,0.45059 1.08984,0.60059 1.99,5.98 0.89984,12.59996 3.33985,18.45996 2.10999,4.58 6.71929,7.30949 11.27929,8.97949 -1.42,-3.03 -3.47935,-5.89004 -3.83935,-9.29004 -0.47001,-4.15 -0.45993,-8.33925 -0.16992,-12.48926 2.94999,-0.05 6.2697,0.20971 8.6997,-1.80029 2.66,-2.15 4.47961,-5.9708 3.09961,-9.3208 -1.73,-4.03 -5.30965,-6.81875 -8.63965,-9.46875 -5.33,-3.9 -10.62957,-8.1608 -17.05957,-10.0708 z m 13.63916,9.62988 c 1.97,2.74 4.96098,5.6401 4.25098,9.3501 -0.8,2.61 -2.76122,4.91006 -5.24121,6.06006 -3.33,0.66 -6.23981,-1.63026 -9.04981,-3.01026 2.7,-4.59999 5.67004,-9.2099 10.04004,-12.3999 z"
     id="path162"
     inkscape:connector-curvature="0" />
  <path
     d="m 161.77599,597.98 c 0.19,-5.59 7.22,-9.93 12.13,-6.9 5.18,3.12 8.49,8.42 12.18,13.07 -2.13,2.26 -4.41,4.37 -6.96,6.14 -0.83,-4.71 1.79,-11.28 -3.09,-14.34 -1.51,-1.3 -3.43,-0.44 -5.12,-0.16 -0.09,7.12 1.97,14.31 0.22,21.37 -1.14,5.54 -8.64,8.09 -13.19,4.98 -5.21,-3.58 -8.9,-8.89 -12.51,-13.98 2.38,-2.39 4.88,-4.68 7.71,-6.53 -0.25,2.81 -0.84,5.59 -1.02,8.42 -0.42,3.58 2.39,7.15 5.9,7.77 2.51,-0.2 4.7,-2.38 4.8,-4.91 0.22,-5.01 -1.58,-9.92 -1.05,-14.93 z"
     id="path166"
     inkscape:connector-curvature="0"
     style="fill:#090909" />
  <path
     d="m 317.86599,592.75 c 5.03,-2.28 10.94,-1.83 15.89,0.45 5.25,2.4 9.6,6.32 14.7,9 -1.17,3.47 -2.9,6.76 -5.46,9.43 -1.07,-4.18 -0.94,-9.11 -4.33,-12.28 -3.83,-4.17 -10.88,-4.63 -15.23,-0.99 -4.81,3.89 -7.87,10.24 -7.31,16.47 0.97,4.03 4.01,7.87 8.07,9.1 2.78,0.69 4.53,-2.17 5.34,-4.38 1.35,-3.21 -1.47,-6.01 -2.64,-8.78 6.03,2.1 11.77,5.08 16.77,9.07 -1.47,0.83 -3,1.56 -4.35,2.57 -2.49,1.94 -3.44,5.17 -5.74,7.28 -5.64,-0.28 -11.1,-2.42 -15.91,-5.3 -5.29,-3.34 -9.89,-8.85 -9.94,-15.37 -0.42,-6.84 3.85,-13.61 10.14,-16.27 z"
     id="path168"
     inkscape:connector-curvature="0"
     style="fill:#090909" />
  <path
     d="m 197.21599,613.36 c 4.9,3.54 9.45,7.6 13.1,12.44 -1.65,-0.06 -3.31,-0.29 -4.97,-0.15 -2.99,1.7 -5.12,4.52 -7.57,6.86 3.48,3.78 6.98,7.72 11.41,10.4 1.94,0.03 3.19,-2.06 4.42,-3.34 2.3,-2.51 2.25,-6.04 2.61,-9.2 4.92,3.45 9.07,7.81 12.95,12.37 -2.56,0.3 -5.67,-0.33 -7.55,1.89 -4.5,4.51 -9.1,9.01 -12.95,14.1 -1.85,2.17 -0.91,5.11 -0.91,7.67 -5.17,-2.97 -9.83,-6.9 -13.24,-11.81 2.36,-0.62 5.05,-0.58 7.06,-2.14 2.15,-1.73 3.81,-3.96 5.56,-6.06 -3.7,-3.54 -6.95,-7.63 -11.26,-10.44 -5,2.23 -8.82,7.84 -7.1,13.45 -5.35,-3.04 -9.74,-7.42 -13.74,-12.02 2.51,-0.47 5.41,-0.2 7.46,-2.01 3.06,-2.56 5.56,-5.7 8.32,-8.57 2.02,-2.3 4.32,-4.5 5.54,-7.36 0.56,-1.98 0.59,-4.06 0.86,-6.08 z"
     id="path170"
     inkscape:connector-curvature="0"
     style="fill:#090909" />
  <path
     d="m 236.82599,644.96 c 9.25,4.89 18.14,10.43 26.83,16.24 -0.82,2.41 -1.96,4.7 -3.37,6.84 -0.96,-2.2 -1.23,-4.76 -2.77,-6.65 -2.67,-2.47 -6.02,-4.01 -9.22,-5.65 -2.2,3.13 -4.16,6.42 -5.69,9.93 2.17,1.42 4.25,3.14 6.77,3.93 2.09,0.33 4.18,-0.2 6.26,-0.33 -0.93,3.61 -2.78,6.88 -5.41,9.53 -1.28,-4.58 -4.87,-9.27 -9.84,-9.62 -2.3,2.61 -4.1,5.66 -5.45,8.87 2.11,3.05 5.78,4.57 9.04,6.1 3.09,1.56 6.24,-0.76 9.32,-1.22 -1.39,2.79 -3.25,5.3 -5.28,7.66 -9.27,-5.72 -19.25,-10.54 -27.53,-17.69 2.19,-0.03 4.37,0.01 6.56,0.05 3.24,-5.13 6.41,-10.3 9.4,-15.57 1.03,-2.01 2.24,-4.04 2.48,-6.33 -0.43,-2.11 -1.42,-4.06 -2.1,-6.09 z"
     id="path172"
     inkscape:connector-curvature="0"
     style="fill:#090909" />
  <path
     d="m 277.08599,667.01 c 5.73,2.57 11.56,5.1 16.64,8.86 -2.4,1.06 -5.46,1.53 -6.74,4.13 -3.22,5.64 -6.15,11.51 -8.41,17.6 -1.21,2.47 0.51,4.87 1.3,7.17 -5.86,-1.52 -11.24,-4.42 -16.19,-7.83 2.64,-1.29 5.59,-2.5 7.06,-5.23 3.1,-5.16 5.56,-10.72 7.62,-16.36 1.15,-2.83 -0.58,-5.64 -1.28,-8.34 z"
     id="path174"
     inkscape:connector-curvature="0"
     style="fill:#090909" />
  <path
     d="m 307.09599,679.79 c 3.58,0.89 7.35,1.56 10.53,3.55 1.18,0.72 1.15,2.34 1.49,3.56 1.02,6.18 0.9,12.56 2.77,18.6 4.79,-5.48 9.64,-10.9 14.53,-16.28 4.15,1.08 8.25,2.48 11.93,4.75 -1.88,1.15 -4.42,1.96 -4.92,4.42 -2.02,6.29 -3.24,12.81 -4.79,19.23 -0.98,2.89 1.38,5.28 2.48,7.74 -6.16,-0.68 -12.1,-2.77 -17.46,-5.86 2.22,-1.28 5.65,-1.54 6.34,-4.46 1.92,-5.66 3.31,-11.52 4.1,-17.44 -7.46,5.72 -12.29,14.19 -19.95,19.73 -2.06,-8.79 -1.81,-17.91 -3.81,-26.7 -3.15,4.84 -5.08,10.35 -6.86,15.82 -1.06,2.51 0.74,4.84 1.58,7.12 -3.61,-0.5 -7.14,-1.44 -10.47,-2.91 6.58,-4.58 8.32,-12.76 11.41,-19.66 1.72,-3.52 1.86,-7.43 1.1,-11.21 z"
     id="path176"
     inkscape:connector-curvature="0"
     style="fill:#090909" />
</svg>
