<?xml version="1.0" encoding="UTF-8" standalone="no"?>
<!-- Created with Inkscape (http://www.inkscape.org/) -->

<svg
   xmlns:dc="http://purl.org/dc/elements/1.1/"
   xmlns:cc="http://creativecommons.org/ns#"
   xmlns:rdf="http://www.w3.org/1999/02/22-rdf-syntax-ns#"
   xmlns:svg="http://www.w3.org/2000/svg"
   xmlns="http://www.w3.org/2000/svg"
   xmlns:sodipodi="http://sodipodi.sourceforge.net/DTD/sodipodi-0.dtd"
   xmlns:inkscape="http://www.inkscape.org/namespaces/inkscape"
   width="1000"
   height="1000"
   viewBox="0 0 264.58333 264.58334"
   version="1.1"
   id="svg15033"
   inkscape:version="0.92.2 (5c3e80d, 2017-08-06)"
   sodipodi:docname="minilogo-circle.svg"
   inkscape:export-filename="C:\Users\TomHerbers\Cloud-Minis\Oberrunde\Minilogo\minilogo-circle_256px.png"
   inkscape:export-xdpi="24.58"
   inkscape:export-ydpi="24.58">
  <title
     id="title19638">Minilogo Circle</title>
  <defs
     id="defs15027">
    <filter
       inkscape:collect="always"
       style="color-interpolation-filters:sRGB"
       id="filter46389"
       x="-0.034800001"
       width="1.0696"
       y="-0.034799999"
       height="1.0696">
      <feGaussianBlur
         inkscape:collect="always"
         stdDeviation="3.5870885"
         id="feGaussianBlur46391" />
    </filter>
    <filter
       inkscape:collect="always"
       style="color-interpolation-filters:sRGB"
       id="filter46393"
       x="-0.95641011"
       width="2.9128202"
       y="-0.080725728"
       height="1.1614515">
      <feGaussianBlur
         inkscape:collect="always"
         stdDeviation="3.5870885"
         id="feGaussianBlur46395" />
    </filter>
    <filter
       inkscape:collect="always"
       style="color-interpolation-filters:sRGB"
       id="filter46397"
       x="-0.099866199"
       width="1.1997324"
       y="-0.084580322"
       height="1.1691606">
      <feGaussianBlur
         inkscape:collect="always"
         stdDeviation="3.5870885"
         id="feGaussianBlur46399" />
    </filter>
    <filter
       inkscape:collect="always"
       style="color-interpolation-filters:sRGB"
       id="filter46401"
       x="-0.10945993"
       width="1.2189199"
       y="-0.10726471"
       height="1.2145294">
      <feGaussianBlur
         inkscape:collect="always"
         stdDeviation="3.5870885"
         id="feGaussianBlur46403" />
    </filter>
    <filter
       inkscape:collect="always"
       style="color-interpolation-filters:sRGB"
       id="filter46405"
       x="-0.69134922"
       width="2.3826984"
       y="-0.82069881"
       height="2.6413976">
      <feGaussianBlur
         inkscape:collect="always"
         stdDeviation="3.5870885"
         id="feGaussianBlur46407" />
    </filter>
    <filter
       inkscape:collect="always"
       style="color-interpolation-filters:sRGB"
       id="filter46409"
       x="-0.69543189"
       width="2.3908638"
       y="-0.70611278"
       height="2.4122256">
      <feGaussianBlur
         inkscape:collect="always"
         stdDeviation="3.5870885"
         id="feGaussianBlur46411" />
    </filter>
    <filter
       inkscape:collect="always"
       style="color-interpolation-filters:sRGB"
       id="filter46413"
       x="-0.12507437"
       width="1.2501487"
       y="-0.080996421"
       height="1.1619928">
      <feGaussianBlur
         inkscape:collect="always"
         stdDeviation="3.5870885"
         id="feGaussianBlur46415" />
    </filter>
    <filter
       inkscape:collect="always"
       style="color-interpolation-filters:sRGB"
       id="filter46417"
       x="-0.98904266"
       width="2.9780853"
       y="-0.14230506"
       height="1.2846101">
      <feGaussianBlur
         inkscape:collect="always"
         stdDeviation="3.5870885"
         id="feGaussianBlur46419" />
    </filter>
    <filter
       inkscape:collect="always"
       style="color-interpolation-filters:sRGB"
       id="filter46421"
       x="-0.71782399"
       width="2.435648"
       y="-0.68235437"
       height="2.3647087">
      <feGaussianBlur
         inkscape:collect="always"
         stdDeviation="3.5870885"
         id="feGaussianBlur46423" />
    </filter>
    <filter
       inkscape:collect="always"
       style="color-interpolation-filters:sRGB"
       id="filter46425"
       x="-0.6452449"
       width="2.2904898"
       y="-0.64529956"
       height="2.2905991">
      <feGaussianBlur
         inkscape:collect="always"
         stdDeviation="3.5870885"
         id="feGaussianBlur46427" />
    </filter>
    <filter
       inkscape:collect="always"
       style="color-interpolation-filters:sRGB"
       id="filter46429"
       x="-0.62604397"
       width="2.2520879"
       y="-0.61094782"
       height="2.2218956">
      <feGaussianBlur
         inkscape:collect="always"
         stdDeviation="3.5870885"
         id="feGaussianBlur46431" />
    </filter>
    <filter
       inkscape:collect="always"
       style="color-interpolation-filters:sRGB"
       id="filter46433"
       x="-0.65871167"
       width="2.3174233"
       y="-0.65273047"
       height="2.3054609">
      <feGaussianBlur
         inkscape:collect="always"
         stdDeviation="3.5870885"
         id="feGaussianBlur46435" />
    </filter>
    <filter
       inkscape:collect="always"
       style="color-interpolation-filters:sRGB"
       id="filter46437"
       x="-2.9070722"
       width="6.8141444"
       y="-3.044343"
       height="7.088686">
      <feGaussianBlur
         inkscape:collect="always"
         stdDeviation="3.5870885"
         id="feGaussianBlur46439" />
    </filter>
    <filter
       inkscape:collect="always"
       style="color-interpolation-filters:sRGB"
       id="filter46441"
       x="-0.70717877"
       width="2.4143575"
       y="-0.71840331"
       height="2.4368066">
      <feGaussianBlur
         inkscape:collect="always"
         stdDeviation="3.5870885"
         id="feGaussianBlur46443" />
    </filter>
    <filter
       inkscape:collect="always"
       style="color-interpolation-filters:sRGB"
       id="filter46445"
       x="-0.56092335"
       width="2.1218467"
       y="-0.57395558"
       height="2.1479112">
      <feGaussianBlur
         inkscape:collect="always"
         stdDeviation="3.5870885"
         id="feGaussianBlur46447" />
    </filter>
    <filter
       inkscape:collect="always"
       style="color-interpolation-filters:sRGB"
       id="filter46449"
       x="-0.6319859"
       width="2.2639718"
       y="-0.52962861"
       height="2.0592572">
      <feGaussianBlur
         inkscape:collect="always"
         stdDeviation="3.5870885"
         id="feGaussianBlur46451" />
    </filter>
    <filter
       inkscape:collect="always"
       style="color-interpolation-filters:sRGB"
       id="filter46453"
       x="-0.68318663"
       width="2.3663733"
       y="-0.83157408"
       height="2.6631482">
      <feGaussianBlur
         inkscape:collect="always"
         stdDeviation="3.5870885"
         id="feGaussianBlur46455" />
    </filter>
    <filter
       inkscape:collect="always"
       style="color-interpolation-filters:sRGB"
       id="filter46457"
       x="-0.68136292"
       width="2.3627258"
       y="-0.72249084"
       height="2.4449817">
      <feGaussianBlur
         inkscape:collect="always"
         stdDeviation="3.5870885"
         id="feGaussianBlur46459" />
    </filter>
    <filter
       inkscape:collect="always"
       style="color-interpolation-filters:sRGB"
       id="filter46461"
       x="-0.51304862"
       width="2.0260972"
       y="-0.5236358"
       height="2.0472716">
      <feGaussianBlur
         inkscape:collect="always"
         stdDeviation="3.5870885"
         id="feGaussianBlur46463" />
    </filter>
    <filter
       inkscape:collect="always"
       style="color-interpolation-filters:sRGB"
       id="filter46465"
       x="-0.64330086"
       width="2.2866017"
       y="-0.60866714"
       height="2.2173343">
      <feGaussianBlur
         inkscape:collect="always"
         stdDeviation="3.5870885"
         id="feGaussianBlur46467" />
    </filter>
    <filter
       inkscape:collect="always"
       style="color-interpolation-filters:sRGB"
       id="filter46469"
       x="-0.92447756"
       width="2.8489551"
       y="-0.73553138"
       height="2.4710628">
      <feGaussianBlur
         inkscape:collect="always"
         stdDeviation="3.5870885"
         id="feGaussianBlur46471" />
    </filter>
    <filter
       inkscape:collect="always"
       style="color-interpolation-filters:sRGB"
       id="filter46473"
       x="-0.51657938"
       width="2.0331588"
       y="-0.60947336"
       height="2.2189467">
      <feGaussianBlur
         inkscape:collect="always"
         stdDeviation="3.5870885"
         id="feGaussianBlur46475" />
    </filter>
  </defs>
  <sodipodi:namedview
     id="base"
     pagecolor="#ffffff"
     bordercolor="#666666"
     borderopacity="1.0"
     inkscape:pageopacity="0.0"
     inkscape:pageshadow="2"
     inkscape:zoom="0.7"
     inkscape:cx="334.20666"
     inkscape:cy="465.9393"
     inkscape:document-units="px"
     inkscape:current-layer="layer6"
     showgrid="false"
     units="px"
     inkscape:pagecheckerboard="true"
     inkscape:window-width="1920"
     inkscape:window-height="1017"
     inkscape:window-x="-8"
     inkscape:window-y="-8"
     inkscape:window-maximized="1" />
  <metadata
     id="metadata15030">
    <rdf:RDF>
      <cc:Work
         rdf:about="">
        <dc:format>image/svg+xml</dc:format>
        <dc:type
           rdf:resource="http://purl.org/dc/dcmitype/StillImage" />
        <dc:title>Minilogo Circle</dc:title>
        <dc:creator>
          <cc:Agent>
            <dc:title>Ministranten Sankt Georg Bensheim</dc:title>
          </cc:Agent>
        </dc:creator>
        <dc:source>https://www.ministranten-sankt-ge.org/</dc:source>
        <dc:publisher>
          <cc:Agent>
            <dc:title>Ministranten Sankt Georg Bensheim</dc:title>
          </cc:Agent>
        </dc:publisher>
        <cc:license
           rdf:resource="" />
        <dc:description />
      </cc:Work>
    </rdf:RDF>
  </metadata>
  <g
     inkscape:groupmode="layer"
     id="layer6"
     inkscape:label="background"
     style="display:inline">
    <circle
       style="opacity:1;fill:#ffffff;fill-opacity:1;stroke-width:0.23549806;enable-background:new"
       id="path3809"
       cx="132.29167"
       cy="132.29167"
       r="132.02708" />
  </g>
  <g
     inkscape:groupmode="layer"
     id="layer8"
     inkscape:label="logo shadow"
     style="display:inline">
    <path
       id="path100-7"
       d="m 130.07316,10.716575 c -0.006,39.77536 0.01,79.553734 -0.01,119.329105 -39.775662,0.0248 -79.554642,-0.006 -119.333393,0.0186 0,3.93042 -0.0404,7.86102 0.0154,11.79143 0.57659,8.00033 2.083491,15.90451 3.803971,23.72815 1.28339,5.98552 3.50611,11.71372 5.93958,17.30867 8.37611,19.57152 21.77072,37.05086 38.79574,49.88051 8.73259,6.56206 18.26839,12.07637 28.35877,16.27025 4.84525,1.9869 9.78638,3.78183 14.888932,4.9783 6.70213,1.60256 13.48475,2.90404 20.34807,3.56117 5.24824,0.84002 10.5744,0.38166 15.86296,0.48083 0.0248,-39.77224 -0.007,-79.54773 0.0181,-119.31998 39.77876,-0.0186 79.561,-0.003 119.33976,-0.01 v -8.67887 c -39.78187,-0.006 -79.561,0.01 -119.33976,-0.01 -0.0185,-39.775381 -0.003,-79.553753 -0.01,-119.329114 z M 19.636878,138.72181 c 36.81209,0.0342 73.62137,-0.003 110.430362,0.0186 0.0186,36.80894 -0.006,73.61782 0.0123,110.42366 -1.86928,0.26037 -3.74162,-0.0899 -5.614,-0.12395 -7.05242,-0.55486 -14.00592,-2.02098 -20.81035,-3.9149 -19.883182,-5.40898 -38.107632,-16.49966 -52.373682,-31.32862 -3.95865,-4.15051 -7.61973,-8.58632 -10.87469,-13.31026 -3.22087,-4.64334 -5.95495,-9.5996 -8.67052,-14.54982 -1.96538,-3.56775 -3.75738,-7.24388 -5.03457,-11.11851 -2.36217,-6.86584 -4.25305,-13.89621 -5.62943,-21.02242 -0.81529,-4.28067 -1.21205,-8.62641 -1.59025,-12.96288 -0.0558,-0.70982 0.034,-1.41658 0.15485,-2.11092 z"
       style="display:inline;fill:#585858;fill-opacity:1;stroke-width:0.30998349;filter:url(#filter46389);enable-background:new"
       inkscape:connector-curvature="0" />
    <path
       style="display:inline;fill:#585858;fill-opacity:1;stroke-width:0.30998349;filter:url(#filter46393);enable-background:new"
       id="path104-7"
       d="m 109.68794,13.007254 c 2.84267,-0.576543 5.70084,-1.072496 8.58691,-1.373168 0.0372,35.54427 0.0156,71.091642 0.0124,106.635924 -2.99147,0.0124 -5.98603,0.0124 -8.9775,0 0.0248,-30.37399 -0.10541,-60.751052 0.12399,-91.125019 0.0868,-4.711547 0.0156,-9.429291 0.2542,-14.137737 z"
       inkscape:connector-curvature="0" />
    <path
       style="display:inline;fill:#585858;fill-opacity:1;stroke-width:0.30998349;filter:url(#filter46397);enable-background:new"
       id="path106-2"
       d="m 93.010108,21.085075 c 1.56859,-1.55915 3.05967,-3.208191 4.79566,-4.584456 0.0558,33.926223 0.0124,67.849349 0.0279,101.775581 -2.99458,0 -5.98914,0.006 -8.98371,-0.006 -0.0155,-24.896816 -0.003,-49.796708 -0.006,-74.696609 -0.0124,-1.816423 0.0558,-3.635949 -0.0744,-5.449271 -6.88831,7.113601 -13.48503,14.512589 -20.48166,21.52101 -3.97106,-3.205088 -7.45232,-6.958825 -11.33657,-10.263108 -7.68791,6.92163 -14.12344,15.117241 -19.76538,23.759202 -2.74657,4.404681 -5.10565,9.041829 -7.34382,13.72238 -2.72488,5.675561 -4.65615,11.682769 -6.41383,17.711686 -0.7843,2.81454 -1.52209,5.64147 -2.07698,8.51179 -0.3441,1.70792 -0.3968,3.45307 -0.69439,5.17031 -3.01007,0.0249 -6.02014,0.0558 -9.0271,-0.0185 1.25547,-8.90855 3.18675,-17.7551 6.34872,-26.192491 2.11417,-5.80263 4.67784,-11.434789 7.61661,-16.86547 1.91888,-3.56466 4.19116,-6.924723 6.42003,-10.300301 2.31878,-3.434477 4.58795,-6.927836 7.38722,-9.999644 4.52284,-5.061804 9.25959,-9.946936 14.28464,-14.515896 1.17488,-1.094195 2.43037,-2.101593 3.78506,-2.960211 2.84887,2.634742 5.58303,5.39038 8.47531,7.975531 0.67889,0.570341 1.25549,1.33287 2.11417,1.64284 2.03048,-1.224386 3.45646,-3.201993 5.13975,-4.835535 6.71452,-6.930933 13.02915,-14.236924 19.80877,-21.102762 z"
       inkscape:connector-curvature="0" />
    <path
       id="path108-5"
       d="m 190.66007,38.177983 c -8.16893,0.04638 -16.33066,2.626299 -23.01497,7.326675 -7.27872,5.207503 -12.70088,12.838771 -15.60866,21.273064 -0.85869,2.510755 -1.21807,5.167087 -1.26147,7.811158 -0.2139,4.919218 -0.40319,9.984439 1.13751,14.73008 2.80856,8.815538 8.54047,16.68564 16.09818,22.02953 10.85607,7.70585 25.70815,9.20928 37.97472,4.11649 4.14465,-1.66145 7.81797,-4.27163 11.33335,-6.98386 1.28959,-1.06009 2.5856,-2.12961 3.71087,-3.36639 0.5549,-0.52385 0.49264,-1.31722 0.50814,-2.01466 -0.0372,-5.37489 -1.1e-4,-10.74962 -0.0217,-16.124512 -2.16687,-0.01241 -4.33344,-0.01241 -6.49721,0 -0.0125,4.240401 -0.0126,8.480502 0.009,12.720902 -0.0186,0.46805 -0.003,0.94556 -0.13032,1.40122 -0.53009,0.80903 -1.39179,1.30823 -2.21327,1.77628 -0.20771,-0.9454 -0.47713,-1.89409 -0.43684,-2.86739 0.0743,-0.762521 0.49275,-1.432001 0.63844,-2.17902 -0.21389,-1.041512 -0.7812,-1.96541 -1.0385,-2.99452 -0.36581,-1.280171 -0.19849,-2.69026 -0.79058,-3.90534 -0.29451,-0.647851 -1.26474,-1.09437 -1.73283,-0.365972 -0.83389,1.494063 -0.85262,3.273221 -1.29281,4.897461 -1.09431,-1.59944 -1.65826,-3.533719 -3.01294,-4.956489 0.3131,1.90323 1.11272,3.701028 1.29872,5.632129 -1.54378,-0.91132 -2.08309,-3.167779 -4.02056,-3.375451 -0.36271,2.076781 1.09761,3.794192 1.47579,5.747002 0.23871,0.936098 0.0898,1.95596 -0.57671,2.68439 -1.61817,1.96831 -3.50911,3.74455 -5.63259,5.15492 -0.2232,-1.28018 -0.21396,-2.58235 -0.21707,-3.87491 -0.003,-7.231631 -0.01,-14.463331 0.003,-21.694899 9.60369,-0.009 19.21055,-0.009 28.81425,-0.003 -0.0496,1.695548 0.1919,3.425529 -0.1553,5.093168 -0.65409,0.716042 -1.66768,1.038241 -2.21328,1.85347 -0.0558,0.36885 0.0312,0.740852 0.0777,1.10971 1.43529,-0.517649 2.78676,-1.233509 4.14454,-1.924759 0.0309,-2.66264 0.0153,-5.3256 0.01,-7.988239 -4.14465,-0.0713 -8.29517,0.124029 -12.43363,-0.123952 0.4247,-2.56345 1.17472,-5.06484 1.99622,-7.525999 0.64168,-1.742004 1.19018,-3.642003 2.65647,-4.894289 1.53137,1.221293 2.71904,2.792627 3.87843,4.35488 0.56108,0.67572 1.13738,1.528109 2.07975,1.661388 1.34539,-0.0651 2.21343,-1.239758 3.07834,-2.12316 -1.33919,-4.026527 -3.01632,-7.929208 -4.59728,-11.862729 -1.0695,-2.529353 -2.02714,-5.111181 -3.24543,-7.572314 -1.73906,0.774901 -2.17004,2.81749 -3.63323,3.893085 -1.25859,1.013605 -2.74373,1.673899 -4.2131,2.309339 -2.19789,0.945409 -3.94279,2.696657 -5.27888,4.646374 -0.3844,0.443251 -0.70408,1.150308 -1.39227,1.103815 -3.36036,0.09919 -6.08816,-2.117225 -8.57742,-4.082436 -0.4712,-0.461854 -1.16874,-0.992013 -0.98585,-1.73904 0.58279,-1.063199 1.79191,-1.5313 2.849,-1.986955 0.5084,1.069396 1.15005,2.145271 2.19783,2.765211 0.46189,0.257273 1.05386,0.564007 1.56845,0.244734 0.79979,-0.378161 1.17193,-1.267756 1.38272,-2.07368 0.403,-1.782328 0.12715,-3.859143 -1.19654,-5.204412 -0.63238,-0.650936 -1.65837,-1.069615 -2.53567,-0.688348 -0.6324,0.430858 -0.8743,1.215361 -1.2742,1.835304 -0.60449,1.180978 -1.91598,1.686311 -2.99476,2.327952 0.01,-2.814529 -0.0991,-5.632151 0.0745,-8.440478 0.71299,0.03099 1.44174,0.04958 2.12064,0.303765 3.26735,1.153086 6.34549,2.792405 9.24086,4.686324 2.11417,1.354574 4.07044,2.954102 6.30241,4.116491 0.32239,-0.530048 0.63859,-1.091182 0.69748,-1.72043 0.25731,-2.113994 0.13917,-4.249398 0.12988,-6.372698 -1.45699,-0.939208 -2.88586,-1.928268 -4.37386,-2.817876 -4.25936,-2.690546 -9.16655,-4.140901 -14.05519,-5.191702 -2.25608,-0.393271 -4.54413,-0.579192 -6.83143,-0.566208 z m 1.82774,6.938007 c 0.38681,0.0024 0.77363,0.01013 1.15977,0.02275 0.67889,0.03099 1.33909,0.195408 1.99939,0.362794 -2.28469,2.17909 -5.32288,3.316394 -7.82453,5.210308 1.53138,2.036503 3.43184,3.769336 4.92603,5.833737 0.48049,0.440158 0.0249,0.994923 -0.26338,1.391687 -1.69567,2.210086 -3.68914,4.18152 -5.30112,6.456704 -1.28339,1.605645 0.15813,3.546218 0.57352,5.210749 -0.48359,-0.01241 -0.96399,-0.0276 -1.44447,-0.0463 -0.5053,-1.565349 -0.90846,-3.660907 -2.72504,-4.19095 -2.38388,-0.570349 -4.9012,-0.511315 -7.30369,-0.08356 -1.45388,0.241782 -2.41775,1.447414 -3.56784,2.247131 -1.01368,-1.698623 -1.71099,-3.564539 -2.765,-5.235274 -0.61378,-1.066302 -1.99037,-1.6369 -3.15596,-1.190543 -1.64608,0.576543 -2.77448,2.049013 -3.57737,3.527576 -0.85559,1.509556 -0.83394,3.295071 -0.89593,4.975101 -0.0124,2.907524 -0.0311,5.814943 0.0122,8.722452 0.6262,-0.10228 1.25248,-0.204639 1.88176,-0.30693 0.15192,-3.632858 0.32881,-7.265537 0.27611,-10.901476 -0.0403,-1.794732 0.96693,-3.493233 2.52932,-4.358053 -0.3813,0.765628 -0.92989,1.447269 -1.21199,2.259397 -0.2077,1.001207 -0.16724,2.033286 -0.20751,3.053072 -0.0496,3.105901 -0.25415,6.209112 -0.17665,9.315003 0.61689,0.0279 1.23354,0.0681 1.85044,0.102158 0.39678,-3.44686 0.30099,-6.918659 0.29788,-10.377935 0.01,-0.991904 0.01,-2.210009 0.97631,-2.786557 0.60139,0.03415 0.75316,0.70058 1.03217,1.128337 0.53318,1.140685 1.19364,2.265833 1.40134,3.521212 -0.3503,1.041503 -1.10047,1.952803 -1.14388,3.093493 -0.17979,2.405372 -0.25424,4.953309 0.80286,7.188181 -1.63369,0.51145 -3.34166,0.703509 -5.00325,1.103368 -0.75636,0.207682 -1.60586,0.421942 -2.09565,1.08839 -0.13331,0.688121 -0.0372,1.394781 0.0186,2.089111 0.4805,4.023399 0.79364,8.062391 1.21835,12.092011 0.0837,0.78731 0.19835,1.58704 0.49903,2.324769 0.4619,0.0776 0.93318,0.006 1.39816,-0.0313 -0.0776,-4.590658 -0.91161,-9.141118 -0.93951,-13.737968 3.66106,0.905108 7.42467,1.292569 11.18804,1.466149 1.85067,-0.01241 3.77231,-0.59204 5.15489,-1.85982 0.85557,-0.75942 0.96743,-1.959002 1.10073,-3.022211 2.17308,0.01 4.34912,-0.0616 6.52219,0.0686 -0.70369,1.146889 -1.69242,2.10126 -2.31861,3.294639 -0.25421,0.409171 -0.26981,1.22155 0.35329,1.280459 1.44148,0.260371 2.91376,0.241912 4.37385,0.310121 -0.0495,-0.561059 -0.0958,-1.119349 -0.14849,-1.677299 -0.62,-0.120891 -1.24309,-0.232371 -1.85998,-0.353251 0.58279,-1.081799 1.31749,-2.160558 2.41489,-2.774299 0.95169,-0.288272 1.97438,-0.126939 2.95708,-0.15484 -0.006,8.60787 0.0436,17.215761 -0.0277,25.823637 -1.44149,0.0309 -2.88317,-0.0279 -4.31847,-0.10535 -1.31128,-0.0186 -2.66595,-1.06041 -2.70004,-2.42738 0.25109,-1.04152 1.20297,-1.66725 1.90356,-2.39879 1.46628,-1.44446 3.21781,-2.969937 3.45341,-5.149017 0.22939,-2.92301 -0.60746,-6.087821 -2.80223,-8.13672 -2.24747,-2.14498 -5.51802,-2.811201 -8.53429,-2.637621 -2.15448,0.155001 -4.38962,0.579551 -6.1907,1.838021 -1.30509,0.914418 -2.38713,2.374601 -2.33134,4.032948 0.0279,1.676943 0.3876,3.322831 0.55809,4.987362 -1.03849,0.006 -2.16049,0.1578 -3.06879,-0.45906 0.6944,-0.325451 1.41037,-0.601221 2.12337,-0.889479 -0.34409,-1.239883 -0.81515,-2.622061 -2.01483,-3.279222 -1.29579,-0.27586 -2.53895,0.59786 -3.25814,1.61146 -0.91139,1.354569 -0.63865,3.090522 -0.44956,4.618681 0.12399,1.246068 0.83708,2.433277 2.00573,2.950927 1.90649,0.85862 4.09164,0.76267 6.10353,0.3814 1.20278,-0.22627 2.48309,-0.83685 2.96978,-2.036448 0.8587,-2.290689 0.18326,-4.78286 0.60487,-7.135519 0.11159,-0.836912 0.93266,-1.329791 1.73556,-1.252299 1.71737,0.102298 3.51233,0.436938 4.95691,1.425749 0.64789,0.44327 1.33302,1.484739 0.57352,2.144959 -1.58407,1.54056 -3.92147,1.956131 -5.52725,3.47808 -1.94058,1.649061 -2.63499,4.339288 -2.4149,6.800448 0.12089,1.62732 0.78127,3.1403 1.16567,4.71492 -3.78506,-0.86787 -7.00901,-3.19609 -9.97878,-5.59217 -2.03974,-1.67691 -3.93051,-3.53656 -5.57039,-5.607166 -2.26918,-2.805232 -3.7265,-6.150042 -5.075,-9.469832 -1.36396,-3.279468 -1.80711,-6.868719 -1.71103,-10.399268 -0.0651,-3.502671 0.13953,-7.092212 1.41362,-10.393384 2.94496,-8.139816 8.67688,-15.544895 16.58178,-19.345127 5.18178,-2.673493 11.03366,-3.783266 16.83563,-3.745526 z m 2.90804,3.336412 c 0.065,2.458064 0.30999,4.962432 -0.16121,7.395692 -1.78558,-1.193388 -3.0722,-2.935447 -4.47647,-4.52559 1.49728,-1.032203 2.99471,-2.076577 4.63768,-2.870102 z m 7.13296,2.8365 c 0.98619,0.03365 1.53951,1.19493 1.77005,2.076405 0.4402,1.190284 -0.20127,2.389939 -0.77785,3.400438 -2.18858,-0.576543 -2.89255,-3.828124 -1.44176,-5.41827 0.15887,-0.04533 0.30866,-0.06338 0.44956,-0.05858 z m 18.41089,2.857384 c 1.25857,1.856724 2.01785,3.980158 2.88894,6.032158 1.2679,3.028403 2.2941,6.153039 3.52787,9.196933 0.34411,0.771832 -0.84018,2.058022 -1.48806,1.208722 -1.53449,-1.794732 -2.90756,-3.728685 -4.51645,-5.46142 -0.55799,-0.557946 -1.15632,-1.199931 -1.98712,-1.283618 -1.03848,1.022892 -1.42909,2.482826 -2.02117,3.772312 -1.4446,3.670036 -2.98524,7.359026 -3.59282,11.280146 -5.46834,0.0372 -10.93672,0.0154 -16.40197,0.0123 0.01,-2.681229 -0.0652,-5.365549 0.0526,-8.0468 2.46137,-0.69433 5.05588,-0.722349 7.50484,-1.453893 1.0199,-0.223171 1.46647,-1.25232 1.95626,-2.058247 1.29578,-2.430163 2.72457,-4.829347 4.63723,-6.831745 1.80727,-1.878423 4.37417,-2.650122 6.55035,-3.982998 1.08188,-0.644742 1.94703,-1.568582 2.88942,-2.3838 z m -25.44804,4.020685 c -0.0528,0.554847 0.0652,1.156083 -0.17028,1.676836 -1.54378,2.287577 -3.94333,3.930412 -5.28251,6.348175 0.9331,3.078003 2.57327,5.898679 3.62415,8.939498 0.19529,0.56724 0.23875,1.171588 0.28835,1.766729 -0.44329,-0.449451 -0.86511,-0.926521 -1.15341,-1.490671 -1.52208,-2.88272 -2.7373,-5.911493 -4.22219,-8.8128 -0.23869,-0.433956 -0.33781,-0.982622 0.003,-1.394867 1.70189,-2.507663 3.87513,-4.649449 5.7475,-7.023828 0.3875,-0.0031 0.77462,-0.006 1.16521,-0.0091 z m 1.9004,2.060966 c 1.66158,0.902012 3.12196,2.129729 4.78663,3.031742 1.209,0.666435 2.59751,0.836916 3.9243,1.162383 -0.1457,1.444472 -0.8836,3.080814 -2.43667,3.421795 -2.04598,0.458748 -4.14153,0.775179 -6.24019,0.815481 -0.14882,-2.805235 -0.10227,-5.623071 -0.0341,-8.431401 z m -2.018,1.816688 c 0.13949,2.396066 0.13034,4.794924 0.0776,7.194103 -0.70368,0.136368 -1.40141,0.291398 -2.102,0.430879 -0.68819,-1.047689 -1.5096,-2.122916 -1.6057,-3.418594 0.97031,-1.580851 2.32188,-2.898323 3.63006,-4.206388 z m -16.7044,4.442499 c 0.34303,0.0021 0.68359,0.01093 1.01218,0.0049 1.25859,0.02479 2.74675,-0.0059 3.67364,0.994844 0.75329,1.050809 0.61689,2.427071 0.76878,3.64835 1.36399,0.062 2.75293,-0.105169 4.10141,0.152112 0.71919,0.409149 1.1408,1.16532 1.55619,1.853459 0.92378,1.673839 1.80735,3.400459 2.23824,5.278879 -3.88735,0.412261 -7.81199,0.189101 -11.69935,0.554861 0.15191,0.898919 0.48347,1.76353 0.56717,2.67485 -0.35339,0.988801 -1.42307,1.56863 -2.43986,1.581031 -2.28466,0.0558 -4.58442,0.093 -6.85049,-0.229301 -1.73908,-0.22628 -3.5309,-0.34738 -5.15219,-1.0634 2.50168,-0.914411 5.3628,-0.601409 7.68468,-2.07686 -0.7316,-0.94541 -1.65214,-1.717001 -2.40853,-2.637621 -0.21079,-1.96831 -0.17983,-3.989549 -0.0186,-5.964058 1.20899,-1.47234 2.67503,-2.724433 4.10412,-3.979812 0.78585,-0.734631 1.83353,-0.797867 2.86263,-0.792787 z m 15.4302,4.679956 c 0.44949,0.01 0.89925,0.02151 1.35184,0.0432 0.0434,1.261581 0.059,2.526551 -0.0496,3.785042 -0.7006,-1.171691 -1.10395,-2.485991 -1.30235,-3.828172 z m 1.77642,6.35092 c -0.0558,0.235588 -0.16442,0.71296 -0.22024,0.94854 -0.23869,0.62612 -1.054,0.344299 -1.55618,0.47448 0.35959,-0.72843 0.88673,-1.40751 1.77642,-1.42302 z m -14.21321,10.052389 c 0.37287,0.0021 0.74479,0.01 1.10981,0.006 1.73907,0.0434 3.58673,-0.099 5.18941,0.7038 2.24748,1.094179 3.64217,3.459311 4.04828,5.867799 0.15189,1.221262 0.18297,2.590941 -0.5858,3.632441 -1.20588,1.67385 -2.94822,2.870501 -4.1913,4.513361 -1.1656,1.54054 -0.81518,4.03897 0.80919,5.11768 0.9951,0.68192 2.24454,0.72857 3.40391,0.84636 2.06457,0.13328 4.15685,0.18587 6.21522,-0.11171 1.58718,-0.19837 2.60427,-1.57156 3.71406,-2.57587 1.80727,-1.92181 3.91508,-3.68252 5.01867,-6.137501 0.81529,0.260369 1.62745,0.52718 2.44893,0.778261 0.28521,-0.747032 0.56751,-1.494112 0.90231,-2.219441 0.54248,1.602539 0.75286,3.322851 0.57307,5.005991 -0.62929,0.63545 -1.52792,0.9546 -2.09521,1.65823 -0.5983,0.73152 -0.7905,1.68322 -1.25239,2.48914 -1.62749,0.93922 -3.41931,1.56841 -5.15218,2.28754 -2.45208,0.995 -5.06565,1.42896 -7.64789,1.93111 -1.51899,0.19527 -3.05349,0.0588 -4.57866,0.099 -1.26169,-0.0309 -2.56989,0.1427 -3.79126,-0.26335 -2.01187,-0.63543 -3.74462,-2.13567 -4.59091,-4.07607 -1.09739,-2.37747 -0.72214,-5.39364 1.00765,-7.37436 1.37328,-1.556063 3.47163,-2.073723 5.10222,-3.273322 1.21518,-0.880301 1.61506,-2.609649 1.07258,-3.976619 -0.4743,-1.42277 -1.8689,-2.28773 -3.25769,-2.634901 -1.86927,-0.468029 -3.85637,-0.567229 -5.74115,-0.142578 -0.59829,0.0683 -0.94581,0.610467 -1.10391,1.137409 -0.70059,2.464268 -0.35323,5.052639 -0.52993,7.56961 0,0.84002 -0.77811,1.360998 -1.50352,1.56559 -1.50968,0.458761 -3.11229,0.316081 -4.66537,0.300581 -1.45079,0.0248 -2.77772,-1.323852 -2.77772,-2.765212 -0.0186,-1.162389 -0.14254,-2.476569 0.59215,-3.465359 0.55799,-0.72844 1.55644,-0.533061 2.35313,-0.533061 -0.57349,0.84002 -1.97169,1.441579 -1.64929,2.63806 0.2852,1.252291 1.52834,1.980469 2.7373,2.08276 1.0788,0.14568 2.55427,0.0249 3.00067,-1.1592 0.35028,-1.50336 0.0341,-3.04994 -0.12714,-4.553289 0.1023,-1.76993 1.08173,-3.543271 2.71231,-4.339881 0.98347,-0.5812 2.11184,-0.633979 3.23045,-0.62933 z"
       style="display:inline;fill:#585858;fill-opacity:1;stroke-width:0.30998349;filter:url(#filter46401);enable-background:new"
       inkscape:connector-curvature="0" />
    <path
       style="display:inline;fill:#585858;fill-opacity:1;stroke-width:0.30998349;filter:url(#filter46405);enable-background:new"
       id="path134-8"
       d="m 101.45752,150.76106 c 0.47741,-1.43515 2.29089,-2.62234 3.71376,-1.70482 1.6058,1.0167 2.62879,2.69054 3.68588,4.22489 -0.65409,0.61373 -1.3423,1.19648 -2.08008,1.70792 -0.0372,-1.0508 0.0992,-2.10779 -0.0309,-3.1524 -0.2821,-0.9454 -1.27408,-1.35146 -2.07387,-1.76371 -1.03231,1.8815 0.0836,3.99241 -0.0713,5.99171 0.0651,1.85982 -1.94369,3.75374 -3.80059,2.98191 -1.934372,-0.91441 -3.211552,-2.74632 -4.395752,-4.45427 0.744,-0.74702 1.53758,-1.45066 2.43659,-2.0024 -0.18291,1.30187 -0.81531,2.81453 0.0651,4.00171 0.57038,0.96712 2.399362,1.1314 2.793062,-0.0651 0.49601,-1.9187 -0.84939,-3.85602 -0.2418,-5.76544 z"
       inkscape:connector-curvature="0" />
    <path
       style="display:inline;fill:#585858;fill-opacity:1;stroke-width:0.30998349;filter:url(#filter46409);enable-background:new"
       id="path136-2"
       d="m 64.338538,154.21413 c 0.64479,-1.9838 2.72176,-3.19889 4.72435,-3.33529 1.74528,-0.0248 3.42236,0.85553 4.52905,2.1822 1.44768,1.64595 1.87858,3.85913 2.83336,5.77784 -0.89898,0.60134 -1.86308,1.10659 -2.90156,1.43206 0.37509,-1.57774 1.63678,-3.32287 0.53939,-4.89131 -1.34538,-2.52317 -5.04984,-2.35268 -6.90362,-0.50836 -1.61199,1.30497 -2.17618,3.9986 -0.5301,5.51126 1.04779,0.17979 1.85998,-0.67263 2.65047,-1.22128 -0.0372,-0.65094 -0.0683,-1.30186 -0.0775,-1.94971 1.41358,1.40726 2.08318,3.32908 2.88608,5.10831 -0.9238,0.0248 -1.89718,-0.0713 -2.75588,0.34407 -0.58589,0.18597 -1.26169,0.67574 -1.84448,0.21388 -1.10357,-0.78113 -1.85068,-1.96522 -2.47067,-3.14311 -0.80909,-1.68933 -1.32678,-3.69175 -0.67889,-5.52056 z"
       inkscape:connector-curvature="0" />
    <path
       style="display:inline;fill:#585858;fill-opacity:1;stroke-width:0.30998349;filter:url(#filter46413);enable-background:new"
       id="path138-3"
       d="m 150.62299,150.81995 c 3.78506,3.1989 7.37792,6.61787 11.06997,9.92525 13.74835,12.49799 27.43471,25.06108 41.18615,37.55597 2.49547,2.18839 4.85455,4.53486 7.42753,6.63027 0.1116,-18.03406 0.0279,-36.06812 0.062,-54.10219 2.99148,-0.0124 5.98604,-0.009 8.97751,-0.003 -0.003,24.52173 0.0372,49.04347 -0.0216,73.56209 -3.80987,-3.10901 -7.35625,-6.53727 -11.03901,-9.79507 -13.87544,-12.57238 -27.67029,-25.23155 -41.50852,-37.84424 -2.39629,-2.145 -4.68404,-4.41707 -7.17333,-6.45667 -0.0961,28.42116 -0.062,56.84541 -0.093,85.26968 -2.95736,0.68812 -5.94883,1.28016 -8.97749,1.54671 0,-32.63672 0,-65.27658 0,-97.91642 0.0279,-2.79283 -0.0776,-5.58567 0.0899,-8.3723 z"
       inkscape:connector-curvature="0" />
    <path
       style="display:inline;fill:#585858;fill-opacity:1;stroke-width:0.30998349;filter:url(#filter46417);enable-background:new"
       id="path140-1"
       d="m 231.13838,150.82925 c 2.88916,-0.0124 5.77835,-0.0124 8.66749,0 0.0186,15.70929 -0.0122,31.42168 0.0154,47.13096 0.1116,1.66454 -1.07569,2.97261 -1.86618,4.31789 -2.10797,3.1152 -4.12603,6.34819 -6.77651,9.03873 -0.1054,-20.16356 -0.0217,-40.32711 -0.0403,-60.48758 z"
       inkscape:connector-curvature="0" />
    <path
       id="path142-3"
       d="m 43.153178,154.43402 c -0.4433,0.76563 -0.44638,1.98708 -1.44766,2.25985 -1.93128,0.63854 -3.92141,1.12207 -5.91779,1.51882 -1.04469,0.33167 -1.63048,-0.77807 -2.37447,-1.28952 0.2635,2.45186 1.10959,4.79538 1.88768,7.12326 0.53009,1.41346 1.59057,3.12741 3.32035,2.99723 1.49108,-0.15499 2.30627,-1.59311 2.67826,-2.89189 0.6634,0.47736 1.3516,1.20566 2.25368,0.9608 1.2865,-0.21079 2.00572,-1.55265 1.82593,-2.77703 -0.2511,-2.73085 -0.90539,-5.48065 -2.22598,-7.90152 z m 0.77196,4.66817 c 0.2418,0.82762 0.5393,1.81676 -0.0218,2.58858 -0.4278,0.67574 -1.35775,0.79342 -2.05524,0.51445 -0.78428,-0.39987 -0.96706,-1.31759 -1.19336,-2.08322 1.03538,-0.49905 2.14821,-0.79663 3.2704,-1.01981 z m -4.11366,1.31767 c 0.2015,0.80902 0.55814,1.71999 0.0777,2.50731 -0.66029,1.41347 -2.9791,1.76998 -3.82849,0.35961 -0.3317,-0.50214 -0.71612,-1.36078 -0.10853,-1.80714 1.10669,-0.80592 2.52949,-0.97299 3.85937,-1.05978 z"
       style="display:inline;fill:#585858;fill-opacity:1;stroke-width:0.30998349;filter:url(#filter46421);enable-background:new"
       inkscape:connector-curvature="0" />
    <path
       style="display:inline;fill:#585858;fill-opacity:1;stroke-width:0.30998349;filter:url(#filter46425);enable-background:new"
       id="path144-1"
       d="m 110.61793,154.90226 c 2.66907,2.52007 5.26375,5.1176 7.83981,7.73376 -0.60759,0.75633 -1.27098,1.46616 -2.04287,2.05821 0.0495,-0.67574 0.1829,-1.34218 0.1643,-2.01791 -0.29141,-0.87413 -1.06638,-1.46307 -1.65538,-2.1326 -1.94368,1.87222 -3.90595,3.73824 -5.65742,5.79645 0.12398,0.63232 0.26349,1.26467 0.38749,1.9032 -1.7701,-1.23677 -3.31388,-2.79282 -4.53836,-4.56896 0.62618,0.1147 1.24929,0.39058 1.90027,0.32548 0.6944,-0.26038 1.23379,-0.79973 1.76079,-1.30498 1.39188,-1.41346 2.70627,-2.90752 4.00205,-4.41087 -0.6448,-0.51765 -1.24619,-1.13759 -2.03048,-1.43826 -0.76568,-0.0496 -1.52208,0.15498 -2.28157,0.22318 0.60139,-0.83072 1.36088,-1.52505 2.15137,-2.1667 z"
       inkscape:connector-curvature="0" />
    <path
       style="display:inline;fill:#585858;fill-opacity:1;stroke-width:0.30998349;filter:url(#filter46429);enable-background:new"
       id="path150-1"
       d="m 78.080688,161.66271 c 1.90338,2.65335 3.84705,5.28498 5.52413,8.09331 -0.61069,0.46806 -1.23378,0.91753 -1.88478,1.33288 0.0713,-0.84312 0.5022,-1.78233 -0.0403,-2.55415 -0.50529,-0.80903 -0.99198,-1.76993 -1.86618,-2.21938 -1.09428,0.31306 -1.93128,1.14378 -2.81787,1.8195 0.4867,0.75944 0.89279,1.60257 1.56859,2.2194 0.5332,0.29138 1.15939,0.34098 1.73909,0.51455 -0.7037,0.85243 -1.5965,1.50957 -2.55749,2.04271 0.0651,-1.58085 -0.64478,-2.9912 -1.60888,-4.19081 -1.04779,0.64475 -2.04597,1.36388 -2.92946,2.21939 0.66029,1.00121 1.23999,2.145 2.25678,2.83625 0.75948,0.30995 1.58098,0.46184 2.34977,0.75321 -0.6944,0.51454 -1.4167,1.057 -2.28468,1.22438 -0.8215,-0.58585 -1.31439,-1.49404 -1.90027,-2.29067 -1.31129,-1.94972 -2.83027,-3.78784 -3.77577,-5.95764 0.6293,0.20149 1.2245,0.54865 1.89408,0.61684 1.30199,-0.57654 2.40867,-1.50645 3.58046,-2.29996 0.86489,-0.66334 1.84448,-1.23059 2.51097,-2.114 0.16741,-0.66954 0.1705,-1.36388 0.2418,-2.04581 z"
       inkscape:connector-curvature="0" />
    <path
       style="display:inline;fill:#585858;fill-opacity:1;stroke-width:0.30998349;filter:url(#filter46433);enable-background:new"
       id="path152-8"
       d="m 47.790918,167.71333 c 1.72358,2.74013 2.74657,5.84915 3.88427,8.86203 -0.69131,0.37199 -1.4353,0.63546 -2.20099,0.79973 0.1891,-0.59205 0.465,-1.15928 0.5766,-1.76993 -0.1178,-1.23676 -0.72539,-2.35576 -1.23069,-3.46855 -1.06329,0.43085 -2.34977,0.72843 -3.04727,1.70173 -0.16429,1.53435 1.25859,2.55415 2.45827,3.17719 -0.92999,0.71603 -2.03357,1.13449 -3.15886,1.43515 0.12709,-0.72532 0.3906,-1.45065 0.30691,-2.19147 -0.15501,-0.80283 -0.54251,-1.53126 -0.8866,-2.25968 -1.15009,0.36267 -2.23508,0.9051 -3.19296,1.63973 0.48359,1.33288 0.81218,3.07491 2.25987,3.69485 0.3565,0.24177 1.06329,0.28207 0.92068,0.87101 -0.68509,0.29448 -1.41048,0.48667 -2.12657,0.69744 -1.37638,-3.1028 -2.92017,-6.1777 -3.74786,-9.48509 0.56729,0.36887 1.10049,0.78733 1.63678,1.20578 2.22888,-0.80282 4.43916,-1.69554 6.55024,-2.77422 0.88658,-0.33168 0.78739,-1.38558 0.99818,-2.1357 z"
       inkscape:connector-curvature="0" />
    <path
       style="display:inline;fill:#585858;fill-opacity:1;stroke-width:0.30998349;filter:url(#filter46437);enable-background:new"
       id="path154-7"
       d="m 113.43271,169.19188 c 0.88967,-0.16429 1.87237,0.56414 2.00257,1.46927 -0.1705,1.04769 -1.60888,1.85981 -2.40867,0.9237 -0.87419,-0.63233 -0.6913,-2.13569 0.4061,-2.39297 z"
       inkscape:connector-curvature="0" />
    <path
       id="path156-5"
       d="m 85.730168,174.77399 c -0.36197,-0.0122 -0.72655,0.0152 -1.08982,0.0872 -2.69078,0.52075 -4.91668,3.36629 -4.24399,6.13433 0.56419,2.27827 2.36239,4.09164 4.33707,5.24163 3.09067,1.59634 7.21646,-0.70364 7.64426,-4.1133 0.403,-2.1388 -0.97042,-4.03587 -2.45529,-5.40283 -1.10824,-1.10061 -2.62366,-1.89425 -4.19223,-1.94701 z m 1.66835,1.73541 c 1.34215,-0.005 2.66034,0.94674 2.90213,2.31934 0.2697,1.68933 -0.73165,3.28284 -1.84454,4.46382 -0.94239,0.97641 -2.22251,1.81607 -3.6423,1.64869 -1.43529,-0.0372 -2.35899,-1.5033 -2.46439,-2.80516 0.2852,-2.35888 1.86303,-4.63388 4.12911,-5.4646 0.29934,-0.10925 0.61026,-0.16112 0.91999,-0.16209 z"
       style="display:inline;fill:#585858;fill-opacity:1;stroke-width:0.30998349;filter:url(#filter46441);enable-background:new"
       inkscape:connector-curvature="0" />
    <path
       style="display:inline;fill:#585858;fill-opacity:1;stroke-width:0.30998349;filter:url(#filter46445);enable-background:new"
       id="path160-7"
       d="m 53.950548,179.27832 c 0.8215,0.933 1.59648,1.94041 2.07699,3.09969 0.21699,0.48356 -0.0341,1.0043 -0.13331,1.48786 -0.73779,2.50145 -1.54688,4.98742 -2.10177,7.54157 1.92197,-1.01981 4.30585,-1.9094 4.98164,-4.20629 0.86179,0.995 1.50349,2.15429 1.90648,3.40656 -0.71299,-0.16427 -1.45388,-0.75011 -2.19478,-0.39365 -2.69077,1.20268 -4.96614,3.25778 -7.83982,4.0637 -0.19838,-1.68003 0.3937,-3.28569 0.8308,-4.87582 0.59208,-2.12639 1.24929,-4.23729 1.65539,-6.41018 -1.72049,0.79042 -3.36967,1.75132 -4.88556,2.88271 -0.65718,0.46186 -0.51769,1.37627 -0.72848,2.0644 -1.02609,-1.0012 -1.73598,-2.26588 -2.18548,-3.61735 0.73779,0.19839 1.53138,0.77183 2.28468,0.30997 1.83517,-0.90512 3.61145,-1.9497 5.32883,-3.05939 0.85249,-0.44637 0.82149,-1.47857 1.00439,-2.29378 z"
       inkscape:connector-curvature="0" />
    <path
       id="path162-7"
       d="m 95.676238,183.32027 c 0.2697,0.74082 1.2306,1.48466 0.6757,2.30298 -1.06949,1.77303 -2.31586,3.44705 -3.60235,5.06819 -0.57969,0.84622 -1.7016,0.65998 -2.58199,0.83047 1.45698,1.49716 3.1864,2.76214 5.11767,3.57116 -0.1891,-0.59823 -0.49585,-1.17155 -0.54855,-1.80079 0.2263,-0.96711 0.89619,-1.76715 1.62158,-2.40877 0.0837,0.0465 0.25415,0.13966 0.33785,0.18616 0.61689,1.85363 0.27895,3.9056 1.03534,5.72204 0.6541,1.41967 2.08295,2.26572 3.496542,2.78337 -0.44019,-0.93922 -1.07858,-1.82573 -1.19019,-2.87963 -0.145702,-1.28637 -0.142572,-2.58492 -0.0526,-3.8713 0.91449,-0.0156 1.9436,0.065 2.6969,-0.55805 0.82458,-0.66643 1.38867,-1.85077 0.96086,-2.88915 -0.53629,-1.24919 -1.64597,-2.11361 -2.67828,-2.93504 -1.65227,-1.20888 -3.29512,-2.5296 -5.2884,-3.12164 z m 4.2281,2.98497 c 0.610692,0.84932 1.537882,1.74826 1.317782,2.89826 -0.24799,0.80902 -0.85597,1.52196 -1.624762,1.87842 -1.03228,0.20458 -1.93431,-0.50532 -2.80539,-0.93308 0.83699,-1.42586 1.75768,-2.85479 3.11237,-3.8436 z"
       style="display:inline;fill:#585858;fill-opacity:1;stroke-width:0.30998349;filter:url(#filter46449);enable-background:new"
       inkscape:connector-curvature="0" />
    <path
       style="display:inline;fill:#585858;fill-opacity:1;stroke-width:0.30998349;filter:url(#filter46453);enable-background:new"
       id="path166-7"
       d="m 60.866568,196.0725 c 0.0589,-1.73274 2.23818,-3.07801 3.76027,-2.13881 1.60577,0.96713 2.63187,2.60995 3.77575,4.05131 -0.66029,0.70053 -1.36708,1.35458 -2.15758,1.90322 -0.25729,-1.45996 0.5549,-3.49646 -0.95788,-4.44496 -0.46809,-0.40297 -1.06329,-0.1364 -1.58718,-0.0496 -0.0279,2.20699 0.61069,4.43566 0.0683,6.62405 -0.3534,1.71724 -2.67838,2.50766 -4.08886,1.54367 -1.61508,-1.10971 -2.75897,-2.75566 -3.87806,-4.3334 0.7378,-0.74084 1.51278,-1.45065 2.39008,-2.02411 -0.0775,0.87103 -0.2604,1.73274 -0.31619,2.60996 -0.1302,1.10969 0.74088,2.21629 1.82897,2.40846 0.7781,-0.062 1.45698,-0.73773 1.48799,-1.52195 0.0683,-1.55296 -0.48979,-3.0749 -0.32551,-4.62784 z"
       inkscape:connector-curvature="0" />
    <path
       style="display:inline;fill:#585858;fill-opacity:1;stroke-width:0.30998349;filter:url(#filter46457);enable-background:new"
       id="path168-3"
       d="m 109.25395,194.45135 c 1.55928,-0.70674 3.39137,-0.56725 4.92585,0.13949 1.62747,0.74392 2.97597,1.95901 4.55694,2.78974 -0.36269,1.07557 -0.89898,2.09538 -1.69258,2.92301 -0.3317,-1.29568 -0.2914,-2.82383 -1.34229,-3.80644 -1.18728,-1.29258 -3.37275,-1.43516 -4.72125,-0.30686 -1.49107,1.20577 -2.43967,3.17408 -2.26606,5.10519 0.30069,1.24919 1.2431,2.43948 2.50167,2.82073 0.86178,0.21389 1.40428,-0.67263 1.65538,-1.35767 0.41849,-0.99501 -0.45569,-1.86291 -0.81839,-2.72153 1.86928,0.65093 3.64865,1.57465 5.19865,2.81143 -0.4557,0.25727 -0.93,0.48356 -1.34849,0.79662 -0.77189,0.60134 -1.0664,1.60255 -1.77938,2.25659 -1.74839,-0.0868 -3.44097,-0.75013 -4.93205,-1.64284 -1.63988,-1.0353 -3.06587,-2.74325 -3.08138,-4.76425 -0.13018,-2.12019 1.1935,-4.21869 3.14338,-5.04321 z"
       inkscape:connector-curvature="0" />
    <path
       style="display:inline;fill:#585858;fill-opacity:1;stroke-width:0.30998349;filter:url(#filter46461);enable-background:new"
       id="path170-1"
       d="m 71.852848,200.83983 c 1.51899,1.0973 2.92947,2.35577 4.06096,3.85603 -0.5115,-0.0186 -1.0261,-0.0899 -1.54068,-0.0465 -0.92689,0.52695 -1.58718,1.40107 -2.34668,2.12639 1.07879,1.17169 2.16378,2.39298 3.53706,3.22371 0.6014,0.009 0.98889,-0.63856 1.37019,-1.0353 0.713,-0.77804 0.69749,-1.87224 0.8091,-2.85174 1.52518,1.06941 2.81166,2.42087 4.01444,3.83433 -0.79358,0.093 -1.75767,-0.10228 -2.34047,0.58585 -1.39498,1.39795 -2.82097,2.79283 -4.01446,4.37056 -0.57348,0.67266 -0.28209,1.58396 -0.28209,2.3775 -1.60269,-0.92064 -3.04727,-2.13882 -4.10436,-3.66077 0.7316,-0.19218 1.56548,-0.17977 2.18858,-0.66332 0.66649,-0.53625 1.18108,-1.22748 1.72359,-1.87841 -1.14699,-1.09731 -2.15448,-2.36509 -3.49057,-3.23612 -1.54998,0.69125 -2.73417,2.43018 -2.20098,4.1691 -1.65849,-0.9423 -3.01936,-2.29996 -4.25935,-3.72583 0.77809,-0.14568 1.67708,-0.062 2.31258,-0.62304 0.94858,-0.79352 1.72358,-1.76682 2.57917,-2.65644 0.6262,-0.71293 1.33918,-1.39487 1.71738,-2.28138 0.1736,-0.61375 0.18289,-1.25848 0.26659,-1.88463 z"
       inkscape:connector-curvature="0" />
    <path
       style="display:inline;fill:#585858;fill-opacity:1;stroke-width:0.30998349;filter:url(#filter46465);enable-background:new"
       id="path172-6"
       d="m 84.131828,210.6349 c 2.86746,1.51575 5.62332,3.23297 8.3172,5.03389 -0.2542,0.74704 -0.6076,1.45686 -1.0447,2.1202 -0.29759,-0.68193 -0.38129,-1.47545 -0.85868,-2.06131 -0.82769,-0.76561 -1.86619,-1.24298 -2.85817,-1.75131 -0.68199,0.9702 -1.28959,1.98999 -1.76388,3.078 0.67269,0.44015 1.31748,0.9733 2.09867,1.21818 0.6479,0.10229 1.29579,-0.062 1.94058,-0.10229 -0.2883,1.119 -0.86179,2.13259 -1.67708,2.95402 -0.39679,-1.41968 -1.50969,-2.87342 -3.05036,-2.98191 -0.71299,0.80902 -1.27098,1.75443 -1.68949,2.74942 0.6541,0.94542 1.79179,1.41656 2.80237,1.89083 0.95789,0.48355 1.93438,-0.23559 2.88917,-0.37817 -0.43089,0.86483 -1.00749,1.64283 -1.63678,2.37437 -2.87367,-1.77302 -5.96743,-3.26707 -8.53421,-5.48337 0.6789,-0.01 1.35469,0.003 2.03358,0.0154 1.0044,-1.59015 1.98708,-3.1927 2.91397,-4.82623 0.3193,-0.62304 0.6944,-1.25228 0.76879,-1.96212 -0.13329,-0.65404 -0.44019,-1.25847 -0.65098,-1.88772 z"
       inkscape:connector-curvature="0" />
    <path
       style="display:inline;fill:#585858;fill-opacity:1;stroke-width:0.30998349;filter:url(#filter46469);enable-background:new"
       id="path174-0"
       d="m 96.612288,217.46973 c 1.77627,0.79662 3.583542,1.58086 5.158342,2.74633 -0.74401,0.32856 -1.69259,0.47427 -2.089392,1.28018 -0.99818,1.74823 -1.90648,3.56775 -2.60707,5.45547 -0.37509,0.76562 0.1581,1.50955 0.403,2.2225 -1.81657,-0.47117 -3.48436,-1.37008 -5.01885,-2.42708 0.8184,-0.39986 1.73289,-0.77493 2.18858,-1.62114 0.96099,-1.59946 1.72359,-3.32287 2.36217,-5.07111 0.3565,-0.87722 -0.17979,-1.74824 -0.39678,-2.58515 z"
       inkscape:connector-curvature="0" />
    <path
       style="display:inline;fill:#585858;fill-opacity:1;stroke-width:0.30998349;filter:url(#filter46473);enable-background:new"
       id="path176-0"
       d="m 105.9153,221.43116 c 1.10977,0.27585 2.27847,0.48355 3.26426,1.10037 0.36579,0.22318 0.35649,0.72534 0.46188,1.10349 0.31622,1.91563 0.279,3.89325 0.8587,5.76546 1.48488,-1.69865 2.98837,-3.37869 4.50424,-5.04632 1.28649,0.33476 2.55747,0.76872 3.69826,1.47235 -0.58279,0.35648 -1.37018,0.60755 -1.52518,1.37008 -0.62619,1.94972 -1.00439,3.97072 -1.48489,5.96072 -0.30379,0.89582 0.4278,1.63663 0.7688,2.39918 -1.90958,-0.21078 -3.75096,-0.85863 -5.41254,-1.81644 0.68819,-0.39676 1.75148,-0.47735 1.96537,-1.38247 0.59519,-1.75443 1.0261,-3.57083 1.27099,-5.40587 -2.31257,1.77302 -3.80985,4.39847 -6.18443,6.1157 -0.63859,-2.72463 -0.56108,-5.55155 -1.18109,-8.27618 -0.97648,1.50025 -1.57478,3.20817 -2.12657,4.90371 -0.32859,0.77803 0.2294,1.50025 0.48979,2.20698 -1.11909,-0.15498 -2.21338,-0.44636 -3.24567,-0.902 2.03978,-1.41966 2.57919,-3.95523 3.53708,-6.09401 0.53318,-1.09111 0.57659,-2.30307 0.341,-3.47475 z"
       inkscape:connector-curvature="0" />
  </g>
  <g
     inkscape:label="logo"
     inkscape:groupmode="layer"
     id="layer1"
     transform="translate(0,-32.416659)"
     style="display:inline">
    <path
       id="path100"
       d="m 127.95645,41.016566 c -0.006,39.775359 0.01,79.553734 -0.01,119.329094 -39.775656,0.0248 -79.554633,-0.006 -119.3333821,0.0186 0,3.93042 -0.040363,7.86102 0.015437,11.79143 0.576594,8.00033 2.0834871,15.90451 3.8039691,23.72815 1.283386,5.98552 3.506108,11.71372 5.93958,17.30867 8.376107,19.57152 21.770723,37.05086 38.795742,49.88051 8.732593,6.56206 18.268388,12.07637 28.35877,16.27025 4.845246,1.9869 9.786376,3.78183 14.888924,4.9783 6.70213,1.60256 13.48475,2.90404 20.34807,3.56117 5.24824,0.84002 10.5744,0.38166 15.86296,0.48083 0.0248,-39.77224 -0.007,-79.54773 0.0181,-119.31998 39.77876,-0.0186 79.561,-0.003 119.33976,-0.01 v -8.67887 c -39.78187,-0.006 -79.561,0.01 -119.33976,-0.01 -0.0185,-39.77537 -0.003,-79.553743 -0.01,-119.329103 z M 17.520177,169.02179 c 36.812087,0.0342 73.621371,-0.003 110.430353,0.0186 0.0186,36.80894 -0.006,73.61782 0.0123,110.42366 -1.86928,0.26037 -3.74162,-0.0899 -5.614,-0.12395 -7.05241,-0.55486 -14.00591,-2.02098 -20.81034,-3.9149 -19.883171,-5.40898 -38.107625,-16.49966 -52.373672,-31.32862 -3.95865,-4.15051 -7.619735,-8.58632 -10.874695,-13.31026 -3.220864,-4.64334 -5.954948,-9.5996 -8.670518,-14.54982 -1.96538,-3.56775 -3.757383,-7.24388 -5.034568,-11.11851 -2.362174,-6.86584 -4.253051,-13.89621 -5.629436,-21.02242 -0.815289,-4.28067 -1.212048,-8.62641 -1.590245,-12.96288 -0.0558,-0.70982 0.03395,-1.41658 0.154848,-2.11092 z"
       style="display:inline;fill:#000000;stroke-width:0.30998349;enable-background:new"
       inkscape:connector-curvature="0" />
    <path
       style="display:inline;fill:#000000;stroke-width:0.30998349;enable-background:new"
       id="path104"
       d="m 107.57123,43.307244 c 2.84267,-0.576543 5.70084,-1.072495 8.58691,-1.373167 0.0372,35.544269 0.0156,71.091643 0.0124,106.635913 -2.99147,0.0124 -5.98603,0.0124 -8.9775,0 0.0248,-30.37398 -0.10541,-60.751042 0.12399,-91.125009 0.0868,-4.711547 0.0156,-9.429291 0.2542,-14.137737 z"
       inkscape:connector-curvature="0" />
    <path
       style="display:inline;fill:#000000;stroke-width:0.30998349;enable-background:new"
       id="path106"
       d="m 90.893409,51.385065 c 1.568584,-1.55915 3.059667,-3.208191 4.795653,-4.584457 0.05581,33.926224 0.01244,67.849352 0.02786,101.775572 -2.994572,0 -5.989134,0.006 -8.983706,-0.006 -0.01552,-24.8968 -0.0028,-49.796693 -0.0056,-74.696592 -0.01243,-1.816424 0.05582,-3.63595 -0.07443,-5.449272 -6.888308,7.113601 -13.485025,14.512589 -20.48166,21.521011 -3.971058,-3.20509 -7.452317,-6.958826 -11.336569,-10.26311 -7.687908,6.92163 -14.123444,15.117241 -19.765382,23.759203 -2.74657,4.40468 -5.105643,9.04183 -7.343819,13.72238 -2.724875,5.67556 -4.656153,11.68277 -6.413833,17.71167 -0.784292,2.81454 -1.522084,5.64147 -2.076978,8.51179 -0.344096,1.70792 -0.396796,3.45307 -0.694392,5.17031 -3.010067,0.0249 -6.020133,0.0558 -9.0271,-0.0185 1.255485,-8.90855 3.186764,-17.75509 6.34873,-26.19248 2.114176,-5.80263 4.677847,-11.43479 7.616615,-16.86547 1.918879,-3.56466 4.191153,-6.924723 6.420028,-10.300302 2.318775,-3.434477 4.587952,-6.927837 7.387221,-9.999642 4.522842,-5.061807 9.259591,-9.946937 14.284638,-14.515899 1.174884,-1.094194 2.430373,-2.101592 3.785058,-2.960209 2.848871,2.634741 5.583036,5.390378 8.47531,7.97553 0.678894,0.570342 1.255489,1.33287 2.114175,1.642841 2.030475,-1.224386 3.456462,-3.201993 5.139744,-4.835535 6.714526,-6.930934 13.029152,-14.236925 19.808774,-21.102763 z"
       inkscape:connector-curvature="0" />
    <path
       id="path108"
       d="m 188.54336,68.477974 c -8.16893,0.04638 -16.33066,2.626297 -23.01497,7.326674 -7.27872,5.207504 -12.70088,12.838772 -15.60866,21.273064 -0.85869,2.510755 -1.21807,5.167088 -1.26147,7.811158 -0.2139,4.91922 -0.40319,9.98444 1.13751,14.73008 2.80856,8.81554 8.54047,16.68563 16.09818,22.02952 10.85607,7.70585 25.70815,9.20928 37.97472,4.11649 4.14465,-1.66145 7.81797,-4.27163 11.33335,-6.98386 1.28959,-1.06009 2.5856,-2.12961 3.71087,-3.36639 0.5549,-0.52385 0.49264,-1.31722 0.50814,-2.01466 -0.0372,-5.37488 -1.1e-4,-10.74961 -0.0217,-16.1245 -2.16687,-0.0124 -4.33344,-0.0124 -6.49721,0 -0.0125,4.2404 -0.0126,8.4805 0.009,12.7209 -0.0186,0.46805 -0.003,0.94556 -0.13033,1.40122 -0.53009,0.80902 -1.39179,1.30822 -2.21326,1.77627 -0.20771,-0.9454 -0.47714,-1.89408 -0.43684,-2.86738 0.0743,-0.76252 0.49275,-1.432 0.63844,-2.17902 -0.21389,-1.04151 -0.78121,-1.96541 -1.0385,-2.99452 -0.36581,-1.28017 -0.1985,-2.69026 -0.79058,-3.90534 -0.29451,-0.64785 -1.26475,-1.09437 -1.73284,-0.36597 -0.83389,1.49406 -0.85262,3.27322 -1.29281,4.89746 -1.0943,-1.59944 -1.65825,-3.53372 -3.01294,-4.95649 0.31311,1.90323 1.11273,3.70103 1.29873,5.63213 -1.54379,-0.91132 -2.0831,-3.16778 -4.02057,-3.37545 -0.3627,2.07678 1.09762,3.79419 1.4758,5.747 0.2387,0.9361 0.0898,1.95596 -0.57671,2.68439 -1.61817,1.9683 -3.50912,3.74454 -5.6326,5.15491 -0.22319,-1.28018 -0.21396,-2.58235 -0.21706,-3.87491 -0.003,-7.23162 -0.01,-14.46332 0.003,-21.69489 9.60369,-0.009 19.21055,-0.009 28.81425,-0.003 -0.0496,1.69555 0.1919,3.42553 -0.1553,5.09317 -0.65409,0.71604 -1.66768,1.03824 -2.21328,1.85347 -0.0558,0.36885 0.0312,0.74085 0.0777,1.10971 1.43529,-0.51765 2.78675,-1.23351 4.14454,-1.92476 0.0309,-2.66264 0.0153,-5.3256 0.01,-7.98824 -4.14465,-0.0713 -8.29517,0.12403 -12.43363,-0.12395 0.4247,-2.56345 1.17472,-5.06484 1.99622,-7.526 0.64168,-1.742003 1.19018,-3.642003 2.65647,-4.894289 1.53137,1.221293 2.71904,2.792626 3.87843,4.354879 0.56108,0.67572 1.13738,1.52811 2.07975,1.66139 1.34539,-0.0651 2.21343,-1.23976 3.07834,-2.12316 -1.33919,-4.026527 -3.01632,-7.92921 -4.59728,-11.86273 -1.0695,-2.529353 -2.02714,-5.111181 -3.24543,-7.572315 -1.73906,0.774902 -2.17004,2.81749 -3.63323,3.893086 -1.25859,1.013606 -2.74373,1.6739 -4.2131,2.309339 -2.19789,0.945408 -3.94279,2.696657 -5.27888,4.646375 -0.3844,0.443249 -0.70408,1.150308 -1.39227,1.103813 -3.36036,0.09919 -6.08816,-2.117225 -8.57742,-4.082434 -0.4712,-0.461855 -1.16874,-0.992013 -0.98585,-1.739041 0.58279,-1.063199 1.79191,-1.5313 2.849,-1.986954 0.5084,1.069395 1.15005,2.14527 2.19783,2.765211 0.46189,0.257271 1.05386,0.564006 1.56845,0.244734 0.79979,-0.378161 1.17193,-1.267758 1.38272,-2.073682 0.403,-1.782326 0.12715,-3.859142 -1.19654,-5.204411 -0.63238,-0.650937 -1.65837,-1.069615 -2.53567,-0.688349 -0.6324,0.430858 -0.8743,1.215361 -1.2742,1.835304 -0.60449,1.180979 -1.91598,1.686311 -2.99476,2.327952 0.01,-2.814529 -0.0991,-5.632151 0.0745,-8.440477 0.71299,0.03099 1.44174,0.04958 2.12064,0.303765 3.26735,1.153087 6.34549,2.792404 9.24086,4.686324 2.11417,1.354573 4.07044,2.954102 6.30241,4.116491 0.32239,-0.530048 0.63859,-1.091182 0.69748,-1.720429 0.25731,-2.113994 0.13917,-4.249401 0.12988,-6.372699 -1.45699,-0.939208 -2.88586,-1.928267 -4.37386,-2.817876 -4.25936,-2.690546 -9.16655,-4.140901 -14.05519,-5.191702 -2.25608,-0.393273 -4.54413,-0.579191 -6.83143,-0.566208 z m 1.82774,6.938006 c 0.38681,0.0025 0.77363,0.01012 1.15977,0.02275 0.67889,0.03099 1.33909,0.195407 1.99939,0.362794 -2.28469,2.179089 -5.32288,3.316393 -7.82453,5.210308 1.53138,2.036501 3.43184,3.769335 4.92603,5.833736 0.48049,0.440159 0.0249,0.994923 -0.26338,1.391686 -1.69567,2.210086 -3.68914,4.181521 -5.30112,6.456704 -1.28339,1.605645 0.15813,3.546219 0.57352,5.210749 -0.48359,-0.0124 -0.96399,-0.0276 -1.44447,-0.0463 -0.5053,-1.56535 -0.90846,-3.660907 -2.72504,-4.190951 -2.38388,-0.570349 -4.9012,-0.511316 -7.30369,-0.08356 -1.45388,0.24178 -2.41775,1.447414 -3.56784,2.247131 -1.01368,-1.698623 -1.71099,-3.56454 -2.765,-5.235274 -0.61378,-1.066304 -1.99037,-1.6369 -3.15596,-1.190544 -1.64608,0.576543 -2.77448,2.049013 -3.57737,3.527575 -0.85559,1.509557 -0.83394,3.295073 -0.89593,4.975103 -0.0124,2.907523 -0.0311,5.814943 0.0122,8.722453 0.6262,-0.10228 1.25248,-0.20464 1.88176,-0.30693 0.15192,-3.63286 0.32881,-7.26554 0.27611,-10.901478 -0.0403,-1.794731 0.96693,-3.493232 2.52932,-4.358052 -0.3813,0.765627 -0.92989,1.447269 -1.21199,2.259397 -0.2077,1.001205 -0.16724,2.033284 -0.20751,3.05307 -0.0496,3.105903 -0.25415,6.209113 -0.17665,9.315003 0.61689,0.0279 1.23354,0.0681 1.85044,0.10216 0.39678,-3.44686 0.30099,-6.91866 0.29788,-10.377936 0.01,-0.991904 0.01,-2.210008 0.97631,-2.786556 0.60139,0.03415 0.75316,0.700578 1.03217,1.128335 0.53318,1.140685 1.19364,2.265834 1.40134,3.521214 -0.3503,1.041503 -1.10047,1.952803 -1.14388,3.093493 -0.17979,2.40537 -0.25424,4.95331 0.80286,7.18818 -1.63369,0.51145 -3.34166,0.70351 -5.00325,1.10337 -0.75636,0.20768 -1.60586,0.42194 -2.09565,1.08839 -0.13331,0.68812 -0.0372,1.39478 0.0186,2.08911 0.4805,4.0234 0.79364,8.06239 1.21835,12.09201 0.0837,0.78731 0.19835,1.58704 0.49903,2.32477 0.4619,0.0776 0.93318,0.006 1.39816,-0.0313 -0.0776,-4.59066 -0.91161,-9.14112 -0.93951,-13.73797 3.66106,0.90511 7.42467,1.29257 11.18804,1.46615 1.85067,-0.0124 3.77231,-0.59204 5.15489,-1.85982 0.85557,-0.75942 0.96743,-1.959 1.10073,-3.02221 2.17308,0.01 4.34912,-0.0616 6.52219,0.0686 -0.70369,1.14689 -1.69242,2.10126 -2.31861,3.29464 -0.25421,0.40917 -0.26981,1.22155 0.35329,1.28046 1.44148,0.26037 2.91376,0.24191 4.37385,0.31012 -0.0495,-0.56106 -0.0958,-1.11935 -0.14849,-1.6773 -0.62,-0.12089 -1.24309,-0.23237 -1.85998,-0.35325 0.58279,-1.0818 1.31749,-2.16056 2.41489,-2.7743 0.95169,-0.28827 1.97438,-0.12694 2.95708,-0.15484 -0.006,8.60787 0.0436,17.21576 -0.0277,25.82363 -1.44149,0.0309 -2.88317,-0.0279 -4.31847,-0.10535 -1.31128,-0.0186 -2.66595,-1.06041 -2.70004,-2.42738 0.25109,-1.04152 1.20297,-1.66725 1.90356,-2.39879 1.46628,-1.44445 3.21781,-2.96993 3.45341,-5.14901 0.22939,-2.92301 -0.60746,-6.08782 -2.80223,-8.13672 -2.24747,-2.14498 -5.51802,-2.8112 -8.53429,-2.63762 -2.15448,0.155 -4.38962,0.57955 -6.1907,1.83802 -1.30509,0.91442 -2.38713,2.3746 -2.33134,4.03295 0.0279,1.67694 0.3876,3.32283 0.55809,4.98736 -1.03849,0.006 -2.16049,0.1578 -3.06879,-0.45906 0.6944,-0.32545 1.41037,-0.60122 2.12337,-0.88948 -0.34409,-1.23988 -0.81515,-2.62206 -2.01483,-3.27922 -1.29579,-0.27586 -2.53895,0.59786 -3.25814,1.61146 -0.91139,1.35457 -0.63865,3.09052 -0.44956,4.61868 0.12399,1.24607 0.83708,2.43327 2.00573,2.95092 1.90649,0.85862 4.09164,0.76267 6.10353,0.3814 1.20278,-0.22627 2.48309,-0.83685 2.96978,-2.03644 0.8587,-2.29069 0.18326,-4.78286 0.60487,-7.13552 0.11159,-0.83691 0.93266,-1.32979 1.73556,-1.2523 1.71737,0.1023 3.51233,0.43694 4.95691,1.42575 0.64789,0.44327 1.33302,1.48474 0.57352,2.14496 -1.58407,1.54056 -3.92147,1.95613 -5.52725,3.47808 -1.94058,1.64906 -2.63499,4.33928 -2.4149,6.80044 0.12089,1.62732 0.78127,3.1403 1.16567,4.71492 -3.78506,-0.86788 -7.00901,-3.19609 -9.97878,-5.59217 -2.03974,-1.67692 -3.93051,-3.53656 -5.57039,-5.60716 -2.26918,-2.80523 -3.7265,-6.15004 -5.075,-9.46983 -1.36396,-3.27947 -1.80711,-6.86872 -1.71103,-10.39927 -0.0651,-3.50267 0.13953,-7.09221 1.41362,-10.393383 2.94496,-8.139815 8.67688,-15.544894 16.58178,-19.345128 5.18178,-2.673492 11.03366,-3.783265 16.83563,-3.745525 z m 2.90804,3.336412 c 0.065,2.458063 0.30999,4.962432 -0.16121,7.395691 -1.78558,-1.193385 -3.0722,-2.935445 -4.47647,-4.525589 1.49728,-1.032202 2.99471,-2.076576 4.63768,-2.870102 z m 7.13296,2.8365 c 0.98619,0.03365 1.53951,1.194929 1.77005,2.076405 0.4402,1.190285 -0.20127,2.389939 -0.77785,3.400438 -2.18858,-0.576542 -2.89255,-3.828123 -1.44176,-5.418268 0.15887,-0.04533 0.30866,-0.06338 0.44956,-0.05858 z m 18.41089,2.857385 c 1.25857,1.856722 2.01785,3.980157 2.88894,6.032157 1.2679,3.028404 2.2941,6.153039 3.52787,9.196933 0.34411,0.771833 -0.84018,2.058023 -1.48806,1.208723 -1.53449,-1.794733 -2.90756,-3.728685 -4.51645,-5.461421 -0.55799,-0.557946 -1.15632,-1.19993 -1.98712,-1.283617 -1.03848,1.022891 -1.42909,2.482825 -2.02117,3.772313 -1.4446,3.670035 -2.98524,7.359025 -3.59282,11.280145 -5.46834,0.0372 -10.93672,0.0154 -16.40197,0.0123 0.01,-2.68123 -0.0652,-5.36555 0.0526,-8.0468 2.46137,-0.69433 5.05588,-0.72235 7.50484,-1.453893 1.0199,-0.22317 1.46647,-1.25232 1.95626,-2.058246 1.29578,-2.430165 2.72457,-4.829347 4.63723,-6.831747 1.80727,-1.878421 4.37417,-2.650122 6.55035,-3.982996 1.08188,-0.644742 1.94703,-1.568583 2.88942,-2.383802 z m -25.44804,4.020684 c -0.0528,0.554846 0.0652,1.156085 -0.17028,1.676836 -1.54378,2.287578 -3.94333,3.930412 -5.28251,6.348174 0.9331,3.078006 2.57327,5.898679 3.62415,8.939499 0.19529,0.56724 0.23875,1.17159 0.28835,1.76673 -0.44329,-0.44945 -0.86511,-0.92652 -1.15341,-1.49067 -1.52208,-2.88272 -2.7373,-5.911493 -4.22219,-8.812802 -0.23869,-0.433956 -0.33781,-0.982623 0.003,-1.394867 1.70189,-2.507661 3.87513,-4.649448 5.7475,-7.023826 0.3875,-0.0031 0.77462,-0.006 1.16521,-0.0091 z m 1.9004,2.060966 c 1.66158,0.902014 3.12196,2.129731 4.78663,3.031741 1.209,0.666437 2.59751,0.836919 3.9243,1.162384 -0.1457,1.444471 -0.8836,3.080813 -2.43667,3.421795 -2.04598,0.45875 -4.14153,0.77518 -6.24019,0.81548 -0.14882,-2.805234 -0.10227,-5.623069 -0.0341,-8.4314 z m -2.018,1.816688 c 0.13949,2.396068 0.13034,4.794925 0.0776,7.194102 -0.70368,0.13637 -1.40141,0.2914 -2.102,0.43088 -0.68819,-1.04769 -1.5096,-2.122915 -1.6057,-3.418593 0.97031,-1.580853 2.32188,-2.898323 3.63006,-4.206389 z m -16.7044,4.442499 c 0.34303,0.002 0.68359,0.01093 1.01218,0.0049 1.25859,0.0248 2.74675,-0.0059 3.67364,0.994846 0.75329,1.050807 0.61689,2.42707 0.76878,3.64835 1.36399,0.062 2.75293,-0.10517 4.10141,0.15211 0.71919,0.40915 1.1408,1.16532 1.55619,1.85346 0.92378,1.67384 1.80735,3.40046 2.23824,5.27888 -3.88735,0.41226 -7.81199,0.1891 -11.69935,0.55486 0.15191,0.89892 0.48347,1.76353 0.56717,2.67485 -0.35339,0.9888 -1.42307,1.56863 -2.43986,1.58103 -2.28466,0.0558 -4.58442,0.093 -6.85049,-0.2293 -1.73908,-0.22628 -3.5309,-0.34738 -5.15219,-1.0634 2.50168,-0.91441 5.3628,-0.60141 7.68468,-2.07686 -0.7316,-0.94541 -1.65214,-1.717 -2.40853,-2.63762 -0.21079,-1.96831 -0.17983,-3.98955 -0.0186,-5.96406 1.20899,-1.47234 2.67503,-2.724433 4.10412,-3.979811 0.78585,-0.734631 1.83353,-0.797867 2.86263,-0.792788 z m 15.4302,4.679956 c 0.44949,0.01 0.89925,0.0215 1.35184,0.0432 0.0434,1.26158 0.059,2.52655 -0.0496,3.78504 -0.7006,-1.17169 -1.10395,-2.48599 -1.30235,-3.82817 z m 1.77642,6.35092 c -0.0558,0.23559 -0.16442,0.71296 -0.22024,0.94854 -0.23869,0.62612 -1.054,0.3443 -1.55618,0.47448 0.35959,-0.72843 0.88673,-1.40751 1.77642,-1.42302 z m -14.21321,10.05239 c 0.37287,0.002 0.74479,0.01 1.10981,0.006 1.73907,0.0434 3.58673,-0.099 5.18941,0.7038 2.24748,1.09418 3.64217,3.45931 4.04828,5.8678 0.15189,1.22126 0.18297,2.59094 -0.5858,3.63244 -1.20588,1.67385 -2.94822,2.8705 -4.1913,4.51335 -1.1656,1.54054 -0.81518,4.03897 0.80919,5.11768 0.9951,0.68192 2.24454,0.72857 3.40391,0.84636 2.06457,0.13328 4.15685,0.18587 6.21522,-0.11171 1.58718,-0.19837 2.60427,-1.57156 3.71406,-2.57587 1.80727,-1.92181 3.91508,-3.68252 5.01867,-6.13749 0.81529,0.26037 1.62745,0.52718 2.44893,0.77826 0.28521,-0.74703 0.56751,-1.49411 0.90231,-2.21944 0.54248,1.60254 0.75286,3.32285 0.57307,5.00598 -0.62929,0.63545 -1.52792,0.9546 -2.09521,1.65823 -0.5983,0.73152 -0.7905,1.68322 -1.25239,2.48914 -1.62749,0.93922 -3.41931,1.56841 -5.15218,2.28754 -2.45208,0.995 -5.06565,1.42896 -7.64789,1.93111 -1.51899,0.19527 -3.05349,0.0588 -4.57866,0.099 -1.26169,-0.0309 -2.56989,0.1427 -3.79126,-0.26335 -2.01187,-0.63543 -3.74462,-2.13567 -4.59091,-4.07607 -1.09739,-2.37747 -0.72214,-5.39364 1.00765,-7.37435 1.37328,-1.55606 3.47163,-2.07372 5.10222,-3.27332 1.21518,-0.8803 1.61506,-2.60965 1.07258,-3.97662 -0.4743,-1.42277 -1.8689,-2.28773 -3.25769,-2.6349 -1.86927,-0.46803 -3.85637,-0.56723 -5.74115,-0.14258 -0.59829,0.0683 -0.94581,0.61047 -1.10391,1.13741 -0.70059,2.46427 -0.35323,5.05264 -0.52993,7.56961 0,0.84002 -0.77811,1.361 -1.50352,1.56559 -1.50968,0.45876 -3.11229,0.31608 -4.66537,0.30058 -1.45079,0.0248 -2.77772,-1.32385 -2.77772,-2.76521 -0.0186,-1.16239 -0.14254,-2.47657 0.59215,-3.46536 0.55799,-0.72844 1.55644,-0.53306 2.35313,-0.53306 -0.57349,0.84002 -1.97169,1.44158 -1.64929,2.63806 0.2852,1.25229 1.52834,1.98047 2.7373,2.08276 1.0788,0.14568 2.55427,0.0249 3.00067,-1.1592 0.35028,-1.50336 0.0341,-3.04994 -0.12714,-4.55329 0.1023,-1.76993 1.08173,-3.54327 2.71231,-4.33988 0.98347,-0.5812 2.11184,-0.63398 3.23045,-0.62933 z"
       style="display:inline;fill:#000000;stroke-width:0.30998349;enable-background:new"
       inkscape:connector-curvature="0" />
    <path
       style="display:inline;fill:#000000;stroke-width:0.30998349;enable-background:new"
       id="path134"
       d="m 99.340815,181.06104 c 0.477401,-1.43515 2.290875,-2.62234 3.713755,-1.70482 1.60579,1.0167 2.62878,2.69054 3.68587,4.22489 -0.65409,0.61373 -1.34229,1.19648 -2.08008,1.70792 -0.0372,-1.0508 0.0992,-2.10779 -0.0309,-3.1524 -0.2821,-0.9454 -1.27408,-1.35146 -2.07387,-1.76371 -1.03231,1.8815 0.0836,3.99241 -0.0713,5.99171 0.0651,1.85982 -1.94369,3.75374 -3.800571,2.98191 -1.934372,-0.91441 -3.211554,-2.74632 -4.39575,-4.45427 0.743998,-0.74702 1.537579,-1.45066 2.436581,-2.0024 -0.182904,1.30187 -0.815301,2.81453 0.06508,4.00171 0.570386,0.96712 2.399367,1.1314 2.793058,-0.0651 0.496002,-1.9187 -0.849381,-3.85602 -0.241791,-5.76544 z"
       inkscape:connector-curvature="0" />
    <path
       style="display:inline;fill:#000000;stroke-width:0.30998349;enable-background:new"
       id="path136"
       d="m 62.221833,184.51411 c 0.644795,-1.9838 2.721767,-3.19889 4.724351,-3.33529 1.74528,-0.0248 3.422362,0.85553 4.529047,2.1822 1.447689,1.64595 1.878583,3.85913 2.833368,5.77784 -0.898984,0.60134 -1.863081,1.10659 -2.901567,1.43206 0.375094,-1.57774 1.636783,-3.32287 0.539393,-4.89131 -1.345382,-2.52317 -5.049843,-2.35268 -6.903622,-0.50836 -1.611986,1.30497 -2.176175,3.9986 -0.530098,5.51126 1.047789,0.17979 1.859977,-0.67263 2.650474,-1.22128 -0.03721,-0.65094 -0.06825,-1.30186 -0.07752,-1.94971 1.41358,1.40726 2.08318,3.32908 2.886074,5.10831 -0.923799,0.0248 -1.89718,-0.0713 -2.755876,0.34407 -0.585889,0.18597 -1.261689,0.67574 -1.844484,0.21388 -1.103571,-0.78113 -1.850673,-1.96522 -2.470672,-3.14311 -0.809084,-1.68933 -1.326775,-3.69175 -0.678886,-5.52056 z"
       inkscape:connector-curvature="0" />
    <path
       style="display:inline;fill:#000000;stroke-width:0.30998349;enable-background:new"
       id="path138"
       d="m 148.50628,181.11993 c 3.78506,3.1989 7.37792,6.61787 11.06997,9.92525 13.74835,12.49799 27.43471,25.06108 41.18615,37.55597 2.49547,2.18839 4.85455,4.53486 7.42753,6.63027 0.1116,-18.03406 0.0279,-36.06812 0.062,-54.10219 2.99148,-0.0124 5.98604,-0.009 8.97751,-0.003 -0.003,24.52173 0.0372,49.04347 -0.0216,73.56209 -3.80986,-3.109 -7.35624,-6.53726 -11.039,-9.79506 -13.87544,-12.57238 -27.67029,-25.23155 -41.50852,-37.84424 -2.39629,-2.145 -4.68404,-4.41707 -7.17333,-6.45667 -0.0961,28.42116 -0.062,56.84541 -0.093,85.26968 -2.95736,0.68812 -5.94883,1.28016 -8.97749,1.54671 0,-32.63672 0,-65.27658 0,-97.91642 0.0279,-2.79283 -0.0776,-5.58567 0.0899,-8.3723 z"
       inkscape:connector-curvature="0" />
    <path
       style="display:inline;fill:#000000;stroke-width:0.30998349;enable-background:new"
       id="path140"
       d="m 229.02167,181.12923 c 2.88916,-0.0124 5.77835,-0.0124 8.66749,0 0.0186,15.70929 -0.0122,31.42168 0.0154,47.13096 0.1116,1.66454 -1.07569,2.97261 -1.86618,4.31789 -2.10797,3.1152 -4.12603,6.34819 -6.77651,9.03873 -0.1054,-20.16356 -0.0217,-40.32711 -0.0403,-60.48758 z"
       inkscape:connector-curvature="0" />
    <path
       id="path142"
       d="m 41.036475,184.734 c -0.443302,0.76563 -0.446377,1.98708 -1.447658,2.25985 -1.931284,0.63854 -3.921414,1.12207 -5.917793,1.51882 -1.044685,0.33167 -1.630475,-0.77807 -2.374469,-1.28952 0.2635,2.45186 1.10959,4.79538 1.887681,7.12326 0.53009,1.41346 1.590573,3.12741 3.320353,2.99723 1.491078,-0.15499 2.306264,-1.59311 2.678259,-2.89189 0.663401,0.47736 1.351599,1.20566 2.25368,0.9608 1.286492,-0.21079 2.005713,-1.55265 1.825922,-2.77703 -0.251094,-2.73085 -0.905389,-5.48065 -2.225975,-7.90152 z m 0.771959,4.66817 c 0.241798,0.82762 0.5393,1.81676 -0.02177,2.58858 -0.427797,0.67574 -1.357748,0.79342 -2.055236,0.51445 -0.784286,-0.39987 -0.967066,-1.31759 -1.193367,-2.08322 1.03539,-0.49905 2.148212,-0.79663 3.270407,-1.01981 z m -4.113657,1.31767 c 0.201503,0.80902 0.558143,1.71999 0.07765,2.50731 -0.660288,1.41347 -2.979097,1.76998 -3.828486,0.35961 -0.331699,-0.50214 -0.716123,-1.36078 -0.108529,-1.80714 1.106689,-0.80592 2.529482,-0.97299 3.859365,-1.05978 z"
       style="display:inline;fill:#000000;stroke-width:0.30998349;enable-background:new"
       inkscape:connector-curvature="0" />
    <path
       style="display:inline;fill:#000000;stroke-width:0.30998349;enable-background:new"
       id="path144"
       d="m 108.50122,185.20224 c 2.66907,2.52007 5.26375,5.1176 7.83981,7.73376 -0.60759,0.75633 -1.27098,1.46616 -2.04287,2.05821 0.0495,-0.67574 0.1829,-1.34218 0.1643,-2.01791 -0.29141,-0.87413 -1.06638,-1.46307 -1.65538,-2.1326 -1.94368,1.87222 -3.90595,3.73824 -5.65743,5.79645 0.12399,0.63232 0.26349,1.26467 0.38749,1.9032 -1.77009,-1.23677 -3.31387,-2.79282 -4.53835,-4.56896 0.62618,0.1147 1.24928,0.39058 1.90027,0.32548 0.6944,-0.26038 1.23379,-0.79973 1.76079,-1.30498 1.39188,-1.41346 2.70627,-2.90752 4.00205,-4.41087 -0.6448,-0.51765 -1.24619,-1.13759 -2.03048,-1.43826 -0.76568,-0.0496 -1.52209,0.15498 -2.28157,0.22318 0.60139,-0.83072 1.36087,-1.52505 2.15137,-2.1667 z"
       inkscape:connector-curvature="0" />
    <path
       style="display:inline;fill:#000000;stroke-width:0.30998349;enable-background:new"
       id="path150"
       d="m 75.963989,191.96269 c 1.903371,2.65335 3.847049,5.28498 5.524131,8.09331 -0.610696,0.46806 -1.233789,0.91753 -1.884783,1.33288 0.07125,-0.84312 0.502199,-1.78233 -0.04029,-2.55415 -0.505293,-0.80903 -0.991988,-1.76993 -1.866186,-2.21938 -1.094278,0.31306 -1.93128,1.14378 -2.817866,1.8195 0.486705,0.75944 0.892794,1.60257 1.568584,2.2194 0.533203,0.29138 1.159391,0.34098 1.739091,0.51455 -0.703699,0.85243 -1.596494,1.50957 -2.557487,2.04271 0.06508,-1.58085 -0.644776,-2.9912 -1.608874,-4.19081 -1.047789,0.64475 -2.045976,1.36388 -2.929468,2.21939 0.660297,1.00121 1.239989,2.145 2.256783,2.83625 0.759481,0.30995 1.580982,0.46184 2.349767,0.75321 -0.694396,0.51454 -1.416693,1.057 -2.284673,1.22438 -0.821501,-0.58585 -1.314395,-1.49404 -1.900275,-2.29067 -1.311292,-1.94972 -2.830274,-3.78784 -3.775765,-5.95764 0.629293,0.20149 1.224495,0.54865 1.894076,0.61684 1.301989,-0.57654 2.408674,-1.50645 3.580462,-2.29996 0.864894,-0.66334 1.844476,-1.23059 2.510971,-2.114 0.167403,-0.66954 0.170498,-1.36388 0.241802,-2.04581 z"
       inkscape:connector-curvature="0" />
    <path
       style="display:inline;fill:#000000;stroke-width:0.30998349;enable-background:new"
       id="path152"
       d="m 45.674218,198.01331 c 1.723579,2.74013 2.746563,5.84915 3.884262,8.86203 -0.691302,0.37199 -1.435291,0.63546 -2.200981,0.79973 0.189094,-0.59205 0.464994,-1.15928 0.576596,-1.76993 -0.117801,-1.23676 -0.725392,-2.35576 -1.230685,-3.46855 -1.063292,0.43085 -2.349777,0.72843 -3.047277,1.70173 -0.16429,1.53435 1.258593,2.55415 2.458273,3.17719 -0.929988,0.71603 -2.033569,1.13449 -3.15886,1.43515 0.127094,-0.72532 0.390596,-1.45065 0.306904,-2.19147 -0.155004,-0.80283 -0.542503,-1.53126 -0.886598,-2.25968 -1.150089,0.36267 -2.235078,0.9051 -3.192959,1.63973 0.483589,1.33288 0.812186,3.07491 2.259873,3.69485 0.356497,0.24177 1.06329,0.28207 0.920684,0.87101 -0.685094,0.29448 -1.410482,0.48667 -2.126572,0.69744 -1.376388,-3.1028 -2.920171,-6.1777 -3.747862,-9.48509 0.56729,0.36887 1.100487,0.78733 1.636781,1.20578 2.228883,-0.80282 4.439156,-1.69554 6.550234,-2.77422 0.886585,-0.33168 0.787391,-1.38558 0.998187,-2.1357 z"
       inkscape:connector-curvature="0" />
    <path
       style="display:inline;fill:#000000;stroke-width:0.30998349;enable-background:new"
       id="path154"
       d="m 111.316,199.49186 c 0.88967,-0.16429 1.87237,0.56414 2.00257,1.46927 -0.1705,1.04769 -1.60888,1.85981 -2.40867,0.9237 -0.87419,-0.63233 -0.6913,-2.13569 0.4061,-2.39297 z"
       inkscape:connector-curvature="0" />
    <path
       id="path156"
       d="m 83.613469,205.07397 c -0.361976,-0.0122 -0.726551,0.0152 -1.089826,0.0872 -2.690782,0.52075 -4.916681,3.36629 -4.243985,6.13433 0.564188,2.27827 2.362389,4.09164 4.337063,5.24163 3.090672,1.59634 7.216463,-0.70364 7.644263,-4.1133 0.403004,-2.1388 -0.970418,-4.03587 -2.455292,-5.40283 -1.108237,-1.10061 -2.623657,-1.89425 -4.192223,-1.94701 z m 1.668349,1.73541 c 1.342146,-0.005 2.660337,0.94674 2.902128,2.31934 0.269701,1.68933 -0.731646,3.28284 -1.844539,4.46382 -0.942388,0.97641 -2.222515,1.81607 -3.642303,1.64869 -1.435291,-0.0372 -2.358988,-1.5033 -2.46439,-2.80516 0.285203,-2.35888 1.863034,-4.63388 4.12911,-5.4646 0.299341,-0.10925 0.610266,-0.16112 0.919994,-0.16209 z"
       style="display:inline;fill:#000000;stroke-width:0.30998349;enable-background:new"
       inkscape:connector-curvature="0" />
    <path
       style="display:inline;fill:#000000;stroke-width:0.30998349;enable-background:new"
       id="path160"
       d="m 51.83385,209.5783 c 0.821491,0.933 1.596475,1.94041 2.076981,3.09969 0.216995,0.48356 -0.03413,1.0043 -0.133303,1.48786 -0.73779,2.50145 -1.546883,4.98742 -2.101778,7.54157 1.921978,-1.01981 4.305854,-1.9094 4.981645,-4.20629 0.861789,0.995 1.503489,2.15429 1.906483,3.40656 -0.712993,-0.16427 -1.453887,-0.75011 -2.194781,-0.39365 -2.690772,1.20268 -4.966142,3.25778 -7.839819,4.0637 -0.198388,-1.68003 0.393701,-3.28569 0.830795,-4.87582 0.592088,-2.12639 1.249291,-4.23729 1.655389,-6.41018 -1.720484,0.79042 -3.369665,1.75132 -4.885553,2.88271 -0.657183,0.46186 -0.517691,1.37627 -0.728487,2.0644 -1.026087,-1.0012 -1.735977,-2.26588 -2.185479,-3.61735 0.73779,0.19839 1.531381,0.77183 2.284683,0.30997 1.835171,-0.90512 3.611448,-1.9497 5.328827,-3.05939 0.852497,-0.44637 0.821492,-1.47857 1.004397,-2.29378 z"
       inkscape:connector-curvature="0" />
    <path
       id="path162"
       d="m 93.559533,213.62025 c 0.269702,0.74082 1.230601,1.48466 0.675707,2.30298 -1.069491,1.77303 -2.315865,3.44705 -3.60235,5.06819 -0.579691,0.84622 -1.701607,0.65998 -2.581994,0.83047 1.456983,1.49716 3.186396,2.76214 5.117668,3.57116 -0.189095,-0.59823 -0.49585,-1.17155 -0.548546,-1.80079 0.226297,-0.96711 0.896187,-1.76715 1.62158,-2.40877 0.08369,0.0465 0.254142,0.13966 0.337843,0.18616 0.616895,1.85363 0.278958,3.9056 1.035345,5.72204 0.654098,1.41967 2.082953,2.26572 3.496543,2.78337 -0.440198,-0.93922 -1.078589,-1.82573 -1.19019,-2.87963 -0.145701,-1.28637 -0.142578,-2.58492 -0.05265,-3.8713 0.914486,-0.0156 1.943585,0.065 2.696881,-0.55805 0.82458,-0.66643 1.38867,-1.85077 0.96086,-2.88915 -0.53629,-1.24919 -1.645966,-2.11361 -2.678262,-2.93504 -1.652274,-1.20888 -3.295126,-2.5296 -5.288406,-3.12164 z m 4.228097,2.98497 c 0.610695,0.84932 1.537889,1.74826 1.31779,2.89826 -0.248,0.80902 -0.855974,1.52196 -1.62476,1.87842 -1.032284,0.20458 -1.934316,-0.50532 -2.8054,-0.93308 0.836994,-1.42586 1.757688,-2.85479 3.11237,-3.8436 z"
       style="display:inline;fill:#000000;stroke-width:0.30998349;enable-background:new"
       inkscape:connector-curvature="0" />
    <path
       style="display:inline;fill:#000000;stroke-width:0.30998349;enable-background:new"
       id="path166"
       d="m 58.749869,226.37248 c 0.05891,-1.73274 2.238175,-3.07801 3.760262,-2.13881 1.605779,0.96713 2.631876,2.60995 3.775755,4.05131 -0.660287,0.70053 -1.367083,1.35458 -2.157578,1.90322 -0.257293,-1.45996 0.554894,-3.49646 -0.95788,-4.44496 -0.468098,-0.40297 -1.063292,-0.1364 -1.587181,-0.0496 -0.02786,2.20699 0.610686,4.43566 0.06826,6.62405 -0.353403,1.71724 -2.678383,2.50766 -4.088859,1.54367 -1.615082,-1.10971 -2.758971,-2.75566 -3.878064,-4.3334 0.7378,-0.74084 1.512784,-1.45065 2.390076,-2.02411 -0.07752,0.87103 -0.260397,1.73274 -0.316188,2.60996 -0.1302,1.10969 0.740884,2.21629 1.828972,2.40846 0.778097,-0.062 1.456983,-0.73773 1.487988,-1.52195 0.06826,-1.55296 -0.489792,-3.0749 -0.325502,-4.62784 z"
       inkscape:connector-curvature="0" />
    <path
       style="display:inline;fill:#000000;stroke-width:0.30998349;enable-background:new"
       id="path168"
       d="m 107.13723,224.75133 c 1.55929,-0.70674 3.39138,-0.56725 4.92586,0.13949 1.62747,0.74392 2.97597,1.95901 4.55694,2.78974 -0.36269,1.07557 -0.89898,2.09538 -1.69258,2.92301 -0.3317,-1.29568 -0.2914,-2.82383 -1.34229,-3.80644 -1.18728,-1.29258 -3.37275,-1.43516 -4.72125,-0.30686 -1.49107,1.20577 -2.43967,3.17408 -2.26606,5.10519 0.30069,1.24919 1.24309,2.43948 2.50167,2.82073 0.86178,0.21389 1.40428,-0.67263 1.65538,-1.35767 0.41849,-0.99501 -0.45569,-1.86291 -0.81839,-2.72153 1.86928,0.65093 3.64865,1.57465 5.19865,2.81143 -0.4557,0.25727 -0.93,0.48356 -1.34849,0.79662 -0.77189,0.60134 -1.0664,1.60255 -1.77938,2.25659 -1.74839,-0.0868 -3.44097,-0.75013 -4.93205,-1.64284 -1.63988,-1.0353 -3.06587,-2.74325 -3.08138,-4.76425 -0.13018,-2.12019 1.1935,-4.21869 3.14337,-5.04321 z"
       inkscape:connector-curvature="0" />
    <path
       style="display:inline;fill:#000000;stroke-width:0.30998349;enable-background:new"
       id="path170"
       d="m 69.736149,231.13981 c 1.518983,1.0973 2.929468,2.35577 4.060959,3.85603 -0.511502,-0.0186 -1.026098,-0.0899 -1.540685,-0.0465 -0.926884,0.52695 -1.587181,1.40107 -2.346673,2.12639 1.078786,1.17169 2.163778,2.39298 3.537059,3.22371 0.601392,0.009 0.988885,-0.63856 1.370188,-1.0353 0.712994,-0.77804 0.697491,-1.87224 0.809093,-2.85174 1.525181,1.06941 2.811667,2.42087 4.014451,3.83433 -0.79359,0.093 -1.757679,-0.10228 -2.340474,0.58585 -1.394983,1.39795 -2.82097,2.79283 -4.014461,4.37056 -0.573482,0.67266 -0.282089,1.58396 -0.282089,2.3775 -1.602694,-0.92064 -3.047269,-2.13882 -4.104361,-3.66077 0.7316,-0.19218 1.565479,-0.17977 2.188583,-0.66332 0.666487,-0.53625 1.181082,-1.22748 1.723588,-1.87841 -1.146992,-1.09731 -2.154483,-2.36509 -3.490571,-3.23612 -1.549977,0.69125 -2.734174,2.43018 -2.20098,4.1691 -1.658486,-0.9423 -3.019359,-2.29996 -4.259347,-3.72583 0.778089,-0.14568 1.677081,-0.062 2.312573,-0.62304 0.948586,-0.79352 1.72358,-1.76682 2.579171,-2.65644 0.626197,-0.71293 1.339182,-1.39487 1.717379,-2.28138 0.173602,-0.61375 0.182896,-1.25848 0.266597,-1.88463 z"
       inkscape:connector-curvature="0" />
    <path
       style="display:inline;fill:#000000;stroke-width:0.30998349;enable-background:new"
       id="path172"
       d="m 82.015124,240.93488 c 2.867458,1.51575 5.623324,3.23297 8.3172,5.03389 -0.254198,0.74704 -0.6076,1.45686 -1.044694,2.1202 -0.297592,-0.68193 -0.381293,-1.47545 -0.858685,-2.06131 -0.827691,-0.76561 -1.866186,-1.24298 -2.858174,-1.75131 -0.68199,0.9702 -1.289581,1.98999 -1.763878,3.078 0.672695,0.44015 1.31748,0.9733 2.098673,1.21818 0.647899,0.10229 1.295789,-0.062 1.940583,-0.10229 -0.288298,1.119 -0.861789,2.13259 -1.677081,2.95402 -0.396796,-1.41968 -1.509689,-2.87342 -3.050364,-2.98191 -0.712993,0.80902 -1.270983,1.75443 -1.689489,2.74942 0.654098,0.94542 1.791788,1.41656 2.802374,1.89083 0.957888,0.48355 1.934375,-0.23559 2.889169,-0.37817 -0.430895,0.86483 -1.007491,1.64283 -1.636784,2.37437 -2.873667,-1.77302 -5.967432,-3.26707 -8.534205,-5.48337 0.678894,-0.01 1.354685,0.003 2.033579,0.0154 1.004396,-1.59015 1.987081,-3.1927 2.913966,-4.82623 0.319302,-0.62304 0.694397,-1.25228 0.768794,-1.96212 -0.133294,-0.65404 -0.440198,-1.25847 -0.650984,-1.88772 z"
       inkscape:connector-curvature="0" />
    <path
       style="display:inline;fill:#000000;stroke-width:0.30998349;enable-background:new"
       id="path174"
       d="m 94.495582,247.76971 c 1.776275,0.79662 3.583544,1.58086 5.158336,2.74633 -0.743998,0.32856 -1.692583,0.47427 -2.089379,1.28018 -0.998185,1.74823 -1.906482,3.56775 -2.607077,5.45547 -0.375085,0.76562 0.1581,1.50955 0.403004,2.2225 -1.816575,-0.47117 -3.484363,-1.37008 -5.018848,-2.42708 0.818397,-0.39986 1.732883,-0.77493 2.188574,-1.62114 0.960993,-1.59946 1.723589,-3.32287 2.362175,-5.07111 0.356497,-0.87722 -0.179791,-1.74824 -0.396785,-2.58515 z"
       inkscape:connector-curvature="0" />
    <path
       style="display:inline;fill:#000000;stroke-width:0.30998349;enable-background:new"
       id="path176"
       d="m 103.79858,251.73114 c 1.10978,0.27585 2.27847,0.48355 3.26426,1.10037 0.3658,0.22318 0.3565,0.72534 0.46189,1.10349 0.31621,1.91563 0.279,3.89325 0.8587,5.76546 1.48488,-1.69865 2.98837,-3.37869 4.50424,-5.04632 1.28649,0.33476 2.55747,0.76872 3.69826,1.47235 -0.58279,0.35648 -1.37018,0.60755 -1.52518,1.37008 -0.62619,1.94972 -1.00439,3.97072 -1.48489,5.96072 -0.30379,0.89582 0.4278,1.63663 0.7688,2.39918 -1.90958,-0.21078 -3.75096,-0.85863 -5.41254,-1.81644 0.68819,-0.39676 1.75148,-0.47735 1.96537,-1.38247 0.59519,-1.75443 1.0261,-3.57083 1.27099,-5.40587 -2.31257,1.77302 -3.80985,4.39847 -6.18443,6.1157 -0.63859,-2.72463 -0.56109,-5.55155 -1.18109,-8.27618 -0.97648,1.50025 -1.57478,3.20817 -2.12657,4.90371 -0.3286,0.77803 0.2294,1.50025 0.48979,2.20698 -1.11909,-0.15498 -2.21338,-0.44636 -3.245675,-0.902 2.039785,-1.41966 2.579185,-3.95523 3.537075,-6.09401 0.53318,-1.09111 0.5766,-2.30307 0.341,-3.47475 z"
       inkscape:connector-curvature="0" />
  </g>
</svg>
