<?xml version="1.0" encoding="UTF-8" standalone="no"?>
<!-- Created with Inkscape (http://www.inkscape.org/) -->

<svg
   xmlns:dc="http://purl.org/dc/elements/1.1/"
   xmlns:cc="http://creativecommons.org/ns#"
   xmlns:rdf="http://www.w3.org/1999/02/22-rdf-syntax-ns#"
   xmlns:svg="http://www.w3.org/2000/svg"
   xmlns="http://www.w3.org/2000/svg"
   xmlns:sodipodi="http://sodipodi.sourceforge.net/DTD/sodipodi-0.dtd"
   xmlns:inkscape="http://www.inkscape.org/namespaces/inkscape"
   width="512"
   height="512"
   viewBox="0 0 135.46666 135.46667"
   version="1.1"
   id="svg15033"
   inkscape:version="0.92.3 (2405546, 2018-03-11)"
   sodipodi:docname="minilogo-circle-noShadow.svg"
   inkscape:export-filename="minilogo-circle-noShadow_2048px.png"
   inkscape:export-xdpi="196.608"
   inkscape:export-ydpi="196.608">
  <title
     id="title19638">Minilogo Circle</title>
  <defs
     id="defs15027" />
  <sodipodi:namedview
     id="base"
     pagecolor="#ffffff"
     bordercolor="#666666"
     borderopacity="1.0"
     inkscape:pageopacity="0.0"
     inkscape:pageshadow="2"
     inkscape:zoom="1.6601562"
     inkscape:cx="256.30118"
     inkscape:cy="256"
     inkscape:document-units="px"
     inkscape:current-layer="layer6"
     showgrid="false"
     units="px"
     inkscape:pagecheckerboard="true"
     inkscape:window-width="1920"
     inkscape:window-height="1017"
     inkscape:window-x="-8"
     inkscape:window-y="-8"
     inkscape:window-maximized="1" />
  <metadata
     id="metadata15030">
    <rdf:RDF>
      <cc:Work
         rdf:about="">
        <dc:format>image/svg+xml</dc:format>
        <dc:type
           rdf:resource="http://purl.org/dc/dcmitype/StillImage" />
        <dc:title>Minilogo Circle</dc:title>
        <dc:creator>
          <cc:Agent>
            <dc:title>Ministranten Sankt Georg Bensheim</dc:title>
          </cc:Agent>
        </dc:creator>
        <dc:source>https://www.ministranten-sankt-ge.org/</dc:source>
        <dc:publisher>
          <cc:Agent>
            <dc:title>Ministranten Sankt Georg Bensheim</dc:title>
          </cc:Agent>
        </dc:publisher>
        <cc:license
           rdf:resource="" />
        <dc:description />
      </cc:Work>
    </rdf:RDF>
  </metadata>
  <g
     inkscape:groupmode="layer"
     id="layer6"
     inkscape:label="background"
     style="display:inline"
     transform="translate(0,-129.11667)">
    <circle
       style="opacity:1;fill:#ffffff;fill-opacity:1;stroke-width:0.12081664;enable-background:new"
       id="path3809"
       cx="67.73333"
       cy="196.85001"
       r="67.73333" />
  </g>
  <g
     inkscape:label="logo"
     inkscape:groupmode="layer"
     id="layer1"
     transform="translate(0,-161.53332)"
     style="display:inline">
    <path
       id="path100"
       d="m 65.49845,165.50193 c -0.0031,20.50457 0.0051,41.01067 -0.0051,61.51521 -20.504672,0.0128 -41.011057,-0.003 -61.5173239,0.01 0,2.02617 -0.020807,4.05243 0.00795,6.07859 0.2972387,4.12425 1.0740544,8.1989 1.9609764,12.23207 0.661596,3.0856 1.807427,6.03853 3.061902,8.92277 4.3179505,10.0893 11.2229835,19.10005 19.9995195,25.71385 4.501721,3.38282 9.417499,6.22547 14.619174,8.38746 2.497764,1.02426 5.044957,1.94957 7.675358,2.56635 3.455006,0.82614 6.951502,1.49706 10.489598,1.83582 2.705509,0.43304 5.451188,0.19675 8.177483,0.24787 0.01277,-20.50296 -0.0035,-41.00757 0.0093,-61.51049 20.506274,-0.01 41.014333,-0.002 61.520613,-0.004 v -4.47401 c -20.50789,-0.003 -41.014339,0.004 -61.520613,-0.004 -0.0095,-20.50457 -0.0015,-41.01067 -0.0051,-61.51523 z M 8.5676585,231.48978 c 18.9769265,0.0175 37.9524095,-0.002 56.9277395,0.01 0.0095,18.97533 -0.003,37.95064 0.0065,56.92436 -0.963631,0.13424 -1.928837,-0.0462 -2.894064,-0.0639 -3.635574,-0.28604 -7.220161,-1.04184 -10.7279,-2.01818 C 41.63,283.55369 32.235148,277.83635 24.880885,270.19189 c -2.040716,-2.13962 -3.928036,-4.42632 -5.605993,-6.86156 -1.660384,-2.39369 -3.069826,-4.94867 -4.469722,-7.50056 -1.01317,-1.83921 -1.936962,-3.73428 -2.595363,-5.73169 -1.217719,-3.53941 -2.192481,-7.16362 -2.9020185,-10.83724 -0.420288,-2.20674 -0.624821,-4.447 -0.819784,-6.68249 -0.02876,-0.36592 0.0175,-0.73026 0.07981,-1.08818 z"
       style="display:inline;fill:#000000;stroke-width:0.15979896;enable-background:new"
       inkscape:connector-curvature="0" />
    <path
       style="display:inline;fill:#000000;stroke-width:0.1563251;enable-background:new"
       id="path104"
       d="m 55.543982,167.76605 c 1.433562,-0.29075 2.874941,-0.54086 4.330392,-0.69248 0.01875,17.92502 0.0078,35.85161 0.0064,53.77664 -1.508603,0.007 -3.018765,0.007 -4.527367,0 0.01251,-15.31764 -0.05316,-30.63684 0.06253,-45.95447 0.04378,-2.37604 0.0078,-4.7552 0.128193,-7.12969 z"
       inkscape:connector-curvature="0" />
    <path
       style="display:inline;fill:#000000;stroke-width:0.1563251;enable-background:new"
       id="path106"
       d="m 47.133334,171.83971 c 0.79104,-0.78626 1.542995,-1.61789 2.418454,-2.31194 0.02815,17.10904 0.0064,34.21651 0.01405,51.32556 -1.510166,0 -3.020328,0.003 -4.530494,-0.003 -0.0078,-12.55548 -0.0014,-25.11253 -0.0026,-37.66959 -0.0064,-0.91602 0.02815,-1.83361 -0.03752,-2.74807 -3.473784,3.58738 -6.800518,7.31872 -10.328931,10.85306 -2.002608,-1.61632 -3.758213,-3.50933 -5.717046,-5.17569 -3.877022,3.4906 -7.122474,7.62366 -9.967709,11.98179 -1.3851,2.2213 -2.574782,4.55981 -3.7035,6.92023 -1.374157,2.86218 -2.348103,5.89164 -3.234503,8.93201 -0.395519,1.41938 -0.767589,2.84501 -1.047424,4.29251 -0.173527,0.86132 -0.200105,1.7414 -0.350182,2.6074 -1.5179805,0.0125 -3.0359595,0.0281 -4.5523775,-0.01 0.633143,-4.4926 1.60709,-8.95391 3.201673,-13.2089 1.0661805,-2.92627 2.3590455,-5.76659 3.8410685,-8.50528 0.967693,-1.79767 2.113605,-3.49215 3.237629,-5.19447 1.16936,-1.732 2.31371,-3.49371 3.725385,-5.04282 2.280877,-2.55268 4.669625,-5.01627 7.203763,-7.3204 0.592495,-0.5518 1.225641,-1.05983 1.90881,-1.49283 1.436688,1.32871 2.815532,2.71839 4.274109,4.02207 0.342367,0.28761 0.633147,0.67215 1.066182,0.82849 1.023971,-0.61747 1.743099,-1.61479 2.59198,-2.43858 3.386146,-3.49527 6.570619,-7.17969 9.989593,-10.64214 z"
       inkscape:connector-curvature="0" />
    <path
       id="path108"
       d="m 96.378338,180.45969 c -4.119598,0.0233 -8.235576,1.32446 -11.60648,3.69485 -3.670668,2.62616 -6.405071,6.4746 -7.871469,10.72804 -0.433038,1.26616 -0.614274,2.60576 -0.636161,3.93918 -0.107869,2.48077 -0.203327,5.03516 0.573648,7.4284 1.416362,4.44569 4.306971,8.41459 8.118332,11.10952 5.47473,3.88606 12.96466,4.64425 19.150702,2.07596 2.09017,-0.83787 3.94262,-2.15419 5.71543,-3.52197 0.65033,-0.53463 1.30392,-1.07397 1.8714,-1.6977 0.27984,-0.26415 0.24845,-0.66425 0.25626,-1.01597 -0.0187,-2.71056 -6e-5,-5.42105 -0.0111,-8.13162 -1.09277,-0.007 -2.18536,-0.007 -3.27656,0 -0.007,2.13845 -0.007,4.27672 0.004,6.41517 -0.01,0.23605 -0.002,0.47684 -0.0656,0.70663 -0.26733,0.40801 -0.70187,0.65976 -1.11616,0.89579 -0.10473,-0.47678 -0.24061,-0.95518 -0.22029,-1.44602 0.0374,-0.38455 0.24851,-0.72217 0.32197,-1.09889 -0.1079,-0.52524 -0.39396,-0.99117 -0.52369,-1.51016 -0.1845,-0.64557 -0.10013,-1.35668 -0.39872,-1.96945 -0.14851,-0.32671 -0.63779,-0.55189 -0.87386,-0.18455 -0.42054,0.75345 -0.42998,1.65067 -0.65196,2.46978 -0.55188,-0.80659 -0.83628,-1.78205 -1.51945,-2.49954 0.15791,0.95978 0.56116,1.8664 0.65495,2.84027 -0.77853,-0.4596 -1.05051,-1.59751 -2.02757,-1.70225 -0.18291,1.04733 0.55353,1.91342 0.74425,2.89822 0.12037,0.47207 0.0452,0.98639 -0.29084,1.35374 -0.81604,0.99264 -1.76965,1.88838 -2.840522,2.59965 -0.11256,-0.64561 -0.1079,-1.30229 -0.10947,-1.95413 -0.002,-3.64693 -0.005,-7.29388 0.002,-10.94077 4.843162,-0.004 9.687902,-0.004 14.531062,-0.002 -0.0251,0.85506 0.0967,1.72749 -0.0783,2.56849 -0.32987,0.3611 -0.84102,0.52359 -1.11616,0.93471 -0.0281,0.18601 0.0158,0.37362 0.0392,0.55964 0.72382,-0.26106 1.40535,-0.62207 2.09009,-0.97067 0.0156,-1.34278 0.008,-2.68569 0.004,-4.02847 -2.09013,-0.036 -4.18324,0.0625 -6.27028,-0.0624 0.21418,-1.29277 0.59242,-2.55422 1.00669,-3.79539 0.3236,-0.87851 0.60021,-1.83666 1.33967,-2.4682 0.77227,0.61591 1.37122,1.40834 1.95589,2.19618 0.28294,0.34076 0.57358,0.77063 1.04881,0.83784 0.6785,-0.0329 1.11625,-0.62521 1.55243,-1.07071 -0.67536,-2.03057 -1.52114,-3.99871 -2.31842,-5.9824 -0.53934,-1.27556 -1.02228,-2.57756 -1.63667,-3.81873 -0.87703,0.39079 -1.09437,1.42088 -1.83224,1.96329 -0.63472,0.51117 -1.38367,0.84416 -2.12468,1.1646 -1.10838,0.47678 -1.98834,1.35993 -2.66213,2.34319 -0.19385,0.22352 -0.35509,0.58011 -0.70213,0.55664 -1.69464,0.0501 -3.07026,-1.0677 -4.3256,-2.05878 -0.23763,-0.23291 -0.589402,-0.50028 -0.497172,-0.87699 0.293902,-0.53617 0.903672,-0.77224 1.436752,-1.00204 0.25639,0.53932 0.57997,1.08188 1.10837,1.39451 0.23293,0.12974 0.53146,0.28442 0.79096,0.12342 0.40335,-0.19071 0.59101,-0.63933 0.69731,-1.04575 0.20323,-0.89883 0.0643,-1.94618 -0.60342,-2.6246 -0.3189,-0.32826 -0.8363,-0.5394 -1.27873,-0.34714 -0.31892,0.21729 -0.44092,0.61292 -0.64257,0.92556 -0.30485,0.59557 -0.96624,0.8504 -1.510272,1.17398 0.005,-1.41937 -0.05,-2.84031 0.0376,-4.25656 0.359562,0.0157 0.727082,0.0251 1.069442,0.1532 1.64773,0.5815 3.20003,1.40822 4.66018,2.36333 1.06618,0.68311 2.05273,1.48976 3.1783,2.07595 0.1626,-0.2673 0.32205,-0.55028 0.35175,-0.86761 0.12976,-1.0661 0.0702,-2.143 0.0655,-3.21377 -0.73476,-0.47365 -1.45533,-0.97243 -2.20573,-1.42106 -2.14802,-1.35684 -4.62271,-2.08825 -7.088062,-2.61818 -1.13775,-0.19832 -2.29162,-0.29209 -3.4451,-0.28554 z m 0.92173,3.49885 c 0.19507,9.2e-4 0.39015,0.004 0.58488,0.0115 0.34236,0.0157 0.6753,0.0985 1.00829,0.18294 -1.15217,1.09893 -2.68433,1.67248 -3.94591,2.62759 0.77227,1.02701 1.73068,1.90087 2.4842,2.94195 0.24231,0.22198 0.0125,0.50174 -0.13283,0.70183 -0.85512,1.11455 -1.86044,2.10876 -2.67336,3.25614 -0.64722,0.80974 0.0798,1.78836 0.28923,2.62778 -0.24388,-0.007 -0.486147,-0.0139 -0.728455,-0.0233 -0.254826,-0.78941 -0.458132,-1.84619 -1.374238,-2.11349 -1.202197,-0.28763 -2.471686,-0.25786 -3.683262,-0.0421 -0.733194,0.12193 -1.219275,0.72992 -1.799266,1.13322 -0.511201,-0.85661 -0.862854,-1.79759 -1.394395,-2.64015 -0.30953,-0.53773 -1.003745,-0.8255 -1.591555,-0.60041 -0.830119,0.29076 -1.399172,1.03335 -1.804073,1.77899 -0.431472,0.76126 -0.420554,1.66169 -0.451817,2.50893 -0.0064,1.46628 -0.01568,2.9325 0.0062,4.39875 0.315793,-0.0515 0.631628,-0.10319 0.948976,-0.15477 0.07662,-1.83207 0.165816,-3.66405 0.139241,-5.49765 -0.02033,-0.90508 0.487624,-1.76163 1.275539,-2.19776 -0.192289,0.38611 -0.468944,0.72987 -0.611209,1.13942 -0.104747,0.50492 -0.08434,1.02539 -0.104648,1.53967 -0.02502,1.56629 -0.128166,3.13126 -0.08908,4.69756 0.311097,0.0141 0.622076,0.0344 0.93318,0.0514 0.200095,-1.73827 0.151788,-3.48911 0.150219,-5.23362 0.005,-0.50021 0.005,-1.1145 0.492357,-1.40525 0.303281,0.0171 0.379817,0.3533 0.520524,0.56902 0.268883,0.57525 0.601954,1.14265 0.706698,1.77573 -0.176658,0.52522 -0.554969,0.98479 -0.576861,1.56005 -0.09067,1.21304 -0.128214,2.49799 0.404883,3.62503 -0.823872,0.25792 -1.685203,0.35477 -2.523146,0.55642 -0.381432,0.10472 -0.809836,0.21279 -1.056837,0.54889 -0.06722,0.347 -0.01875,0.70338 0.0093,1.05354 0.242317,2.02899 0.400233,4.06588 0.614415,6.098 0.04221,0.39705 0.100026,0.80036 0.251663,1.1724 0.232936,0.0392 0.470604,0.003 0.705093,-0.0159 -0.03914,-2.31509 -0.459727,-4.60989 -0.473796,-6.92811 1.846276,0.45645 3.744271,0.65185 5.642145,0.73939 0.933296,-0.007 1.902383,-0.29856 2.599628,-0.93792 0.431452,-0.38297 0.487869,-0.98792 0.555088,-1.52409 1.095892,0.004 2.193269,-0.0311 3.289159,0.0346 -0.35487,0.57836 -0.8535,1.05966 -1.16928,1.66149 -0.12819,0.20633 -0.13607,0.61602 0.17817,0.64575 0.72694,0.13129 1.4694,0.12199 2.20573,0.15638 -0.0249,-0.28295 -0.0483,-0.56449 -0.0749,-0.84586 -0.31267,-0.0609 -0.6269,-0.11719 -0.938,-0.17814 0.29391,-0.54557 0.66441,-1.08959 1.21783,-1.39908 0.47994,-0.14538 0.99569,-0.064 1.49126,-0.0781 -0.003,4.34097 0.022,8.68194 -0.014,13.02289 -0.72694,0.0156 -1.45398,-0.0141 -2.1778,-0.0531 -0.66128,-0.01 -1.34444,-0.53476 -1.36164,-1.22411 0.12662,-0.52526 0.60666,-0.84082 0.95997,-1.20973 0.73945,-0.72845 1.62275,-1.49774 1.74157,-2.59666 0.11567,-1.47407 -0.30635,-3.0701 -1.41318,-4.10336 -1.1334,-1.08171 -2.782742,-1.41769 -4.303852,-1.33015 -1.086508,0.0781 -2.213692,0.29226 -3.121983,0.92691 -0.658159,0.46116 -1.203832,1.19752 -1.175699,2.03383 0.01408,0.84568 0.195466,1.6757 0.281445,2.51512 -0.523711,0.003 -1.089535,0.0796 -1.547593,-0.2315 0.350186,-0.16411 0.71125,-0.30321 1.070818,-0.44856 -0.173525,-0.62528 -0.411082,-1.32232 -1.016082,-1.65371 -0.653468,-0.1391 -1.280395,0.30149 -1.643085,0.81266 -0.459614,0.6831 -0.322071,1.55855 -0.226713,2.3292 0.06253,0.62841 0.422141,1.22712 1.011492,1.48815 0.961445,0.43301 2.06342,0.38463 3.078019,0.19235 0.606563,-0.1141 1.252222,-0.42202 1.497662,-1.02698 0.433046,-1.15521 0.09242,-2.41201 0.305044,-3.59845 0.05626,-0.42205 0.470342,-0.67061 0.875244,-0.63153 0.866071,0.0515 1.771273,0.22035 2.499774,0.71901 0.326729,0.22353 0.672239,0.74873 0.289231,1.08168 -0.798852,0.77692 -1.977601,0.98648 -2.787404,1.75401 -0.978637,0.83163 -1.328833,2.18832 -1.217842,3.42948 0.06097,0.82064 0.394004,1.58365 0.587855,2.37773 -1.908813,-0.43767 -3.534657,-1.61179 -5.032314,-2.82013 -1.028644,-0.84566 -1.982162,-1.7835 -2.809158,-2.8277 -1.144349,-1.41469 -1.879278,-3.10147 -2.559328,-4.77566 -0.687845,-1.65383 -0.911327,-3.4639 -0.862874,-5.24435 -0.03283,-1.7664 0.07036,-3.57662 0.712891,-5.2414 1.485146,-4.10493 4.375762,-7.83932 8.362214,-9.75578 2.613177,-1.34825 5.564288,-1.90792 8.490238,-1.88887 z m 1.46653,1.68256 c 0.0328,1.23961 0.15633,2.50256 -0.0813,3.72966 -0.90047,-0.60183 -1.54931,-1.48035 -2.25748,-2.28226 0.75508,-0.52054 1.51023,-1.04723 2.33878,-1.4474 z m 3.597162,1.43044 c 0.49733,0.0171 0.77637,0.60262 0.89263,1.04715 0.22201,0.60025 -0.10155,1.20524 -0.39226,1.71484 -1.10369,-0.29075 -1.45872,-1.93053 -0.72709,-2.73243 0.0802,-0.0229 0.15567,-0.0319 0.22672,-0.0296 z m 9.28464,1.441 c 0.63469,0.93635 1.01762,2.00718 1.45691,3.04201 0.63938,1.52724 1.15688,3.103 1.77908,4.63802 0.17353,0.38924 -0.42369,1.03788 -0.75043,0.60957 -0.77382,-0.90507 -1.46627,-1.88038 -2.27764,-2.7542 -0.28138,-0.28135 -0.58313,-0.60511 -1.00211,-0.64732 -0.52372,0.51585 -0.7207,1.25209 -1.01927,1.90237 -0.72851,1.8508 -1.50546,3.71118 -1.81186,5.68859 -2.7577,0.0187 -5.5154,0.008 -8.271552,0.007 0.005,-1.35216 -0.0329,-2.70586 0.0265,-4.05803 1.241262,-0.35015 2.549682,-0.36428 3.784702,-0.73321 0.51433,-0.11252 0.73953,-0.63153 0.98653,-1.03796 0.65347,-1.22554 1.37402,-2.43544 2.33858,-3.44525 0.91139,-0.94731 2.20588,-1.33649 3.30333,-2.00864 0.5456,-0.32514 0.9819,-0.79104 1.45715,-1.20215 z m -12.833492,2.02763 c -0.0266,0.2798 0.0329,0.58301 -0.0858,0.84561 -0.77853,1.15365 -1.98862,1.98214 -2.66398,3.20141 0.47057,1.55224 1.29771,2.97472 1.82768,4.50819 0.0985,0.28608 0.12039,0.59085 0.14541,0.89099 -0.22355,-0.22667 -0.43628,-0.46725 -0.58167,-0.75174 -0.76759,-1.45378 -1.38043,-2.9812 -2.12925,-4.44431 -0.12038,-0.21886 -0.17036,-0.49555 0.002,-0.70344 0.85827,-1.26463 1.95424,-2.34472 2.89848,-3.54215 0.19541,-0.002 0.39064,-0.003 0.58762,-0.004 z m 0.95839,1.03934 c 0.837932,0.45489 1.574402,1.07403 2.413892,1.52892 0.60971,0.33608 1.30993,0.42207 1.97903,0.58619 -0.0735,0.72845 -0.4456,1.55367 -1.2288,1.72561 -1.03181,0.23136 -2.08859,0.39093 -3.146952,0.41126 -0.0751,-1.41468 -0.0516,-2.83573 -0.0172,-4.25198 z m -1.01769,0.91616 c 0.0703,1.20836 0.0658,2.41809 0.0391,3.62799 -0.35487,0.0689 -0.70673,0.14696 -1.06005,0.21729 -0.34705,-0.52834 -0.76128,-1.07058 -0.80975,-1.72398 0.48932,-0.79723 1.17093,-1.46163 1.83064,-2.1213 z m -8.424049,2.24036 c 0.17299,9.2e-4 0.344735,0.005 0.510441,0.003 0.634712,0.0124 1.385197,-0.003 1.852631,0.5017 0.379878,0.52992 0.311084,1.22396 0.387688,1.83986 0.687869,0.0313 1.388309,-0.053 2.068349,0.0767 0.36269,0.20634 0.57531,0.58768 0.78479,0.9347 0.46587,0.84412 0.91145,1.71486 1.12875,2.66216 -1.9604,0.2079 -3.9396,0.0953 -5.899998,0.27981 0.07662,0.45332 0.24381,0.88934 0.286016,1.34892 -0.17821,0.49865 -0.717653,0.79106 -1.230423,0.79731 -1.152155,0.0281 -2.311927,0.0469 -3.454709,-0.11563 -0.877021,-0.1141 -1.78064,-0.17519 -2.598258,-0.53627 1.261602,-0.46114 2.704467,-0.30329 3.875395,-1.04735 -0.368946,-0.47677 -0.833174,-0.86589 -1.214625,-1.33017 -0.106291,-0.99261 -0.09069,-2.01193 -0.0093,-3.00769 0.609696,-0.74249 1.349021,-1.37392 2.069712,-2.00703 0.396306,-0.37045 0.924646,-0.40235 1.443624,-0.39978 z m 7.781469,2.3601 c 0.22668,0.004 0.45349,0.011 0.68174,0.0218 0.0219,0.63622 0.0297,1.27414 -0.0251,1.90881 -0.35331,-0.59089 -0.55672,-1.25369 -0.65677,-1.93056 z m 0.89586,3.2028 c -0.0281,0.11881 -0.083,0.35954 -0.11108,0.47835 -0.12037,0.31576 -0.53154,0.17362 -0.78478,0.23928 0.18134,-0.36735 0.44718,-0.70981 0.89586,-0.71763 z m -7.167751,5.06943 c 0.188049,9.2e-4 0.375597,0.004 0.559685,0.003 0.877012,0.0219 1.808793,-0.05 2.617016,0.35492 1.13342,0.55181 1.83676,1.74454 2.04155,2.95913 0.0766,0.6159 0.0923,1.30664 -0.29541,1.83186 -0.60812,0.84413 -1.48679,1.44761 -2.11367,2.2761 -0.587824,0.77689 -0.411104,2.03685 0.40807,2.58083 0.50183,0.34391 1.13192,0.36743 1.71659,0.42684 1.04116,0.0673 2.09631,0.0937 3.13435,-0.0563 0.800412,-0.10001 1.313322,-0.79255 1.873012,-1.29901 0.91141,-0.96917 1.97438,-1.85709 2.5309,-3.09516 0.41116,0.13131 0.82075,0.26587 1.23503,0.39249 0.14383,-0.37674 0.28619,-0.75349 0.45503,-1.11927 0.27357,0.80815 0.37966,1.67572 0.28901,2.52453 -0.31736,0.32046 -0.77055,0.4814 -1.05663,0.83623 -0.30173,0.36892 -0.39866,0.84885 -0.63158,1.25527 -0.82075,0.47366 -1.72437,0.79095 -2.59826,1.15363 -1.23658,0.50178 -2.554612,0.72062 -3.856842,0.97386 -0.76602,0.0986 -1.53988,0.0297 -2.30903,0.0499 -0.63626,-0.0156 -1.296,0.072 -1.911941,-0.13281 -1.01458,-0.32046 -1.888407,-1.07702 -2.315189,-2.05558 -0.553422,-1.19895 -0.364187,-2.72001 0.508158,-3.71887 0.692538,-0.78473 1.750745,-1.0458 2.573052,-1.65077 0.61281,-0.44393 0.81448,-1.31603 0.5409,-2.00541 -0.23919,-0.71748 -0.942484,-1.15369 -1.64286,-1.32876 -0.942675,-0.23603 -1.944771,-0.28607 -2.895264,-0.0719 -0.30172,0.0345 -0.476975,0.30785 -0.556701,0.57361 -0.353311,1.24272 -0.178137,2.54802 -0.267246,3.81735 0,0.42361 -0.392404,0.68636 -0.758228,0.78954 -0.761335,0.23135 -1.569533,0.15938 -2.352752,0.15157 -0.731637,0.0125 -1.400807,-0.66761 -1.400807,-1.39449 -0.0094,-0.5862 -0.07189,-1.24896 0.29862,-1.74761 0.281397,-0.36733 0.784915,-0.26881 1.186687,-0.26881 -0.289212,0.42362 -0.994326,0.727 -0.831739,1.33038 0.143826,0.63153 0.770744,0.99875 1.380425,1.05034 0.544039,0.0735 1.288122,0.0125 1.513241,-0.58458 0.176646,-0.75816 0.01719,-1.5381 -0.06412,-2.29623 0.0516,-0.89259 0.545518,-1.78688 1.367823,-2.18862 0.495964,-0.29311 1.065004,-0.31971 1.629116,-0.31736 z"
       style="display:inline;fill:#000000;stroke-width:0.1563251;enable-background:new"
       inkscape:connector-curvature="0" />
    <path
       style="display:inline;fill:#000000;stroke-width:0.1563251;enable-background:new"
       id="path134"
       d="m 51.393372,237.23549 c 0.240754,-0.72373 1.155292,-1.32244 1.872852,-0.85973 0.809802,0.51273 1.325697,1.35685 1.858789,2.13061 -0.329858,0.30951 -0.676918,0.60339 -1.048987,0.86131 -0.01875,-0.52991 0.05002,-1.06295 -0.01559,-1.58976 -0.142263,-0.47676 -0.642521,-0.68154 -1.045854,-0.88943 -0.520597,0.94882 0.04216,2.01338 -0.03595,3.0216 0.03283,0.93792 -0.980206,1.89303 -1.916632,1.50379 -0.975507,-0.46114 -1.619594,-1.38498 -2.216784,-2.24628 0.3752,-0.37672 0.775403,-0.73158 1.22877,-1.00981 -0.09225,0.65653 -0.411156,1.41936 0.03282,2.01806 0.287646,0.4877 1.210003,0.57055 1.408544,-0.0329 0.250134,-0.96759 -0.428347,-1.94458 -0.121938,-2.90752 z"
       inkscape:connector-curvature="0" />
    <path
       style="display:inline;fill:#000000;stroke-width:0.1563251;enable-background:new"
       id="path136"
       d="m 32.674222,238.97688 c 0.325168,-1.00042 1.372589,-1.6132 2.382494,-1.68198 0.880147,-0.0124 1.725903,0.43145 2.284004,1.10049 0.730071,0.83004 0.947372,1.94614 1.428871,2.91375 -0.453359,0.30328 -0.939554,0.55808 -1.463263,0.7222 0.18916,-0.79566 0.825432,-1.67573 0.272017,-2.46669 -0.678479,-1.27243 -2.546644,-1.18645 -3.481506,-0.25636 -0.812927,0.65808 -1.097449,2.01649 -0.267329,2.77932 0.5284,0.0907 0.937987,-0.3392 1.336637,-0.61589 -0.01875,-0.32827 -0.03443,-0.65653 -0.0391,-0.98325 0.712871,0.7097 1.05055,1.67887 1.455452,2.57615 -0.465874,0.0124 -0.956751,-0.0359 -1.389792,0.1735 -0.295464,0.0939 -0.636272,0.34079 -0.930177,0.10791 -0.556532,-0.39393 -0.933296,-0.99107 -1.245962,-1.58509 -0.408023,-0.85193 -0.669094,-1.86175 -0.342364,-2.78402 z"
       inkscape:connector-curvature="0" />
    <path
       style="display:inline;fill:#000000;stroke-width:0.1563251;enable-background:new"
       id="path138"
       d="m 76.187586,237.26519 c 1.908809,1.61322 3.720695,3.3374 5.5826,5.00532 6.93331,6.30276 13.835352,12.63835 20.770244,18.93953 1.25845,1.10361 2.44814,2.28695 3.74571,3.34366 0.0563,-9.0946 0.0141,-18.18922 0.0313,-27.28381 1.50859,-0.007 3.01875,-0.004 4.52736,-0.002 -0.002,12.36635 0.0186,24.7327 -0.011,37.09748 -1.92132,-1.56789 -3.70973,-3.29676 -5.56697,-4.93967 -6.997412,-6.34027 -13.954173,-12.72432 -20.932815,-19.0849 -1.208452,-1.08175 -2.362167,-2.22755 -3.617521,-3.25613 -0.04845,14.33283 -0.03126,28.66724 -0.0469,43.00162 -1.491399,0.34702 -3.000001,0.64559 -4.527357,0.78002 0,-16.45874 0,-32.91906 0,-49.3794 0.01408,-1.40842 -0.03914,-2.81684 0.04533,-4.22215 z"
       inkscape:connector-curvature="0" />
    <path
       style="display:inline;fill:#000000;stroke-width:0.1563251;enable-background:new"
       id="path140"
       d="m 116.79161,237.26989 c 1.45702,-0.007 2.91402,-0.007 4.37101,0 0.01,7.92223 -0.007,15.84598 0.008,23.7682 0.0563,0.83945 -0.54246,1.49911 -0.94111,2.17753 -1.06304,1.57099 -2.08076,3.20139 -3.41741,4.55824 -0.0531,-10.16851 -0.0111,-20.33702 -0.0203,-30.50397 z"
       inkscape:connector-curvature="0" />
    <path
       id="path142"
       d="m 21.990413,239.08778 c -0.223556,0.3861 -0.225107,1.00207 -0.730054,1.13964 -0.973949,0.32202 -1.977576,0.56586 -2.984351,0.76595 -0.526836,0.16726 -0.822251,-0.39239 -1.197449,-0.65031 0.132883,1.23647 0.559568,2.41831 0.951962,3.59227 0.267323,0.71281 0.802125,1.57717 1.674458,1.51152 0.751953,-0.0781 1.16305,-0.80342 1.350649,-1.45839 0.334553,0.24073 0.681614,0.60803 1.136535,0.48453 0.64878,-0.10626 1.011482,-0.78301 0.920813,-1.40047 -0.126625,-1.37717 -0.456588,-2.76389 -1.122563,-3.98474 z m 0.389303,2.35415 c 0.121938,0.41737 0.27197,0.91619 -0.01098,1.30544 -0.215739,0.34078 -0.684713,0.40012 -1.036458,0.25944 -0.395517,-0.20165 -0.487693,-0.66447 -0.601817,-1.05058 0.522149,-0.25169 1.083345,-0.40174 1.649271,-0.5143 z m -2.074522,0.66452 c 0.101614,0.40798 0.281469,0.8674 0.03916,1.26443 -0.332983,0.71283 -1.502362,0.89261 -1.93071,0.18136 -0.167278,-0.25324 -0.361143,-0.68624 -0.05473,-0.91136 0.558105,-0.40641 1.275623,-0.49067 1.946285,-0.53443 z"
       style="display:inline;fill:#000000;stroke-width:0.1563251;enable-background:new"
       inkscape:connector-curvature="0" />
    <path
       style="display:inline;fill:#000000;stroke-width:0.1563251;enable-background:new"
       id="path144"
       d="m 56.012977,239.32391 c 1.346016,1.27087 2.654518,2.58081 3.953627,3.90016 -0.306408,0.3814 -0.640958,0.73938 -1.030222,1.03794 0.02497,-0.34077 0.09224,-0.67687 0.08286,-1.01763 -0.146958,-0.44082 -0.537778,-0.73782 -0.834809,-1.07547 -0.980201,0.94416 -1.969778,1.88521 -2.853051,2.92315 0.06253,0.31889 0.132877,0.63777 0.195411,0.95979 -0.892658,-0.62368 -1.671188,-1.40842 -2.288697,-2.30413 0.315786,0.0578 0.630014,0.19697 0.95831,0.16415 0.350186,-0.13132 0.622202,-0.40331 0.887968,-0.65811 0.701929,-0.71282 1.364777,-1.46628 2.01824,-2.22442 -0.325173,-0.26105 -0.628455,-0.57369 -1.023974,-0.72531 -0.386134,-0.0251 -0.767591,0.0781 -1.150597,0.11254 0.303281,-0.41893 0.686286,-0.76908 1.084937,-1.09266 z"
       inkscape:connector-curvature="0" />
    <path
       style="display:inline;fill:#000000;stroke-width:0.1563251;enable-background:new"
       id="path150"
       d="m 39.604406,242.73321 c 0.959874,1.33811 1.940073,2.66524 2.785829,4.08146 -0.307975,0.23605 -0.622202,0.4627 -0.950499,0.67219 0.03593,-0.42518 0.253261,-0.89884 -0.02032,-1.28807 -0.254819,-0.40799 -0.500261,-0.89256 -0.941121,-1.11923 -0.551846,0.15789 -0.973947,0.5768 -1.421055,0.91758 0.245447,0.38297 0.450237,0.80817 0.791041,1.11923 0.268895,0.14695 0.584683,0.17196 0.877025,0.25949 -0.354877,0.42988 -0.805112,0.76128 -1.289744,1.03015 0.03282,-0.79722 -0.325162,-1.50846 -0.811356,-2.11344 -0.528403,0.32515 -1.03179,0.68781 -1.477336,1.11925 0.332988,0.50491 0.625327,1.08173 1.138098,1.43032 0.383008,0.15631 0.797291,0.23292 1.18499,0.37986 -0.350184,0.25948 -0.71444,0.53305 -1.152164,0.61746 -0.414282,-0.29544 -0.66285,-0.75346 -0.958309,-1.15521 -0.661288,-0.98324 -1.427312,-1.91021 -1.904125,-3.00443 0.317354,0.10165 0.617516,0.27669 0.955185,0.31107 0.656596,-0.29075 1.214697,-0.7597 1.805634,-1.15985 0.436167,-0.33454 0.930169,-0.62061 1.266285,-1.06611 0.08443,-0.33766 0.08599,-0.68782 0.121939,-1.03172 z"
       inkscape:connector-curvature="0" />
    <path
       style="display:inline;fill:#000000;stroke-width:0.1563251;enable-background:new"
       id="path152"
       d="m 24.329234,245.78456 c 0.869204,1.38183 1.385096,2.94973 1.958839,4.46913 -0.348624,0.18758 -0.723819,0.32046 -1.109956,0.4033 0.09536,-0.29856 0.234496,-0.58463 0.290776,-0.89257 -0.05941,-0.6237 -0.365816,-1.18803 -0.620635,-1.74919 -0.53622,0.21727 -1.184996,0.36734 -1.536745,0.85816 -0.08286,0.7738 0.634711,1.28808 1.239709,1.60228 -0.468993,0.3611 -1.025531,0.57213 -1.593016,0.72375 0.0641,-0.36579 0.196977,-0.73156 0.15477,-1.10516 -0.07816,-0.40488 -0.273582,-0.77223 -0.447111,-1.13956 -0.579991,0.18289 -1.127152,0.45644 -1.610214,0.82691 0.243874,0.67217 0.409586,1.55069 1.139657,1.86333 0.179782,0.12192 0.536219,0.14224 0.464303,0.43923 -0.345494,0.14851 -0.71131,0.24544 -1.072434,0.35172 -0.694115,-1.56473 -1.472647,-3.11542 -1.890053,-4.78334 0.286085,0.18602 0.554978,0.39705 0.825432,0.60809 1.124029,-0.40488 2.238673,-0.85507 3.303292,-1.39906 0.447106,-0.16726 0.397082,-0.69876 0.503386,-1.07702 z"
       inkscape:connector-curvature="0" />
    <path
       style="display:inline;fill:#000000;stroke-width:0.1563251;enable-background:new"
       id="path154"
       d="m 57.432475,246.53017 c 0.448662,-0.0829 0.944241,0.2845 1.009899,0.74096 -0.08599,0.52836 -0.81136,0.93793 -1.214696,0.46584 -0.440855,-0.3189 -0.348626,-1.07704 0.204797,-1.2068 z"
       inkscape:connector-curvature="0" />
    <path
       id="path156"
       d="m 43.462051,249.34525 c -0.182546,-0.007 -0.366401,0.008 -0.5496,0.0439 -1.356967,0.2626 -2.479488,1.69764 -2.140248,3.09354 0.284522,1.14892 1.191357,2.06343 2.187187,2.64336 1.55863,0.80504 3.639273,-0.35484 3.855012,-2.07435 0.203233,-1.07858 -0.489383,-2.03526 -1.238207,-2.72465 -0.558885,-0.55503 -1.323114,-0.95526 -2.114144,-0.98186 z m 0.841349,0.87518 c 0.676848,-0.003 1.341613,0.47744 1.463547,1.16966 0.136011,0.85191 -0.368967,1.65551 -0.930202,2.25108 -0.475247,0.49241 -1.120817,0.91586 -1.836817,0.83145 -0.723821,-0.0187 -1.189642,-0.75813 -1.242795,-1.41465 0.143826,-1.18958 0.939529,-2.33687 2.082314,-2.75579 0.150958,-0.0553 0.30776,-0.0813 0.463953,-0.0818 z"
       style="display:inline;fill:#000000;stroke-width:0.1563251;enable-background:new"
       inkscape:connector-curvature="0" />
    <path
       style="display:inline;fill:#000000;stroke-width:0.1563251;enable-background:new"
       id="path160"
       d="m 27.435544,251.61682 c 0.41428,0.47048 0.805107,0.97851 1.047426,1.56315 0.109436,0.24385 -0.01721,0.50647 -0.06721,0.75033 -0.37207,1.26149 -0.780097,2.51517 -1.05993,3.80323 0.969256,-0.51428 2.171447,-0.96292 2.512249,-2.12124 0.434602,0.50177 0.758211,1.08642 0.961442,1.71795 -0.359563,-0.0829 -0.733197,-0.3783 -1.10683,-0.19854 -1.356961,0.60652 -2.504434,1.64289 -3.953632,2.04933 -0.100037,-0.84725 0.198545,-1.65697 0.41897,-2.45888 0.298592,-1.07233 0.63002,-2.13688 0.834816,-3.23266 -0.867641,0.39859 -1.699326,0.8832 -2.463791,1.45374 -0.331417,0.23294 -0.261072,0.69407 -0.367376,1.04109 -0.517457,-0.50491 -0.875456,-1.14269 -1.102141,-1.82423 0.372069,0.10002 0.772278,0.38923 1.152168,0.15631 0.92548,-0.45645 1.82126,-0.98325 2.687334,-1.54286 0.429917,-0.2251 0.414282,-0.74563 0.506519,-1.15672 z"
       inkscape:connector-curvature="0" />
    <path
       id="path162"
       d="m 48.477864,253.65515 c 0.136012,0.37358 0.620595,0.74872 0.34076,1.1614 -0.539346,0.89416 -1.167895,1.73835 -1.81667,2.55591 -0.292337,0.42675 -0.858121,0.33282 -1.302103,0.4188 0.734757,0.75502 1.606905,1.39294 2.580848,1.80093 -0.09536,-0.30169 -0.250057,-0.59083 -0.276632,-0.90813 0.114119,-0.48771 0.451947,-0.89116 0.817763,-1.21475 0.0422,0.0234 0.128163,0.0703 0.170376,0.0939 0.311101,0.93477 0.140678,1.96958 0.522125,2.88562 0.329864,0.71595 1.050435,1.1426 1.76331,1.40366 -0.22199,-0.47366 -0.543934,-0.92072 -0.600214,-1.4522 -0.07348,-0.64872 -0.07191,-1.30358 -0.02655,-1.9523 0.461176,-0.008 0.980153,0.0328 1.36004,-0.28143 0.415838,-0.33607 0.700309,-0.93334 0.484564,-1.457 -0.270453,-0.62996 -0.830062,-1.0659 -1.350651,-1.48013 -0.833243,-0.60966 -1.661736,-1.2757 -2.666951,-1.57427 z m 2.132235,1.50532 c 0.307975,0.42831 0.775558,0.88166 0.664564,1.46161 -0.125067,0.40799 -0.43167,0.76753 -0.81937,0.9473 -0.520582,0.1033 -0.975478,-0.25485 -1.414766,-0.47056 0.422096,-0.71908 0.886404,-1.43967 1.569572,-1.93835 z"
       style="display:inline;fill:#000000;stroke-width:0.1563251;enable-background:new"
       inkscape:connector-curvature="0" />
    <path
       style="display:inline;fill:#000000;stroke-width:0.1563251;enable-background:new"
       id="path166"
       d="m 30.923304,260.08612 c 0.0297,-0.87383 1.128714,-1.55225 1.896304,-1.07861 0.809797,0.48773 1.327259,1.31621 1.90412,2.04309 -0.332985,0.35328 -0.689423,0.68312 -1.08807,0.95981 -0.129753,-0.73627 0.279833,-1.76328 -0.48306,-2.24162 -0.236063,-0.20322 -0.53622,-0.0689 -0.800419,-0.0251 -0.01405,1.11298 0.307971,2.23691 0.03443,3.34052 -0.178223,0.866 -1.350712,1.26462 -2.062017,0.77848 -0.814488,-0.55963 -1.391354,-1.38969 -1.955713,-2.18536 0.372071,-0.3736 0.762899,-0.73155 1.205319,-1.02075 -0.0391,0.43925 -0.13132,0.87381 -0.159454,1.31621 -0.06567,0.55961 0.373629,1.11767 0.922352,1.21459 0.392397,-0.0312 0.734759,-0.37205 0.750395,-0.76753 0.03443,-0.78316 -0.247003,-1.55067 -0.164152,-2.33384 z"
       inkscape:connector-curvature="0" />
    <path
       style="display:inline;fill:#000000;stroke-width:0.1563251;enable-background:new"
       id="path168"
       d="m 55.325116,259.26857 c 0.786352,-0.35642 1.710278,-0.28606 2.484117,0.0703 0.820735,0.37515 1.500785,0.98793 2.298072,1.40687 -0.182905,0.54241 -0.453357,1.0567 -0.853571,1.47408 -0.167276,-0.65341 -0.146953,-1.42407 -0.676918,-1.91961 -0.598748,-0.65183 -1.700884,-0.72374 -2.380936,-0.15474 -0.751946,0.60808 -1.230327,1.60069 -1.142777,2.57456 0.15164,0.62997 0.626893,1.23025 1.261597,1.42251 0.434597,0.10791 0.708181,-0.33921 0.834811,-0.68468 0.211047,-0.50179 -0.229806,-0.93947 -0.412714,-1.37248 0.94268,0.32826 1.840019,0.79409 2.621686,1.4178 -0.229809,0.12975 -0.469,0.24388 -0.680045,0.40175 -0.389266,0.30325 -0.53779,0.80816 -0.897344,1.13799 -0.881717,-0.0437 -1.735287,-0.37828 -2.487241,-0.82847 -0.826994,-0.52209 -1.546123,-1.38342 -1.553944,-2.40262 -0.06566,-1.06923 0.601884,-2.12751 1.585207,-2.5433 z"
       inkscape:connector-curvature="0" />
    <path
       style="display:inline;fill:#000000;stroke-width:0.1563251;enable-background:new"
       id="path170"
       d="m 36.463698,262.4903 c 0.766026,0.55337 1.477335,1.18802 2.047949,1.94461 -0.257952,-0.01 -0.517463,-0.0454 -0.776971,-0.0235 -0.467428,0.26573 -0.800416,0.70653 -1.183429,1.07231 0.544032,0.5909 1.091194,1.2068 1.783742,1.62574 0.303285,0.004 0.498697,-0.32203 0.690988,-0.52211 0.359564,-0.39236 0.351746,-0.94417 0.408027,-1.43815 0.769153,0.53932 1.417928,1.22086 2.024493,1.93368 -0.400207,0.0469 -0.886399,-0.0515 -1.180303,0.29544 -0.703494,0.70498 -1.422619,1.40844 -2.024499,2.20409 -0.289206,0.33923 -0.142257,0.79879 -0.142257,1.19897 -0.808242,-0.46427 -1.536742,-1.0786 -2.069835,-1.84612 0.368946,-0.0969 0.789472,-0.0907 1.103703,-0.33452 0.336112,-0.27044 0.595623,-0.61903 0.869211,-0.9473 -0.578431,-0.55336 -1.08651,-1.19273 -1.760301,-1.63198 -0.781656,0.3486 -1.378848,1.22555 -1.109958,2.10249 -0.836375,-0.47521 -1.522667,-1.15988 -2.147994,-1.87895 0.392391,-0.0735 0.845754,-0.0312 1.166233,-0.3142 0.478374,-0.40017 0.869204,-0.89102 1.300679,-1.33964 0.315794,-0.35952 0.675354,-0.70342 0.866078,-1.15049 0.08754,-0.30952 0.09224,-0.63467 0.134444,-0.95043 z"
       inkscape:connector-curvature="0" />
    <path
       style="display:inline;fill:#000000;stroke-width:0.1563251;enable-background:new"
       id="path172"
       d="m 42.656004,267.42997 c 1.446062,0.76439 2.835848,1.63038 4.194373,2.53859 -0.12819,0.37674 -0.306412,0.73471 -0.526838,1.06923 -0.150077,-0.34391 -0.192287,-0.74408 -0.433038,-1.03952 -0.417403,-0.3861 -0.94112,-0.62684 -1.441381,-0.88319 -0.343928,0.48927 -0.650336,1.00356 -0.889525,1.55224 0.339242,0.22196 0.664408,0.49081 1.058363,0.61431 0.326737,0.0515 0.653468,-0.0313 0.978638,-0.0515 -0.145386,0.5643 -0.434601,1.07545 -0.845753,1.48971 -0.200104,-0.71594 -0.761338,-1.44908 -1.538304,-1.50377 -0.359563,0.40798 -0.640958,0.88475 -0.852009,1.38651 0.32986,0.47679 0.903599,0.71439 1.413239,0.95356 0.483065,0.24386 0.975511,-0.1188 1.457012,-0.1907 -0.217302,0.43614 -0.508078,0.82849 -0.825432,1.19739 -1.449193,-0.89413 -3.009385,-1.64759 -4.303811,-2.76527 0.342369,-0.004 0.683169,0.002 1.025536,0.008 0.50652,-0.8019 1.002089,-1.61006 1.469517,-2.43385 0.161025,-0.3142 0.350187,-0.63155 0.387706,-0.98952 -0.06722,-0.32984 -0.221994,-0.63466 -0.328293,-0.95197 z"
       inkscape:connector-curvature="0" />
    <path
       style="display:inline;fill:#000000;stroke-width:0.1563251;enable-background:new"
       id="path174"
       d="m 48.949914,270.87679 c 0.895779,0.40172 1.807186,0.79721 2.601356,1.38496 -0.375197,0.16568 -0.853573,0.23916 -1.053676,0.6456 -0.503386,0.88164 -0.961442,1.79922 -1.314751,2.75122 -0.189157,0.38609 0.07974,0.76126 0.203233,1.12081 -0.916099,-0.23762 -1.757168,-0.69094 -2.531012,-1.22399 0.412721,-0.20165 0.873895,-0.39079 1.103703,-0.81756 0.48463,-0.80659 0.869207,-1.67572 1.191247,-2.55736 0.179783,-0.44238 -0.09067,-0.88165 -0.2001,-1.30368 z"
       inkscape:connector-curvature="0" />
    <path
       style="display:inline;fill:#000000;stroke-width:0.1563251;enable-background:new"
       id="path176"
       d="m 53.641429,272.87453 c 0.559664,0.13911 1.149036,0.24385 1.646171,0.55492 0.184474,0.11254 0.179783,0.36579 0.232932,0.55649 0.159464,0.96605 0.1407,1.96338 0.433043,2.90755 0.748826,-0.85665 1.50704,-1.70389 2.271497,-2.54488 0.648778,0.16882 1.289735,0.38767 1.865036,0.74252 -0.293902,0.17976 -0.690983,0.30637 -0.769152,0.69093 -0.315787,0.98325 -0.506513,2.00242 -0.748831,3.006 -0.153202,0.45175 0.215741,0.82534 0.387709,1.20989 -0.963006,-0.10626 -1.891615,-0.433 -2.729554,-0.91603 0.347056,-0.20008 0.883275,-0.24074 0.99114,-0.69719 0.300153,-0.88476 0.517464,-1.80076 0.640961,-2.72616 -1.166233,0.89413 -1.921312,2.21812 -3.118817,3.08413 -0.322042,-1.37403 -0.282957,-2.79963 -0.595624,-4.17368 -0.492442,0.75659 -0.794165,1.61789 -1.072433,2.47296 -0.165713,0.39235 0.115686,0.75655 0.247003,1.11297 -0.564359,-0.0781 -1.11621,-0.22511 -1.636798,-0.45488 1.028665,-0.71592 1.300685,-1.99461 1.783751,-3.07322 0.268881,-0.55023 0.290778,-1.16144 0.171966,-1.75232 z"
       inkscape:connector-curvature="0" />
  </g>
</svg>
