<?xml version="1.0" encoding="UTF-8" standalone="no"?>
<!-- Created with Inkscape (http://www.inkscape.org/) -->

<svg
   xmlns:dc="http://purl.org/dc/elements/1.1/"
   xmlns:cc="http://creativecommons.org/ns#"
   xmlns:rdf="http://www.w3.org/1999/02/22-rdf-syntax-ns#"
   xmlns:svg="http://www.w3.org/2000/svg"
   xmlns="http://www.w3.org/2000/svg"
   xmlns:sodipodi="http://sodipodi.sourceforge.net/DTD/sodipodi-0.dtd"
   xmlns:inkscape="http://www.inkscape.org/namespaces/inkscape"
   width="1000"
   height="1000"
   viewBox="0 0 264.58333 264.58334"
   version="1.1"
   id="svg15033"
   inkscape:version="0.92.2 (5c3e80d, 2017-08-06)"
   sodipodi:docname="minilogo.svg"
   inkscape:export-filename="C:\Users\TomHerbers\Cloud-Minis\Oberrunde\Minilogo\minilogo_1024px.png"
   inkscape:export-xdpi="98.300003"
   inkscape:export-ydpi="98.300003">
  <title
     id="title19638">Minilogo</title>
  <defs
     id="defs15027" />
  <sodipodi:namedview
     id="base"
     pagecolor="#ffffff"
     bordercolor="#666666"
     borderopacity="1.0"
     inkscape:pageopacity="0.0"
     inkscape:pageshadow="2"
     inkscape:zoom="0.7"
     inkscape:cx="474.28571"
     inkscape:cy="465.9393"
     inkscape:document-units="px"
     inkscape:current-layer="layer1"
     showgrid="false"
     units="px"
     inkscape:pagecheckerboard="true"
     inkscape:window-width="1920"
     inkscape:window-height="1017"
     inkscape:window-x="-8"
     inkscape:window-y="-8"
     inkscape:window-maximized="1" />
  <metadata
     id="metadata15030">
    <rdf:RDF>
      <cc:Work
         rdf:about="">
        <dc:format>image/svg+xml</dc:format>
        <dc:type
           rdf:resource="http://purl.org/dc/dcmitype/StillImage" />
        <dc:title>Minilogo</dc:title>
        <dc:creator>
          <cc:Agent>
            <dc:title>Ministranten Sankt Georg Bensheim</dc:title>
          </cc:Agent>
        </dc:creator>
        <dc:source>https://www.ministranten-sankt-ge.org/</dc:source>
        <dc:publisher>
          <cc:Agent>
            <dc:title>Ministranten Sankt Georg Bensheim</dc:title>
          </cc:Agent>
        </dc:publisher>
        <cc:license
           rdf:resource="" />
        <dc:description />
      </cc:Work>
    </rdf:RDF>
  </metadata>
  <g
     inkscape:label="logo"
     inkscape:groupmode="layer"
     id="layer1"
     transform="translate(0,-32.416659)"
     style="display:inline">
    <path
       id="path100"
       d="m 127.66437,32.682264 c -0.006,42.455404 0.0107,84.914016 -0.0107,127.369426 -42.455718,0.0265 -84.914994,-0.006 -127.37402496,0.0199 0,4.19524 -0.0430828,8.39069 0.0164775,12.58592 0.61544476,8.5394 2.22387196,16.97615 4.06027876,25.32694 1.3698608,6.38883 3.7423489,12.50299 6.3397897,18.47493 8.940486,20.89023 23.237629,39.54733 41.409786,53.24143 9.320994,7.00421 19.499309,12.89007 30.269576,17.36653 5.171719,2.12077 10.445779,4.03665 15.892142,5.31373 7.153685,1.71055 14.393365,3.09972 21.719095,3.80112 5.60186,0.89663 11.28689,0.40739 16.93181,0.51324 0.0265,-42.45208 -0.007,-84.90762 0.0193,-127.35971 42.45903,-0.0199 84.92179,-0.003 127.38085,-0.0107 v -9.26365 c -42.46238,-0.006 -84.92182,0.0107 -127.38085,-0.0107 -0.0198,-42.45542 -0.003,-84.914034 -0.0107,-127.369439 z M 9.7869326,169.31242 c 39.2924764,0.0365 78.5819584,-0.003 117.8711174,0.0199 0.0199,39.2891 -0.006,78.57815 0.0131,117.86395 -1.99523,0.27791 -3.99373,-0.096 -5.99227,-0.1323 -7.52759,-0.59224 -14.94963,-2.15716 -22.212524,-4.17869 -21.222892,-5.77343 -40.675304,-17.61139 -55.902594,-33.43952 -4.225386,-4.43017 -8.13315,-9.16486 -11.607428,-14.2071 -3.437887,-4.9562 -6.356191,-10.24642 -9.254736,-15.53018 -2.097808,-3.80814 -4.010557,-7.73197 -5.373799,-11.86768 -2.521335,-7.32845 -4.539619,-14.83252 -6.008746,-22.43889 -0.87022,-4.5691 -1.293713,-9.20765 -1.6973928,-13.83631 -0.05956,-0.75765 0.03623,-1.51204 0.1652814,-2.25315 z"
       style="display:inline;fill:#000000;stroke-width:0.33087009;enable-background:new"
       inkscape:connector-curvature="0" />
    <path
       style="display:inline;fill:#000000;stroke-width:0.33087009;enable-background:new"
       id="path104"
       d="m 105.9056,35.127287 c 3.03421,-0.615391 6.08497,-1.14476 9.16548,-1.465691 0.0397,37.939225 0.0167,75.881754 0.0132,113.820984 -3.19304,0.0132 -6.38936,0.0132 -9.5824,0 0.0265,-32.42057 -0.1125,-64.844412 0.13233,-97.264963 0.0927,-5.029008 0.0167,-10.064632 0.27134,-15.09033 z"
       inkscape:connector-curvature="0" />
    <path
       style="display:inline;fill:#000000;stroke-width:0.33087009;enable-background:new"
       id="path106"
       d="m 88.104034,43.749387 c 1.674276,-1.664204 3.265825,-3.424357 5.118785,-4.893355 0.0595,36.212156 0.0133,72.420998 0.0298,108.633158 -3.196341,0 -6.392676,0.006 -9.589021,-0.006 -0.01658,-26.57433 -0.003,-53.151962 -0.006,-79.729604 -0.01328,-1.938815 0.05954,-3.880939 -0.07942,-5.816442 C 76.225722,69.529647 69.184519,77.427175 61.716451,84.907822 57.477824,81.486774 53.762002,77.480113 49.616028,73.953188 41.410109,81.341194 34.54095,90.089021 28.51886,99.313274 c -2.931633,4.701466 -5.449659,9.651056 -7.838645,14.646986 -2.908476,6.05798 -4.969883,12.46995 -6.845997,18.90507 -0.837136,3.00418 -1.624639,6.02159 -2.216922,9.08532 -0.367282,1.82299 -0.423531,3.68573 -0.741177,5.51868 -3.2128876,0.0266 -6.4257707,0.0595 -9.6353461,-0.0198 1.3400607,-9.50881 3.4014694,-18.95142 6.7764878,-27.95732 2.2566283,-6.19361 4.9930393,-12.20526 8.1298203,-18.00185 2.048172,-3.804846 4.473551,-7.391309 6.852609,-10.994333 2.475012,-3.665891 4.897086,-7.394631 7.884968,-10.673413 4.827589,-5.402869 9.883502,-10.617156 15.247134,-15.493973 1.254048,-1.167921 2.59413,-2.243196 4.040095,-3.159667 3.040828,2.812269 5.95922,5.753579 9.046373,8.512917 0.724637,0.608772 1.340084,1.422678 2.256628,1.753536 2.167287,-1.306886 3.689356,-3.417742 5.486059,-5.161352 7.166944,-7.397937 13.907048,-15.196202 21.143479,-22.524657 z"
       inkscape:connector-curvature="0" />
    <path
       id="path108"
       d="m 192.33362,61.994008 c -8.71936,0.0495 -17.43103,2.803256 -24.56573,7.820342 -7.76915,5.558383 -13.55665,13.703842 -16.66036,22.706432 -0.91655,2.67993 -1.30015,5.515244 -1.34648,8.337478 -0.22831,5.25066 -0.43035,10.65718 1.21418,15.72257 2.9978,9.40953 9.11591,17.8099 17.18284,23.51387 11.58756,8.22506 27.44037,9.82978 40.53347,4.39385 4.42389,-1.7734 8.34474,-4.55945 12.09697,-7.45443 1.3765,-1.13151 2.75983,-2.2731 3.96092,-3.59322 0.59229,-0.55915 0.52584,-1.40597 0.54238,-2.1504 -0.0397,-5.73704 -1.2e-4,-11.47391 -0.0232,-17.21096 -2.31287,-0.0132 -4.62541,-0.0132 -6.93497,0 -0.0134,4.52611 -0.0135,9.05191 0.01,13.57803 -0.0199,0.49958 -0.003,1.00927 -0.13912,1.49563 -0.56581,0.86353 -1.48558,1.39636 -2.3624,1.89595 -0.22171,-1.0091 -0.50928,-2.0217 -0.46626,-3.06058 0.0794,-0.8139 0.52594,-1.52849 0.68145,-2.32584 -0.2283,-1.11169 -0.83385,-2.09784 -1.10846,-3.19629 -0.39047,-1.36643 -0.21188,-2.87153 -0.84387,-4.16848 -0.31434,-0.6915 -1.34995,-1.16811 -1.84958,-0.39063 -0.89009,1.59473 -0.91007,3.49377 -1.37993,5.22745 -1.16802,-1.70721 -1.76998,-3.77182 -3.21593,-5.29046 0.3342,2.03147 1.18769,3.9504 1.38622,6.01162 -1.6478,-0.97273 -2.22346,-3.38122 -4.29147,-3.60288 -0.38715,2.21671 1.17157,4.04984 1.57522,6.13422 0.25479,0.99918 0.0959,2.08776 -0.61555,2.86527 -1.72721,2.10093 -3.74556,3.99685 -6.01213,5.50225 -0.23822,-1.36644 -0.22836,-2.75635 -0.23167,-4.13601 -0.003,-7.71887 -0.0107,-15.43785 0.003,-23.15667 10.25076,-0.01 20.50494,-0.01 30.75573,-0.003 -0.053,1.8098 0.20484,3.65635 -0.16576,5.43634 -0.69816,0.7643 -1.78005,1.1082 -2.3624,1.97836 -0.0596,0.39371 0.0333,0.79077 0.083,1.18448 1.53201,-0.55252 2.97452,-1.31662 4.4238,-2.05445 0.033,-2.84204 0.0163,-5.68443 0.0107,-8.52648 -4.42394,-0.0761 -8.8541,0.13238 -13.2714,-0.1323 0.4533,-2.73618 1.25386,-5.4061 2.13071,-8.033098 0.68492,-1.859379 1.27037,-3.887399 2.83546,-5.224064 1.63456,1.303583 2.90227,2.980792 4.13977,4.648309 0.59888,0.721249 1.21401,1.631073 2.21986,1.773334 1.43605,-0.06949 2.36259,-1.323295 3.28577,-2.266218 -1.42942,-4.297833 -3.21955,-8.463477 -4.90704,-12.662035 -1.14155,-2.699779 -2.16373,-5.45557 -3.46411,-8.082534 -1.85623,0.827114 -2.31626,3.007331 -3.87805,4.155401 -1.34338,1.081901 -2.92858,1.786686 -4.49698,2.46494 -2.34596,1.009109 -4.20845,2.878357 -5.63455,4.959445 -0.41031,0.473116 -0.75154,1.227816 -1.48607,1.178189 -3.58679,0.105872 -6.49839,-2.259884 -9.15538,-4.357508 -0.50296,-0.492974 -1.24748,-1.058854 -1.05227,-1.856216 0.62206,-1.134837 1.91264,-1.634478 3.04095,-2.120834 0.54268,1.14145 1.22755,2.289817 2.34593,2.951529 0.49302,0.274606 1.12487,0.602009 1.67413,0.261224 0.85369,-0.403641 1.25091,-1.353179 1.47588,-2.213406 0.43017,-1.902417 0.13574,-4.119169 -1.27716,-5.555081 -0.67498,-0.694796 -1.7701,-1.141685 -2.70653,-0.734729 -0.67499,0.459889 -0.93319,1.297251 -1.36004,1.958966 -0.64523,1.260552 -2.04509,1.799933 -3.19655,2.484807 0.0107,-3.00417 -0.10576,-6.011642 0.0796,-9.009191 0.76104,0.03308 1.53889,0.05292 2.26352,0.324232 3.48752,1.230782 6.77307,2.980555 9.86353,5.002086 2.25662,1.445843 4.34469,3.153148 6.72704,4.393859 0.34413,-0.565763 0.68162,-1.164706 0.74449,-1.836351 0.27466,-2.256435 0.14853,-4.535723 0.13862,-6.802089 -1.55515,-1.002492 -3.08031,-2.058193 -4.66856,-3.007743 -4.54635,-2.871833 -9.7842,-4.419913 -15.00221,-5.541517 -2.4081,-0.419771 -4.85032,-0.618216 -7.29174,-0.604358 z m 1.95089,7.405486 c 0.41287,0.0027 0.82574,0.0108 1.23792,0.02429 0.7246,0.03308 1.42929,0.208573 2.13408,0.387239 -2.43861,2.325915 -5.68152,3.539849 -8.35173,5.561375 1.63457,2.17372 3.66307,4.023312 5.25794,6.226811 0.51287,0.469816 0.0266,1.06196 -0.28111,1.485457 -1.80994,2.359001 -3.93771,4.46327 -5.65833,6.891753 -1.36986,1.713834 0.1688,3.785162 0.61218,5.561847 -0.51619,-0.01324 -1.02895,-0.02946 -1.5418,-0.04942 -0.53935,-1.670823 -0.96969,-3.907577 -2.90866,-4.473335 -2.54451,-0.608779 -5.23144,-0.545769 -7.79582,-0.08919 -1.55183,0.258072 -2.58065,1.54494 -3.80824,2.398542 -1.082,-1.813075 -1.82628,-3.804718 -2.95128,-5.588024 -0.65514,-1.138152 -2.12452,-1.747194 -3.36864,-1.270763 -1.75698,0.61539 -2.96142,2.187075 -3.81838,3.765262 -0.91327,1.61127 -0.89014,3.517093 -0.95631,5.310323 -0.0132,3.10343 -0.0332,6.206739 0.013,9.310159 0.66839,-0.10917 1.33687,-0.21843 2.00852,-0.32761 0.16217,-3.87764 0.35099,-7.755081 0.29473,-11.636007 -0.0431,-1.915659 1.0321,-3.728604 2.69973,-4.651695 -0.40698,0.817214 -0.99255,1.544785 -1.29365,2.411634 -0.22168,1.068665 -0.17849,2.170285 -0.22147,3.258784 -0.053,3.315177 -0.2713,6.627474 -0.18856,9.942644 0.65846,0.0298 1.31664,0.0727 1.97513,0.10904 0.42351,-3.67911 0.32126,-7.384833 0.31794,-11.077193 0.0107,-1.058738 0.0107,-2.358917 1.04211,-2.974313 0.6419,0.03645 0.80392,0.747782 1.10173,1.204362 0.56906,1.217544 1.27404,2.418504 1.49576,3.758471 -0.37393,1.111679 -1.17465,2.084382 -1.22098,3.301931 -0.1919,2.567442 -0.27134,5.287052 0.85696,7.672512 -1.74376,0.54591 -3.56682,0.75091 -5.34037,1.17771 -0.80734,0.22168 -1.71408,0.45038 -2.23685,1.16172 -0.14228,0.73449 -0.0397,1.48876 0.0199,2.22988 0.51288,4.29449 0.84714,8.60563 1.30045,12.90676 0.0894,0.84035 0.21171,1.69398 0.53269,2.48141 0.49301,0.0828 0.99605,0.006 1.49236,-0.0334 -0.0829,-4.89998 -0.97306,-9.75704 -1.00282,-14.66362 3.90775,0.96609 7.92493,1.37965 11.94187,1.56493 1.97538,-0.0132 4.0265,-0.63193 5.50222,-1.98513 0.91323,-0.81059 1.03265,-2.091 1.17491,-3.22584 2.31949,0.0107 4.64218,-0.0657 6.96164,0.0732 -0.7511,1.22416 -1.80643,2.24284 -2.47482,3.51662 -0.27135,0.43675 -0.28799,1.30387 0.37708,1.36674 1.53862,0.27792 3.1101,0.25822 4.66858,0.33102 -0.0529,-0.59887 -0.10225,-1.19477 -0.15849,-1.79031 -0.6618,-0.12904 -1.32686,-0.24803 -1.9853,-0.37706 0.62203,-1.15469 1.40624,-2.30613 2.57758,-2.96123 1.01584,-0.30769 2.10743,-0.13549 3.15634,-0.16527 -0.006,9.18786 0.0466,18.37575 -0.0296,27.56362 -1.53861,0.033 -3.07742,-0.0298 -4.60942,-0.11245 -1.39963,-0.0199 -2.84558,-1.13187 -2.88198,-2.59095 0.268,-1.11169 1.28404,-1.77958 2.03183,-2.56041 1.56507,-1.54177 3.43463,-3.17004 3.6861,-5.49595 0.24485,-3.11996 -0.64838,-6.49801 -2.99104,-8.68497 -2.39891,-2.2895 -5.88983,-3.0006 -9.10936,-2.81534 -2.29962,0.16545 -4.68539,0.6186 -6.60781,1.96187 -1.39302,0.97603 -2.54796,2.5346 -2.48842,4.30469 0.0298,1.78994 0.41368,3.54672 0.59569,5.3234 -1.10846,0.006 -2.30606,0.16843 -3.27558,-0.48999 0.74122,-0.34738 1.50541,-0.64173 2.26646,-0.94941 -0.36729,-1.32342 -0.87009,-2.79873 -2.15059,-3.50017 -1.38309,-0.29446 -2.71004,0.63815 -3.47766,1.72003 -0.97282,1.44585 -0.68169,3.29876 -0.47986,4.92988 0.13235,1.33004 0.89348,2.59723 2.14087,3.14976 2.03497,0.91647 4.36734,0.81406 6.51479,0.4071 1.28381,-0.24152 2.6504,-0.89324 3.16986,-2.17364 0.91658,-2.44505 0.19563,-5.10515 0.64564,-7.61631 0.11911,-0.8933 0.99551,-1.4194 1.85249,-1.33668 1.83312,0.10919 3.749,0.46637 5.29091,1.52181 0.69155,0.47314 1.42286,1.58479 0.61217,2.28949 -1.69079,1.64436 -4.18569,2.08793 -5.89968,3.71243 -2.07131,1.76017 -2.81253,4.63165 -2.5776,7.25864 0.12904,1.73698 0.8339,3.3519 1.24421,5.03261 -4.04009,-0.92635 -7.48127,-3.41143 -10.65117,-5.96897 -2.17716,-1.78991 -4.19533,-3.77484 -5.94569,-5.98497 -2.4221,-2.99424 -3.97759,-6.56442 -5.41698,-10.1079 -1.45584,-3.50044 -1.92885,-7.33153 -1.8263,-11.09995 -0.0696,-3.73869 0.14894,-7.570088 1.50886,-11.093693 3.14341,-8.688272 9.26154,-16.592301 17.69907,-20.648594 5.53092,-2.853631 11.77711,-4.03818 17.97002,-3.997896 z m 3.10398,3.561217 c 0.0694,2.623687 0.33087,5.296799 -0.17207,7.894009 -1.90591,-1.273794 -3.2792,-3.133234 -4.77809,-4.830521 1.59817,-1.101751 3.1965,-2.216495 4.95016,-3.063488 z m 7.61358,3.027622 c 1.05264,0.03591 1.64323,1.275443 1.88931,2.216313 0.46985,1.270486 -0.21484,2.550972 -0.83025,3.629558 -2.33607,-0.615389 -3.08747,-4.08606 -1.53893,-5.783348 0.16958,-0.04838 0.32947,-0.06765 0.47987,-0.06253 z m 19.6514,3.049915 c 1.34336,1.981827 2.15382,4.248338 3.0836,6.4386 1.35331,3.232457 2.44866,6.567629 3.76559,9.816619 0.36727,0.823838 -0.89679,2.196691 -1.58834,1.290166 -1.63789,-1.915661 -3.10346,-3.979923 -4.82079,-5.829409 -0.59558,-0.59554 -1.23421,-1.280781 -2.12099,-1.370106 -1.10845,1.091813 -1.52538,2.650116 -2.15736,4.026489 -1.54192,3.91732 -3.18638,7.854873 -3.83489,12.040193 -5.8368,0.0397 -11.67364,0.0164 -17.50713,0.0131 0.0107,-2.86189 -0.0697,-5.72708 0.0562,-8.58899 2.62723,-0.741113 5.39655,-0.771021 8.01052,-1.551856 1.08861,-0.238207 1.56529,-1.3367 2.08807,-2.196929 1.38309,-2.593909 2.90816,-5.154746 4.9497,-7.292067 1.92904,-2.004988 4.66891,-2.828686 6.99172,-4.251368 1.15478,-0.688184 2.07821,-1.674274 3.0841,-2.544422 z m -27.16272,4.291596 c -0.0564,0.59223 0.0697,1.233981 -0.18175,1.78982 -1.64781,2.441713 -4.20903,4.195241 -5.63845,6.775911 0.99597,3.2854 2.74665,6.296129 3.86834,9.541845 0.20845,0.60545 0.25485,1.25052 0.30778,1.88577 -0.47315,-0.47974 -0.92338,-0.98895 -1.23113,-1.59112 -1.62461,-3.076952 -2.92171,-6.309802 -4.50667,-9.406601 -0.25478,-0.463196 -0.36058,-1.048831 0.003,-1.488852 1.8166,-2.676627 4.13625,-4.962726 6.13476,-7.497088 0.41363,-0.0033 0.82685,-0.0064 1.24375,-0.0097 z m 2.02845,2.199832 c 1.77352,0.962792 3.33231,2.273231 5.10915,3.236018 1.29045,0.711342 2.77253,0.893311 4.18871,1.240705 -0.15551,1.541799 -0.94313,3.288398 -2.60086,3.652355 -2.18384,0.48966 -4.42057,0.827411 -6.66064,0.870426 -0.15886,-2.99425 -0.10917,-6.001949 -0.0364,-8.999504 z m -2.15398,1.939096 c 0.1489,2.557514 0.13912,5.118005 0.0829,7.678837 -0.7511,0.145559 -1.49584,0.311034 -2.24363,0.459913 -0.73455,-1.118283 -1.6113,-2.265956 -1.71386,-3.648936 1.03567,-1.68737 2.47831,-3.093611 3.87463,-4.489814 z m -17.82995,4.741832 c 0.36616,0.0021 0.72967,0.01167 1.08041,0.0052 1.34338,0.02647 2.93181,-0.0063 3.92115,1.061878 0.80405,1.12161 0.65847,2.590605 0.82058,3.894174 1.4559,0.06617 2.93844,-0.112256 4.37776,0.162359 0.76766,0.436718 1.21767,1.243839 1.66105,1.978345 0.98603,1.78662 1.92914,3.62959 2.38907,5.63456 -4.1493,0.44004 -8.33838,0.20185 -12.48766,0.59225 0.16215,0.95949 0.51606,1.88236 0.60539,2.85509 -0.37721,1.05542 -1.51898,1.67432 -2.60427,1.68755 -2.43859,0.0595 -4.89332,0.0993 -7.31208,-0.24475 -1.85624,-0.24153 -3.7688,-0.37079 -5.49933,-1.13505 2.67023,-0.97602 5.72414,-0.64192 8.20245,-2.21679 -0.78088,-1.00912 -1.76343,-1.83269 -2.57079,-2.81535 -0.22502,-2.10093 -0.19194,-4.25836 -0.0199,-6.365912 1.29044,-1.571546 2.85528,-2.908004 4.38066,-4.247969 0.83882,-0.78413 1.95706,-0.851627 3.0555,-0.846206 z m 16.46989,4.995289 c 0.47978,0.01067 0.95985,0.02295 1.44292,0.04611 0.0464,1.346586 0.063,2.696797 -0.053,4.040077 -0.7478,-1.25064 -1.1783,-2.653498 -1.39009,-4.086113 z m 1.89611,6.778837 c -0.0596,0.25147 -0.17547,0.761 -0.23506,1.01246 -0.25477,0.66831 -1.12503,0.3675 -1.66105,0.50645 0.38383,-0.77751 0.94647,-1.50235 1.89611,-1.51891 z m -15.17089,10.72972 c 0.39799,0.002 0.79497,0.0107 1.1846,0.006 1.85623,0.0464 3.82841,-0.10567 5.53906,0.75122 2.39892,1.16791 3.88759,3.6924 4.32107,6.26317 0.16213,1.30355 0.19529,2.76551 -0.62528,3.87719 -1.28714,1.78664 -3.14686,3.06392 -4.47371,4.81746 -1.24414,1.64434 -0.8701,4.31111 0.86373,5.46251 1.06214,0.72787 2.39577,0.77766 3.63325,0.90338 2.20369,0.14227 4.43694,0.1984 6.63401,-0.11923 1.69412,-0.21174 2.77972,-1.67746 3.9643,-2.74943 1.92906,-2.05131 4.17889,-3.93064 5.35682,-6.55104 0.87024,0.27792 1.73713,0.56271 2.61395,0.83071 0.30444,-0.79737 0.60576,-1.59478 0.9631,-2.36899 0.57905,1.71052 0.80359,3.54674 0.61167,5.34328 -0.67166,0.67827 -1.63084,1.01892 -2.23636,1.76997 -0.63862,0.7808 -0.84377,1.79662 -1.33678,2.65685 -1.73715,1.00251 -3.6497,1.67408 -5.49934,2.44168 -2.6173,1.06203 -5.40697,1.52524 -8.16318,2.06122 -1.62137,0.20843 -3.25925,0.0627 -4.88717,0.10567 -1.34672,-0.033 -2.74307,0.15231 -4.04672,-0.28109 -2.14743,-0.67824 -3.99694,-2.27958 -4.90025,-4.35071 -1.17136,-2.53767 -0.77082,-5.75706 1.07554,-7.87124 1.46581,-1.6609 3.70554,-2.21345 5.44599,-3.49387 1.29706,-0.93961 1.72391,-2.78549 1.14485,-4.24456 -0.50624,-1.51864 -1.99482,-2.44188 -3.47717,-2.81244 -1.99522,-0.49957 -4.11622,-0.60546 -6.12798,-0.15219 -0.63862,0.0729 -1.00955,0.65161 -1.1783,1.21404 -0.74782,2.63032 -0.37703,5.39309 -0.56564,8.07966 0,0.89662 -0.83054,1.4527 -1.60482,1.67107 -1.61142,0.48967 -3.322,0.33738 -4.97972,0.32084 -1.54854,0.0265 -2.96489,-1.41305 -2.96489,-2.95153 -0.0199,-1.24072 -0.15215,-2.64344 0.63205,-3.69886 0.59558,-0.77752 1.6613,-0.56898 2.51168,-0.56898 -0.61213,0.89663 -2.10455,1.53872 -1.76044,2.81581 0.30442,1.33667 1.63136,2.11392 2.92177,2.22311 1.15148,0.15549 2.72636,0.0266 3.20286,-1.23731 0.37386,-1.60466 0.0364,-3.25545 -0.13574,-4.86009 0.1092,-1.88919 1.15463,-3.78201 2.89507,-4.6323 1.04973,-0.62036 2.25414,-0.6767 3.44812,-0.67174 z"
       style="display:inline;fill:#000000;stroke-width:0.33087009;enable-background:new"
       inkscape:connector-curvature="0" />
    <path
       style="display:inline;fill:#000000;stroke-width:0.33087009;enable-background:new"
       id="path134"
       d="m 97.120625,182.16286 c 0.50957,-1.53185 2.445231,-2.79903 3.964005,-1.81969 1.71396,1.0852 2.8059,2.87183 3.93417,4.50956 -0.69816,0.65509 -1.43268,1.2771 -2.22021,1.82301 -0.0397,-1.12161 0.10589,-2.24982 -0.033,-3.36481 -0.3011,-1.0091 -1.35993,-1.44253 -2.21363,-1.88256 -1.10185,2.00828 0.0893,4.26142 -0.0762,6.39543 0.0696,1.98514 -2.07466,4.00667 -4.056655,3.18283 -2.06471,-0.97602 -3.427953,-2.93136 -4.691937,-4.75439 0.794134,-0.79735 1.641186,-1.54841 2.600754,-2.13732 -0.195224,1.38959 -0.870227,3.00417 0.0694,4.27134 0.60882,1.03229 2.561033,1.20763 2.981253,-0.0695 0.52942,-2.04798 -0.90661,-4.11583 -0.25808,-6.15391 z"
       inkscape:connector-curvature="0" />
    <path
       style="display:inline;fill:#000000;stroke-width:0.33087009;enable-background:new"
       id="path136"
       d="m 57.500574,185.84859 c 0.68824,-2.11745 2.90516,-3.41442 5.042676,-3.56001 1.862877,-0.0265 3.65296,0.91318 4.834213,2.32924 1.545234,1.75685 2.005162,4.11915 3.024281,6.16714 -0.959557,0.64186 -1.988617,1.18115 -3.097074,1.52856 0.400367,-1.68406 1.747068,-3.54677 0.575738,-5.22089 -1.436032,-2.69318 -5.390102,-2.51121 -7.368787,-0.54261 -1.7206,1.3929 -2.322807,4.26802 -0.565816,5.88261 1.118389,0.19189 1.985301,-0.71795 2.829062,-1.30358 -0.03976,-0.6948 -0.07282,-1.38958 -0.08273,-2.08108 1.508826,1.50208 2.223542,3.5534 3.080535,5.4525 -0.986043,0.0265 -2.025012,-0.0761 -2.941565,0.36727 -0.625367,0.1985 -1.3467,0.72126 -1.968768,0.22829 -1.17793,-0.83377 -1.97537,-2.09764 -2.637141,-3.3549 -0.863602,-1.80315 -1.416172,-3.94049 -0.724632,-5.89254 z"
       inkscape:connector-curvature="0" />
    <path
       style="display:inline;fill:#000000;stroke-width:0.33087009;enable-background:new"
       id="path138"
       d="m 149.59883,182.22572 c 4.04009,3.41444 7.87505,7.06378 11.81585,10.59401 14.67471,13.3401 29.28327,26.74968 43.96129,40.08648 2.6636,2.33583 5.18164,4.8404 7.92798,7.077 0.11912,-19.24918 0.0298,-38.49837 0.0662,-57.74757 3.19305,-0.0132 6.38938,-0.01 9.58242,-0.003 -0.003,26.17399 0.0397,52.34799 -0.0231,78.51866 -4.06658,-3.31848 -7.8519,-6.97774 -11.7828,-10.45504 -14.81039,-13.4195 -29.5347,-26.93164 -44.30535,-40.39417 -2.55776,-2.28953 -4.99966,-4.71469 -7.65669,-6.89171 -0.10258,30.33615 -0.0662,60.67562 -0.0994,91.01511 -3.15664,0.73448 -6.34968,1.36641 -9.58239,1.65092 0,-34.83577 0,-69.67488 0,-104.51398 0.0298,-2.98101 -0.0829,-5.96204 0.0961,-8.93643 z"
       inkscape:connector-curvature="0" />
    <path
       style="display:inline;fill:#000000;stroke-width:0.33087009;enable-background:new"
       id="path140"
       d="m 235.53933,182.23564 c 3.08384,-0.0132 6.1677,-0.0132 9.25152,0 0.0199,16.76778 -0.013,33.53886 0.0164,50.30663 0.11911,1.77669 -1.14818,3.1729 -1.99192,4.60882 -2.25002,3.32511 -4.40405,6.77593 -7.23312,9.64776 -0.1125,-21.52217 -0.0232,-43.04433 -0.043,-64.56321 z"
       inkscape:connector-curvature="0" />
    <path
       id="path142"
       d="m 34.887751,186.08331 c -0.473169,0.81721 -0.476452,2.12096 -1.545198,2.41211 -2.061412,0.68157 -4.185639,1.19768 -6.316533,1.62116 -1.115075,0.35402 -1.740336,-0.8305 -2.534461,-1.3764 0.281255,2.61705 1.184353,5.11849 2.014874,7.60322 0.565806,1.50869 1.697745,3.33813 3.544078,3.19918 1.591545,-0.16543 2.461656,-1.70046 2.858717,-3.08675 0.7081,0.50952 1.442671,1.28689 2.405532,1.02554 1.373178,-0.22499 2.140859,-1.65726 1.948953,-2.96414 -0.268012,-2.91486 -0.966393,-5.84994 -2.375962,-8.43392 z m 0.823976,4.98271 c 0.258091,0.88338 0.575638,1.93916 -0.02326,2.76299 -0.456622,0.72127 -1.449235,0.84688 -2.193715,0.54912 -0.837133,-0.42682 -1.032231,-1.40637 -1.273779,-2.2236 1.105156,-0.53267 2.292958,-0.8503 3.490768,-1.08851 z m -4.390833,1.40645 c 0.215079,0.86353 0.59575,1.83588 0.08286,2.67625 -0.704775,1.50871 -3.179825,1.88924 -4.086447,0.38384 -0.354049,-0.53597 -0.764375,-1.45247 -0.115841,-1.92891 1.181258,-0.86022 2.69992,-1.03855 4.11941,-1.13118 z"
       style="display:inline;fill:#000000;stroke-width:0.33087009;enable-background:new"
       inkscape:connector-curvature="0" />
    <path
       style="display:inline;fill:#000000;stroke-width:0.33087009;enable-background:new"
       id="path144"
       d="m 106.89826,186.5831 c 2.8489,2.68986 5.61841,5.46241 8.36805,8.25486 -0.64854,0.80729 -1.35664,1.56494 -2.18052,2.19688 0.0529,-0.72127 0.19522,-1.43261 0.17539,-2.15388 -0.31106,-0.93302 -1.13825,-1.56164 -1.76694,-2.27629 -2.07466,1.99837 -4.16915,3.99012 -6.03862,6.18701 0.13235,0.67493 0.28124,1.34989 0.41361,2.03144 -1.88935,-1.3201 -3.53719,-2.981 -4.84417,-4.87682 0.66839,0.12243 1.33347,0.41691 2.02832,0.34742 0.74118,-0.27792 1.31693,-0.85362 1.87942,-1.39291 1.48565,-1.5087 2.88861,-3.10343 4.2717,-4.70807 -0.68825,-0.55254 -1.33012,-1.21424 -2.16727,-1.53517 -0.8173,-0.0529 -1.62467,0.16542 -2.4353,0.23822 0.64191,-0.8867 1.45257,-1.62781 2.29633,-2.31269 z"
       inkscape:connector-curvature="0" />
    <path
       style="display:inline;fill:#000000;stroke-width:0.33087009;enable-background:new"
       id="path150"
       d="m 72.168674,193.79906 c 2.03162,2.83213 4.106262,5.64108 5.896344,8.63863 -0.651843,0.4996 -1.316921,0.97936 -2.011777,1.42269 0.07603,-0.89992 0.536036,-1.90242 -0.04304,-2.72624 -0.53934,-0.86355 -1.058829,-1.88919 -1.991929,-2.36893 -1.168008,0.33415 -2.06141,1.22086 -3.007733,1.9421 0.519499,0.81061 0.952951,1.71055 1.674274,2.36894 0.56913,0.31102 1.237511,0.36395 1.856271,0.54922 -0.751113,0.90987 -1.704065,1.61128 -2.729809,2.18035 0.06943,-1.68736 -0.688221,-3.19275 -1.717278,-4.47318 -1.11839,0.68819 -2.183835,1.45578 -3.126857,2.36892 0.704788,1.06868 1.323539,2.28954 2.408845,3.02736 0.810654,0.33084 1.687509,0.49296 2.508094,0.80396 -0.741184,0.54921 -1.51215,1.12822 -2.438615,1.30688 -0.876853,-0.62532 -1.402959,-1.59471 -2.028316,-2.44502 -1.399645,-2.08108 -3.020977,-4.04305 -4.030174,-6.35905 0.671696,0.21506 1.307002,0.58561 2.021699,0.6584 1.389715,-0.61539 2.57097,-1.60796 3.821712,-2.45493 0.923172,-0.70804 1.968756,-1.31351 2.68016,-2.25644 0.178683,-0.71466 0.181987,-1.45578 0.258096,-2.18366 z"
       inkscape:connector-curvature="0" />
    <path
       style="display:inline;fill:#000000;stroke-width:0.33087009;enable-background:new"
       id="path152"
       d="m 39.837985,200.25736 c 1.839716,2.92476 2.931626,6.24327 4.145984,9.45915 -0.737881,0.39706 -1.532003,0.67829 -2.349284,0.85362 0.201837,-0.63194 0.496324,-1.23739 0.615449,-1.88919 -0.12574,-1.32008 -0.77427,-2.51449 -1.31361,-3.70226 -1.134934,0.45988 -2.508108,0.77751 -3.252601,1.8164 -0.175361,1.63773 1.343392,2.72625 2.623911,3.39126 -0.992651,0.76428 -2.170592,1.21094 -3.371704,1.53186 0.135655,-0.7742 0.416913,-1.5484 0.327583,-2.33914 -0.165446,-0.85692 -0.579057,-1.63443 -0.946336,-2.41193 -1.227581,0.3871 -2.385676,0.96608 -3.408101,1.75022 0.516175,1.42268 0.866912,3.28209 2.412146,3.9438 0.380515,0.25807 1.134932,0.30107 0.982715,0.9297 -0.731254,0.31432 -1.505519,0.51946 -2.269856,0.74444 -1.469129,-3.31187 -3.116933,-6.59396 -4.000393,-10.1242 0.605514,0.39373 1.174638,0.84038 1.747065,1.28702 2.379066,-0.85691 4.738267,-1.80977 6.991589,-2.96114 0.946322,-0.35403 0.840447,-1.47894 1.065443,-2.27961 z"
       inkscape:connector-curvature="0" />
    <path
       style="display:inline;fill:#000000;stroke-width:0.33087009;enable-background:new"
       id="path154"
       d="m 109.90268,201.83554 c 0.94963,-0.17536 1.99853,0.60215 2.13752,1.56827 -0.18198,1.11828 -1.7173,1.98512 -2.57095,0.98594 -0.93311,-0.67494 -0.7379,-2.27959 0.43343,-2.55421 z"
       inkscape:connector-curvature="0" />
    <path
       id="path156"
       d="m 80.333575,207.79377 c -0.386368,-0.013 -0.775507,0.0162 -1.163257,0.0931 -2.87209,0.55583 -5.247969,3.59311 -4.529947,6.54766 0.602205,2.43177 2.521566,4.36733 4.629296,5.5948 3.298919,1.7039 7.702704,-0.75105 8.159328,-4.39045 0.43016,-2.28291 -1.035804,-4.3078 -2.620726,-5.76687 -1.182911,-1.17476 -2.800441,-2.02188 -4.474694,-2.0782 z m 1.780762,1.85235 c 1.432578,-0.005 2.839586,1.01052 3.09767,2.4756 0.287874,1.80317 -0.780943,3.50404 -1.968821,4.7646 -1.005888,1.0422 -2.372269,1.93844 -3.88772,1.75978 -1.531999,-0.0397 -2.517939,-1.6046 -2.63044,-2.99417 0.304419,-2.51782 1.988562,-4.94612 4.407326,-5.83281 0.31951,-0.11661 0.651386,-0.17198 0.981985,-0.173 z"
       style="display:inline;fill:#000000;stroke-width:0.33087009;enable-background:new"
       inkscape:connector-curvature="0" />
    <path
       style="display:inline;fill:#000000;stroke-width:0.33087009;enable-background:new"
       id="path160"
       d="m 46.412652,212.6016 c 0.876841,0.99587 1.704046,2.07116 2.216927,3.30855 0.231617,0.51614 -0.03647,1.07196 -0.142285,1.58811 -0.787501,2.66999 -1.65111,5.32347 -2.243396,8.04972 2.051482,-1.08853 4.595983,-2.03806 5.317307,-4.48971 0.919858,1.06204 1.604796,2.29944 2.034941,3.6361 -0.761033,-0.17535 -1.551847,-0.80066 -2.342662,-0.42018 -2.872076,1.28371 -5.300762,3.47728 -8.368064,4.33751 -0.211756,-1.79323 0.420228,-3.50709 0.886774,-5.20436 0.631981,-2.26966 1.333465,-4.52279 1.766928,-6.84209 -1.83641,0.84368 -3.596715,1.86933 -5.214744,3.07695 -0.701458,0.49297 -0.552568,1.469 -0.777573,2.2035 -1.095221,-1.06867 -1.852943,-2.41856 -2.332733,-3.86109 0.787501,0.21176 1.634563,0.82383 2.438628,0.33086 1.958821,-0.96611 3.854782,-2.08108 5.687881,-3.26553 0.909935,-0.47645 0.876843,-1.5782 1.072071,-2.44834 z"
       inkscape:connector-curvature="0" />
    <path
       id="path162"
       d="m 90.9498,216.9159 c 0.287875,0.79073 1.313522,1.58469 0.721233,2.45815 -1.141549,1.8925 -2.471903,3.67931 -3.845072,5.40969 -0.618751,0.90323 -1.816261,0.70444 -2.755967,0.88642 1.555155,1.59804 3.401095,2.94825 5.462494,3.81178 -0.201837,-0.63853 -0.529261,-1.25049 -0.585507,-1.92213 0.241546,-1.03227 0.956573,-1.88622 1.730847,-2.57107 0.0893,0.0496 0.271256,0.14907 0.360596,0.19871 0.65847,1.97853 0.297764,4.16875 1.105114,6.10759 0.698171,1.51532 2.223304,2.41838 3.732142,2.9709 -0.46986,-1.00249 -1.151267,-1.94874 -1.270388,-3.07365 -0.155523,-1.37304 -0.152187,-2.75909 -0.05622,-4.13215 0.976111,-0.0167 2.074551,0.0693 2.878606,-0.59565 0.880138,-0.71134 1.482235,-1.97547 1.025602,-3.08382 -0.572427,-1.33336 -1.75688,-2.25602 -2.858727,-3.1328 -1.763601,-1.29034 -3.517155,-2.70004 -5.644739,-3.33197 z m 4.512985,3.18609 c 0.651847,0.90655 1.641515,1.86606 1.40658,3.09355 -0.264705,0.86353 -0.913644,1.62451 -1.73423,2.00498 -1.101837,0.21837 -2.064653,-0.53936 -2.994431,-0.99594 0.893394,-1.52194 1.876121,-3.04715 3.322081,-4.10259 z"
       style="display:inline;fill:#000000;stroke-width:0.33087009;enable-background:new"
       inkscape:connector-curvature="0" />
    <path
       style="display:inline;fill:#000000;stroke-width:0.33087009;enable-background:new"
       id="path166"
       d="m 53.794672,230.52737 c 0.06284,-1.8495 2.388982,-3.28541 4.013624,-2.28292 1.713979,1.03229 2.809212,2.7858 4.030166,4.32427 -0.704776,0.74774 -1.459197,1.44585 -2.302957,2.03147 -0.274627,-1.55833 0.592285,-3.73205 -1.02242,-4.74447 -0.499638,-0.43012 -1.134936,-0.14558 -1.694122,-0.0529 -0.02977,2.3557 0.651831,4.73453 0.07283,7.07037 -0.377214,1.83294 -2.858851,2.67663 -4.364363,1.64768 -1.723907,-1.18448 -2.944871,-2.94133 -4.139368,-4.62538 0.787512,-0.79075 1.614717,-1.54839 2.551119,-2.16049 -0.08273,0.92972 -0.277941,1.84949 -0.337491,2.78582 -0.138976,1.18445 0.790803,2.36562 1.952208,2.57073 0.830523,-0.0661 1.555152,-0.78743 1.588245,-1.62449 0.07283,-1.6576 -0.522792,-3.28209 -0.347432,-4.93966 z"
       inkscape:connector-curvature="0" />
    <path
       style="display:inline;fill:#000000;stroke-width:0.33087009;enable-background:new"
       id="path168"
       d="m 105.44236,228.79698 c 1.66436,-0.75436 3.6199,-0.60547 5.25776,0.14889 1.73713,0.79405 3.17648,2.09101 4.86398,2.97771 -0.38713,1.14804 -0.95958,2.23657 -1.80661,3.11996 -0.35409,-1.38298 -0.31104,-3.0141 -1.43274,-4.06291 -1.26727,-1.37967 -3.60002,-1.53186 -5.03936,-0.32754 -1.59155,1.28701 -2.60404,3.38795 -2.41875,5.44917 0.32096,1.33337 1.32684,2.60385 2.67023,3.0108 0.91985,0.2283 1.4989,-0.71795 1.7669,-1.44915 0.44671,-1.06206 -0.4864,-1.98843 -0.87352,-2.90491 1.99523,0.69479 3.8945,1.68075 5.54893,3.00086 -0.4864,0.27461 -0.99265,0.51614 -1.43934,0.8503 -0.82391,0.64186 -1.13827,1.71053 -1.89927,2.40864 -1.86618,-0.0926 -3.67282,-0.80067 -5.26436,-1.75354 -1.75042,-1.10505 -3.27247,-2.92808 -3.289,-5.08526 -0.13898,-2.26304 1.27391,-4.50294 3.35515,-5.38302 z"
       inkscape:connector-curvature="0" />
    <path
       style="display:inline;fill:#000000;stroke-width:0.33087009;enable-background:new"
       id="path170"
       d="m 65.521202,235.61592 c 1.621334,1.17123 3.126857,2.5145 4.334588,4.11585 -0.545967,-0.0199 -1.095237,-0.096 -1.644497,-0.0497 -0.989336,0.56245 -1.694125,1.49548 -2.504791,2.26966 1.151472,1.25065 2.309571,2.55422 3.775385,3.44092 0.641915,0.01 1.055516,-0.68157 1.462512,-1.10505 0.761035,-0.83047 0.744486,-1.99839 0.863607,-3.04389 1.627948,1.14147 3.001118,2.58399 4.284946,4.09269 -0.847063,0.0993 -1.876111,-0.10917 -2.498177,0.62532 -1.488976,1.49215 -3.011045,2.981 -4.284952,4.66505 -0.612124,0.71798 -0.301096,1.69068 -0.301096,2.53769 -1.710685,-0.98267 -3.252594,-2.28293 -4.380912,-3.90743 0.780894,-0.20512 1.67096,-0.19188 2.336049,-0.70801 0.711393,-0.57239 1.260662,-1.31019 1.839722,-2.00498 -1.224276,-1.17125 -2.29965,-2.52445 -3.725764,-3.45417 -1.654415,0.73783 -2.918403,2.59393 -2.349284,4.45001 -1.770233,-1.00579 -3.222803,-2.45493 -4.546338,-3.97687 0.830516,-0.1555 1.790083,-0.0661 2.468394,-0.66502 1.012501,-0.84699 1.839712,-1.88587 2.752954,-2.83544 0.668389,-0.76095 1.429415,-1.48884 1.833096,-2.43509 0.185298,-0.6551 0.195218,-1.34328 0.284558,-2.01162 z"
       inkscape:connector-curvature="0" />
    <path
       style="display:inline;fill:#000000;stroke-width:0.33087009;enable-background:new"
       id="path172"
       d="m 78.627533,246.07097 c 3.060665,1.61788 6.002224,3.4508 8.87761,5.37308 -0.271324,0.79737 -0.648539,1.55502 -1.115086,2.26305 -0.317643,-0.72788 -0.406983,-1.57486 -0.916543,-2.20019 -0.883459,-0.81721 -1.991926,-1.32674 -3.050756,-1.86932 -0.727942,1.03557 -1.376472,2.12407 -1.88273,3.2854 0.718021,0.46981 1.406252,1.03888 2.240082,1.30025 0.691558,0.10918 1.3831,-0.0661 2.07134,-0.10918 -0.307724,1.1944 -0.919855,2.27628 -1.790082,3.15306 -0.423531,-1.51534 -1.611411,-3.06702 -3.255899,-3.18283 -0.761032,0.86354 -1.356621,1.87265 -1.803322,2.93468 0.698171,1.00912 1.912518,1.51201 2.991193,2.01823 1.022432,0.51613 2.064714,-0.25146 3.08384,-0.40365 -0.459927,0.9231 -1.075372,1.75353 -1.747068,2.53435 -3.067294,-1.89248 -6.369515,-3.4872 -9.109235,-5.85283 0.724636,-0.0107 1.445962,0.003 2.170599,0.0164 1.072072,-1.69729 2.120971,-3.40782 3.110311,-5.15142 0.340812,-0.66502 0.741182,-1.33666 0.820591,-2.09433 -0.142272,-0.6981 -0.469859,-1.34326 -0.694845,-2.01491 z"
       inkscape:connector-curvature="0" />
    <path
       style="display:inline;fill:#000000;stroke-width:0.33087009;enable-background:new"
       id="path174"
       d="m 91.948924,253.36633 c 1.895951,0.8503 3.825001,1.68738 5.505896,2.93137 -0.794125,0.3507 -1.80662,0.50624 -2.230155,1.36644 -1.065443,1.86602 -2.034943,3.80815 -2.782743,5.82306 -0.40036,0.81721 0.16875,1.61126 0.43016,2.37225 -1.938977,-0.50291 -3.719141,-1.46239 -5.357018,-2.59061 0.873538,-0.4268 1.849643,-0.82714 2.33604,-1.73038 1.025744,-1.70723 1.83972,-3.54675 2.521338,-5.41279 0.380518,-0.93633 -0.191908,-1.86604 -0.423518,-2.75934 z"
       inkscape:connector-curvature="0" />
    <path
       style="display:inline;fill:#000000;stroke-width:0.33087009;enable-background:new"
       id="path176"
       d="m 101.87877,257.59468 c 1.18454,0.29444 2.43197,0.51613 3.48419,1.17451 0.39045,0.23822 0.38051,0.77421 0.49302,1.17785 0.3375,2.0447 0.29779,4.15557 0.91656,6.15393 1.58492,-1.8131 3.18973,-3.60635 4.80772,-5.38634 1.37319,0.35732 2.72977,0.82052 3.94744,1.57155 -0.62207,0.3805 -1.4625,0.64849 -1.62796,1.4624 -0.66836,2.08109 -1.07204,4.23827 -1.58493,6.36235 -0.32424,0.95618 0.45664,1.74691 0.82062,2.56084 -2.03825,-0.22499 -4.0037,-0.91649 -5.77724,-1.93883 0.73456,-0.4235 1.86949,-0.50952 2.0978,-1.47562 0.63529,-1.87265 1.09524,-3.81143 1.3566,-5.77012 -2.46837,1.89248 -4.06653,4.69483 -6.60111,6.52778 -0.68164,-2.90822 -0.5989,-5.92561 -1.26068,-8.83383 -1.04226,1.60134 -1.68088,3.42434 -2.26984,5.23411 -0.35078,0.83046 0.24481,1.60135 0.52278,2.35569 -1.19449,-0.16542 -2.36252,-0.47643 -3.464365,-0.96277 2.177228,-1.51532 2.752995,-4.22173 3.775395,-6.50462 0.56913,-1.16464 0.61543,-2.45825 0.364,-3.70888 z"
       inkscape:connector-curvature="0" />
  </g>
</svg>
